<svg width="22" height="20" viewBox="0 0 22 20" fill="none" xmlns="http://www.w3.org/2000/svg">
<path d="M20.1712 11.7703L21.9768 3.64527C22.1072 3.05863 21.6712 2.5 21.083 2.5H6.08086L5.73077 0.749609C5.64354 0.31332 5.26816 0 4.83271 0H0.916667C0.410399 0 0 0.419727 0 0.9375V1.5625C0 2.08027 0.410399 2.5 0.916667 2.5H3.58581L6.26889 15.9154C5.627 16.293 5.19444 17.0009 5.19444 17.8125C5.19444 19.0206 6.15206 20 7.33333 20C8.51461 20 9.47222 19.0206 9.47222 17.8125C9.47222 17.2002 9.22598 16.6471 8.82964 16.25H16.837C16.4407 16.6471 16.1944 17.2002 16.1944 17.8125C16.1944 19.0206 17.1521 20 18.3333 20C19.5146 20 20.4722 19.0206 20.4722 17.8125C20.4722 16.9464 19.98 16.198 19.2661 15.8436L19.4768 14.8953C19.6072 14.3086 19.1712 13.75 18.5829 13.75H8.33086L8.08088 12.5H19.2774C19.7054 12.5 20.0764 12.1971 20.1712 11.7703Z" fill="#13B58C"/>
</svg>
