<svg width="24" height="24" viewBox="0 0 24 24" fill="none" xmlns="http://www.w3.org/2000/svg">
<path d="M20.1712 14.7703L21.9768 6.64527C22.1072 6.05863 21.6712 5.5 21.083 5.5H6.08086L5.73077 3.74961C5.64354 3.31332 5.26816 3 4.83271 3H0.916667C0.410399 3 0 3.41973 0 3.9375V4.5625C0 5.08027 0.410399 5.5 0.916667 5.5H3.58581L6.26889 18.9154C5.627 19.293 5.19444 20.0009 5.19444 20.8125C5.19444 22.0206 6.15206 23 7.33333 23C8.51461 23 9.47222 22.0206 9.47222 20.8125C9.47222 20.2002 9.22598 19.6471 8.82964 19.25H16.837C16.4407 19.6471 16.1944 20.2002 16.1944 20.8125C16.1944 22.0206 17.1521 23 18.3333 23C19.5146 23 20.4722 22.0206 20.4722 20.8125C20.4722 19.9464 19.98 19.198 19.2661 18.8436L19.4768 17.8953C19.6072 17.3086 19.1712 16.75 18.5829 16.75H8.33086L8.08088 15.5H19.2774C19.7054 15.5 20.0764 15.1971 20.1712 14.7703Z" fill="#13B58C"/>
</svg>
