<svg width="216" height="140" viewBox="0 0 216 140" fill="none" xmlns="http://www.w3.org/2000/svg">
<path fill-rule="evenodd" clip-rule="evenodd" d="M39 94.9575C39 98.8235 42.134 101.958 46 101.958H192C195.866 101.958 199 98.8235 199 94.9575C199 91.0915 195.866 87.9575 192 87.9575H186C182.134 87.9575 179 84.8235 179 80.9575C179 77.0915 182.134 73.9575 186 73.9575H205C208.866 73.9575 212 70.8235 212 66.9575C212 63.0915 208.866 59.9575 205 59.9575H183C186.866 59.9575 190 56.8235 190 52.9575C190 49.0915 186.866 45.9575 183 45.9575H119C122.866 45.9575 126 42.8235 126 38.9575C126 35.0915 122.866 31.9575 119 31.9575H62C58.134 31.9575 55 35.0915 55 38.9575C55 42.8235 58.134 45.9575 62 45.9575H22C18.134 45.9575 15 49.0915 15 52.9575C15 56.8235 18.134 59.9575 22 59.9575H47C50.866 59.9575 54 63.0915 54 66.9575C54 70.8235 50.866 73.9575 47 73.9575H7C3.13401 73.9575 0 77.0915 0 80.9575C0 84.8235 3.13401 87.9575 7 87.9575H46C42.134 87.9575 39 91.0915 39 94.9575ZM216 94.9575C216 98.8235 212.866 101.958 209 101.958C205.134 101.958 202 98.8235 202 94.9575C202 91.0915 205.134 87.9575 209 87.9575C212.866 87.9575 216 91.0915 216 94.9575Z" fill="#C2F1E7"/>
<path fill-rule="evenodd" clip-rule="evenodd" d="M139.873 110.077C142.911 108.122 145.613 105.682 147.37 103.713L139.873 110.077ZM150.206 100.441C151.659 98.6603 152.966 96.7984 154.125 94.8713C156.675 90.633 158.513 86.0794 159.637 81.3848C160.773 76.6368 161.178 71.7444 160.849 66.8877C160.562 62.6497 159.717 58.4389 158.31 54.3748C156.915 50.3428 154.968 46.4552 152.467 42.8289C150.977 40.668 149.291 38.5999 147.407 36.6492C144.641 33.7853 141.608 31.337 138.385 29.3056C134.921 27.123 131.239 25.4218 127.435 24.2039C122.671 22.6786 117.715 21.9114 112.759 21.9058C108.903 21.9015 105.046 22.3582 101.279 23.2778C97.0376 24.3131 92.9094 25.9349 89.0225 28.1458C85.6057 30.0894 82.3752 32.4881 79.4182 35.3437C75.7021 38.9322 72.6921 42.9775 70.3907 47.3068C68.1375 51.5453 66.5637 56.0562 65.6717 60.6772C64.7528 65.4381 64.5576 70.316 65.0889 75.1337C65.7776 81.3781 67.6868 87.5213 70.8225 93.1776C72.829 96.797 75.3377 100.217 78.3502 103.336C83.1326 108.289 88.716 111.999 94.696 114.458C101.968 117.449 109.827 118.591 117.545 117.871C124.023 117.266 130.402 115.349 136.251 112.111" fill="white"/>
<path d="M139.197 109.025C138.616 109.399 138.449 110.173 138.822 110.753C139.196 111.334 139.969 111.501 140.55 111.128L139.197 109.025ZM148.303 104.545C148.762 104.03 148.717 103.24 148.202 102.78C147.687 102.321 146.897 102.366 146.437 102.881L148.303 104.545ZM154.125 94.8713L153.054 94.2269L154.125 94.8713ZM159.637 81.3848L160.852 81.6756L159.637 81.3848ZM160.849 66.8877L162.096 66.8032L160.849 66.8877ZM158.31 54.3748L157.129 54.7835L158.31 54.3748ZM152.467 42.8289L151.438 43.5385L152.467 42.8289ZM147.407 36.6492L146.508 37.5176L147.407 36.6492ZM138.385 29.3056L139.051 28.2481L138.385 29.3056ZM127.435 24.2039L127.054 25.3943L127.435 24.2039ZM112.759 21.9058L112.758 23.1558L112.759 21.9058ZM101.279 23.2778L101.575 24.4921L101.279 23.2778ZM89.0225 28.1458L88.4045 27.0593L89.0225 28.1458ZM79.4182 35.3437L80.2865 36.2428L79.4182 35.3437ZM70.3907 47.3068L69.2869 46.72L70.3907 47.3068ZM65.6717 60.6772L64.4444 60.4403L65.6717 60.6772ZM65.0889 75.1337L63.8464 75.2708L65.0889 75.1337ZM70.8225 93.1776L71.9158 92.5716L70.8225 93.1776ZM78.3502 103.336L79.2494 102.468L78.3502 103.336ZM94.696 114.458L94.2205 115.614L94.696 114.458ZM117.545 117.871L117.429 116.626L117.545 117.871ZM136.857 113.205C137.461 112.87 137.679 112.11 137.345 111.506C137.011 110.902 136.25 110.683 135.646 111.017L136.857 113.205ZM140.55 111.128C143.69 109.107 146.476 106.592 148.303 104.545L146.437 102.881C144.749 104.772 142.133 107.136 139.197 109.025L140.55 111.128ZM151.174 101.231C152.665 99.4043 154.006 97.4935 155.196 95.5157L153.054 94.2269C151.925 96.1032 150.653 97.9162 149.237 99.6502L151.174 101.231ZM155.196 95.5157C157.814 91.1656 159.7 86.4926 160.852 81.6756L158.421 81.0939C157.327 85.6663 155.537 90.1003 153.054 94.2269L155.196 95.5157ZM160.852 81.6756C162.018 76.8042 162.434 71.7853 162.096 66.8032L159.602 66.9721C159.922 71.7035 159.528 76.4693 158.421 81.0939L160.852 81.6756ZM162.096 66.8032C161.802 62.4559 160.935 58.1359 159.492 53.966L157.129 54.7835C158.499 58.7418 159.323 62.8435 159.602 66.9721L162.096 66.8032ZM159.492 53.966C158.06 49.8289 156.062 45.8399 153.496 42.1193L151.438 43.5385C153.874 47.0705 155.77 50.8567 157.129 54.7835L159.492 53.966ZM153.496 42.1193C151.968 39.9022 150.237 37.781 148.306 35.7809L146.508 37.5176C148.344 39.4188 149.987 41.4338 151.438 43.5385L153.496 42.1193ZM148.306 35.7809C145.47 32.8443 142.358 30.3326 139.051 28.2481L137.718 30.3631C140.857 32.3414 143.812 34.7264 146.508 37.5176L148.306 35.7809ZM139.051 28.2481C135.497 26.0085 131.719 24.263 127.816 23.0134L127.054 25.3943C130.759 26.5806 134.345 28.2374 137.718 30.3631L139.051 28.2481ZM127.816 23.0134C122.928 21.4485 117.845 20.6615 112.761 20.6558L112.758 23.1558C117.586 23.1612 122.413 23.9087 127.054 25.3943L127.816 23.0134ZM112.761 20.6558C108.805 20.6513 104.848 21.1199 100.983 22.0634L101.575 24.4921C105.244 23.5965 109.001 23.1516 112.758 23.1558L112.761 20.6558ZM100.983 22.0634C96.6305 23.1257 92.3939 24.7901 88.4045 27.0593L89.6405 29.2324C93.425 27.0797 97.4447 25.5004 101.575 24.4921L100.983 22.0634ZM88.4045 27.0593C84.8975 29.0541 81.5828 31.5156 78.5499 34.4445L80.2865 36.2428C83.1677 33.4606 86.3139 31.1246 89.6405 29.2324L88.4045 27.0593ZM78.5499 34.4445C74.7383 38.1253 71.6491 42.2763 69.2869 46.72L71.4944 47.8935C73.735 43.6786 76.666 39.7391 80.2865 36.2428L78.5499 34.4445ZM69.2869 46.72C66.9744 51.0703 65.3595 55.6992 64.4444 60.4403L66.8991 60.9141C67.7679 56.4131 69.3006 52.0204 71.4944 47.8935L69.2869 46.72ZM64.4444 60.4403C63.5016 65.3247 63.3014 70.3287 63.8464 75.2708L66.3314 74.9967C65.8138 70.3033 66.004 65.5515 66.8991 60.9141L64.4444 60.4403ZM63.8464 75.2708C64.5529 81.6765 66.5116 87.9796 69.7293 93.7837L71.9158 92.5716C68.8619 87.063 67.0022 81.0797 66.3314 74.9967L63.8464 75.2708ZM69.7293 93.7837C71.7883 97.4977 74.362 101.006 77.4511 104.205L79.2494 102.468C76.3134 99.4278 73.8698 96.0962 71.9158 92.5716L69.7293 93.7837ZM77.4511 104.205C82.3555 109.283 88.0839 113.09 94.2205 115.614L95.1715 113.302C89.3481 110.907 83.9097 107.294 79.2494 102.468L77.4511 104.205ZM94.2205 115.614C101.682 118.683 109.744 119.855 117.661 119.115L117.429 116.626C109.91 117.328 102.254 116.215 95.1715 113.302L94.2205 115.614ZM117.661 119.115C124.307 118.495 130.853 116.528 136.857 113.205L135.646 111.017C129.951 114.17 123.739 116.037 117.429 116.626L117.661 119.115Z" fill="#1EC7A5"/>
<path d="M159.5 12.9575V18.9575" stroke="#1EC7A5" stroke-width="2.5" stroke-linecap="round" stroke-linejoin="round"/>
<path d="M159.5 26.9575V32.9575" stroke="#1EC7A5" stroke-width="2.5" stroke-linecap="round" stroke-linejoin="round"/>
<path d="M149.5 22.9575H155.5" stroke="#1EC7A5" stroke-width="2.5" stroke-linecap="round" stroke-linejoin="round"/>
<path d="M163.5 22.9575H169.5" stroke="#1EC7A5" stroke-width="2.5" stroke-linecap="round" stroke-linejoin="round"/>
<path d="M76.5 115.958V119.958" stroke="#1EC7A5" stroke-width="2.5" stroke-linecap="round" stroke-linejoin="round"/>
<path d="M76.5 127.958V131.958" stroke="#1EC7A5" stroke-width="2.5" stroke-linecap="round" stroke-linejoin="round"/>
<path d="M68.5 123.958H72.5" stroke="#1EC7A5" stroke-width="2.5" stroke-linecap="round" stroke-linejoin="round"/>
<path d="M80.5 123.958H84.5" stroke="#1EC7A5" stroke-width="2.5" stroke-linecap="round" stroke-linejoin="round"/>
<path fill-rule="evenodd" clip-rule="evenodd" d="M98.1824 30.6584C96.1436 31.4233 94.1521 32.3527 92.2281 33.4471C89.2384 35.1477 86.4118 37.2466 83.8243 39.7452C82.7637 40.7694 81.7688 41.8362 80.8397 42.9402M77.9648 46.7841C77.2261 47.9004 76.5462 49.0448 75.9253 50.2129C75.4667 51.0756 75.0403 51.9512 74.646 52.8378" fill="white"/>
<path d="M98.6215 31.8288C99.2679 31.5863 99.5953 30.8657 99.3528 30.2193C99.1103 29.573 98.3897 29.2456 97.7433 29.4881L98.6215 31.8288ZM92.2281 33.4471L92.8462 34.5336L92.2281 33.4471ZM83.8243 39.7452L82.956 38.846L83.8243 39.7452ZM79.8833 42.1353C79.4388 42.6635 79.5067 43.4521 80.0349 43.8966C80.5631 44.3411 81.3516 44.2732 81.7961 43.745L79.8833 42.1353ZM79.0073 47.4739C79.3882 46.8982 79.2304 46.1226 78.6547 45.7416C78.0789 45.3607 77.3034 45.5185 76.9224 46.0942L79.0073 47.4739ZM75.9253 50.2129L77.029 50.7996L75.9253 50.2129ZM73.5038 52.33C73.2234 52.9608 73.5074 53.6996 74.1382 53.98C74.769 54.2605 75.5077 53.9765 75.7882 53.3457L73.5038 52.33ZM97.7433 29.4881C95.6434 30.2759 93.592 31.2333 91.6101 32.3606L92.8462 34.5336C94.7122 33.4722 96.6439 32.5707 98.6215 31.8288L97.7433 29.4881ZM91.6101 32.3606C88.5302 34.1124 85.6193 36.2741 82.956 38.846L84.6927 40.6444C87.2042 38.219 89.9466 36.1829 92.8462 34.5336L91.6101 32.3606ZM82.956 38.846C81.8644 39.9002 80.8401 40.9984 79.8833 42.1353L81.7961 43.745C82.6976 42.6739 83.6631 41.6386 84.6927 40.6444L82.956 38.846ZM76.9224 46.0942C76.1615 47.2441 75.4611 48.423 74.8215 49.6262L77.029 50.7996C77.6313 49.6667 78.2907 48.5567 79.0073 47.4739L76.9224 46.0942ZM74.8215 49.6262C74.3492 50.5148 73.9099 51.4167 73.5038 52.33L75.7882 53.3457C76.1706 52.4856 76.5842 51.6364 77.029 50.7996L74.8215 49.6262Z" fill="#1EC7A5"/>
<path d="M93.9802 69.326C92.5239 68.0142 90.2649 68.1149 88.9346 69.551C87.6043 70.9871 87.7064 73.2147 89.1627 74.5265L105.971 89.6673C108.01 91.5038 111.172 91.3628 113.035 89.3523C113.113 89.267 113.113 89.2669 113.188 89.1792L137.175 60.731C138.436 59.2354 138.228 57.0149 136.712 55.7714C135.195 54.5279 132.943 54.7322 131.682 56.2278L109.131 82.9737L93.9802 69.326Z" fill="#C2F1E7" stroke="#1EC7A5" stroke-width="2.5"/>
</svg>
