<svg width="498" height="425" viewBox="0 0 498 425" fill="none" xmlns="http://www.w3.org/2000/svg">
<path opacity="0.3" d="M246.359 385.63C329.605 385.63 397.09 379.336 397.09 371.573C397.09 363.81 329.605 357.516 246.359 357.516C163.112 357.516 95.6267 363.81 95.6267 371.573C95.6267 379.336 163.112 385.63 246.359 385.63Z" fill="#212121"/>
<path d="M348.672 271.493C348.672 271.493 369.804 234.068 401.646 223.295C415.001 218.767 426.661 210.256 434.633 198.625C438.406 193.096 441.665 187.233 444.37 181.11" stroke="#535461" stroke-width="0.60747"/>
<path d="M464.357 174.193C460.728 177.709 443.84 181.348 443.84 181.348C443.84 181.348 447.988 164.585 451.611 161.063C455.237 157.544 461.03 157.631 464.55 161.256C468.07 164.882 467.983 170.674 464.357 174.193Z" fill="#22CCAC"/>
<path d="M454.805 204.536C449.847 205.516 433.695 199.393 433.695 199.393C433.695 199.393 446.287 187.571 451.24 186.586C454.48 185.869 457.854 186.961 460.059 189.44C462.264 191.919 462.955 195.397 461.864 198.53C460.774 201.663 458.073 203.961 454.805 204.536Z" fill="#22CCAC"/>
<path d="M420.002 237.368C415.234 235.715 404.375 222.279 404.375 222.279C404.375 222.279 421.215 218.423 425.988 220.075C429.153 221.086 431.521 223.733 432.176 226.989C432.831 230.246 431.669 233.602 429.141 235.757C426.613 237.913 423.115 238.529 420.002 237.368Z" fill="#22CCAC"/>
<path d="M388.106 256.281C383.121 255.46 370.153 244.041 370.153 244.041C370.153 244.041 386.098 237.4 391.083 238.215C394.308 238.747 397.004 240.959 398.156 244.017C399.308 247.075 398.741 250.515 396.668 253.042C394.595 255.568 391.331 256.797 388.106 256.265V256.281Z" fill="#22CCAC"/>
<path d="M419.61 186.311C419.61 191.364 428.753 206.019 428.753 206.019C428.753 206.019 437.907 191.369 437.912 186.316C437.793 181.349 433.731 177.384 428.761 177.384C423.791 177.384 419.729 181.349 419.61 186.316V186.311Z" fill="#22CCAC"/>
<path d="M382.57 208.889C384.08 213.709 397.186 224.959 397.186 224.959C397.186 224.959 401.54 208.243 400.03 203.423C398.521 198.597 393.384 195.908 388.556 197.417C383.729 198.927 381.039 204.063 382.549 208.889H382.57Z" fill="#22CCAC"/>
<path d="M349.578 235.79C350.251 240.8 361.275 254.099 361.275 254.099C361.275 254.099 368.389 238.364 367.716 233.353C367.044 228.345 362.438 224.831 357.429 225.504C352.42 226.177 348.905 230.782 349.578 235.79Z" fill="#6C63FF"/>
<path opacity="0.25" d="M464.357 174.193C460.728 177.709 443.84 181.348 443.84 181.348C443.84 181.348 447.988 164.585 451.611 161.063C455.238 157.544 461.031 157.631 464.55 161.256C468.07 164.882 467.983 170.674 464.357 174.193Z" fill="black"/>
<path opacity="0.25" d="M454.806 204.536C449.847 205.516 433.696 199.393 433.696 199.393C433.696 199.393 446.287 187.571 451.241 186.586C454.48 185.869 457.854 186.961 460.059 189.44C462.264 191.919 462.955 195.397 461.864 198.53C460.774 201.663 458.073 203.961 454.806 204.536Z" fill="black"/>
<path opacity="0.25" d="M420.002 237.368C415.234 235.715 404.375 222.279 404.375 222.279C404.375 222.279 421.215 218.423 425.988 220.075C429.153 221.086 431.521 223.733 432.176 226.989C432.831 230.246 431.669 233.602 429.141 235.757C426.613 237.913 423.115 238.529 420.002 237.368Z" fill="black"/>
<path opacity="0.25" d="M388.106 256.281C383.121 255.46 370.153 244.041 370.153 244.041C370.153 244.041 386.098 237.4 391.083 238.215C394.308 238.747 397.004 240.959 398.156 244.017C399.308 247.075 398.741 250.515 396.668 253.042C394.595 255.568 391.331 256.797 388.106 256.265V256.281Z" fill="black"/>
<path opacity="0.25" d="M419.61 186.311C419.61 191.364 428.753 206.019 428.753 206.019C428.753 206.019 437.907 191.369 437.912 186.316C437.793 181.349 433.731 177.384 428.761 177.384C423.791 177.384 419.729 181.349 419.61 186.316V186.311Z" fill="black"/>
<path opacity="0.25" d="M382.57 208.889C384.08 213.709 397.186 224.958 397.186 224.958C397.186 224.958 401.54 208.243 400.031 203.423C398.521 198.597 393.384 195.908 388.557 197.417C383.729 198.927 381.04 204.063 382.549 208.889H382.57Z" fill="black"/>
<path opacity="0.25" d="M349.578 235.79C350.251 240.8 361.275 254.099 361.275 254.099C361.275 254.099 368.389 238.364 367.716 233.353C367.044 228.345 362.438 224.831 357.429 225.504C352.42 226.177 348.905 230.782 349.578 235.79Z" fill="black"/>
<path d="M349.891 270.746C349.891 270.746 354.038 227.972 378.756 205.224C389.185 195.746 396.26 183.143 398.918 169.304C400.126 162.724 400.729 156.048 400.719 149.358" stroke="#535461" stroke-width="0.60747"/>
<path d="M416.214 134.936C414.323 139.623 400.359 149.766 400.359 149.766C400.359 149.766 397.35 132.759 399.241 128.051C401.272 123.598 406.449 121.532 410.988 123.363C415.528 125.194 417.821 130.273 416.193 134.888L416.214 134.936Z" fill="#24AD93"/>
<path d="M419.774 166.534C415.642 169.442 398.394 170.39 398.394 170.39C398.394 170.39 405.116 154.501 409.248 151.572C413.38 148.731 419.03 149.745 421.915 153.846C424.8 157.947 423.845 163.606 419.774 166.534Z" fill="#24AD93"/>
<path d="M401.281 210.642C396.248 211.066 380.88 203.18 380.88 203.18C380.88 203.18 394.712 192.836 399.75 192.412C403.007 192.139 406.162 193.624 408.028 196.307C409.893 198.991 410.185 202.465 408.793 205.422C407.402 208.379 404.538 210.369 401.281 210.642Z" fill="#24AD93"/>
<path d="M379.773 240.864C374.884 242.129 358.404 236.955 358.404 236.955C358.404 236.955 370.291 224.418 375.18 223.152C380.072 221.884 385.066 224.821 386.334 229.712C387.602 234.603 384.665 239.596 379.773 240.864Z" fill="#24AD93"/>
<path d="M380.208 164.119C382.258 168.737 396.555 178.419 396.555 178.419C396.555 178.419 398.987 161.323 396.942 156.704C394.894 152.084 389.488 149.998 384.867 152.046C380.246 154.094 378.16 159.499 380.208 164.119Z" fill="#24AD93"/>
<path d="M355.501 199.785C358.838 203.577 375.382 208.55 375.382 208.55C375.382 208.55 372.585 191.507 369.253 187.709C365.917 183.906 360.13 183.527 356.327 186.862C352.524 190.196 352.144 195.982 355.479 199.785H355.501Z" fill="#6C63FF"/>
<path d="M336.245 237.744C338.893 242.05 354.356 249.746 354.356 249.746C354.356 249.746 354.483 232.474 351.84 228.168C349.195 223.862 343.56 222.515 339.253 225.16C334.947 227.804 333.6 233.438 336.245 237.744Z" fill="#6C63FF"/>
<path d="M110.136 0V14.5015V373.639H378.926V14.5015V0H110.136Z" fill="#030303"/>
<rect x="112.494" y="3.27844" width="264.075" height="14.242" fill="#F6F7F9"/>
<g opacity="0.2">
<rect x="112.494" y="3.27844" width="264.075" height="14.242" fill="#199880"/>
</g>
<rect x="112.494" y="17.5204" width="264.075" height="352.84" fill="white"/>
<path d="M119.439 12.8119C120.773 12.8119 121.854 11.7306 121.854 10.3968C121.854 9.06293 120.773 7.98163 119.439 7.98163C118.104 7.98163 117.023 9.06293 117.023 10.3968C117.023 11.7306 118.104 12.8119 119.439 12.8119Z" fill="#F6F7F9"/>
<path d="M125.986 12.8119C127.32 12.8119 128.402 11.7306 128.402 10.3968C128.402 9.06293 127.32 7.98163 125.986 7.98163C124.652 7.98163 123.571 9.06293 123.571 10.3968C123.571 11.7306 124.652 12.8119 125.986 12.8119Z" fill="#F6F7F9"/>
<path d="M132.534 12.8119C133.868 12.8119 134.949 11.7306 134.949 10.3968C134.949 9.06293 133.868 7.98163 132.534 7.98163C131.199 7.98163 130.118 9.06293 130.118 10.3968C130.118 11.7306 131.199 12.8119 132.534 12.8119Z" fill="#F6F7F9"/>
<g opacity="0.2">
<rect x="159.625" y="39.2726" width="169.808" height="6.64696" fill="#13B58C"/>
</g>
<rect x="306.871" y="39.2726" width="22.5616" height="6.64696" fill="#13B58C"/>
<g opacity="0.2">
<rect x="135.288" y="175.109" width="106.859" height="76.5274" fill="#13B58C"/>
</g>
<g opacity="0.2">
<rect x="135.288" y="75.8389" width="106.859" height="76.5274" fill="#13B58C"/>
</g>
<g opacity="0.2">
<rect x="135.288" y="273.087" width="106.859" height="76.5274" fill="#13B58C"/>
</g>
<g opacity="0.2">
<rect x="246.915" y="175.109" width="106.859" height="76.5274" fill="#13B58C"/>
</g>
<g opacity="0.2">
<rect x="246.915" y="75.8389" width="106.859" height="76.5274" fill="#13B58C"/>
</g>
<g opacity="0.2">
<rect x="246.915" y="273.087" width="106.859" height="76.5274" fill="#13B58C"/>
</g>
<path d="M468.031 355.638C468.031 355.638 471.813 360.58 466.288 368.037C460.763 375.494 456.223 381.808 458.051 386.447C458.051 386.447 466.384 372.592 473.17 372.401C479.956 372.211 475.495 363.969 468.031 355.638Z" fill="#24AD93"/>
<path opacity="0.1" d="M468.031 355.638C468.361 356.114 468.622 356.635 468.805 357.185C475.426 364.96 478.949 372.216 472.587 372.401C466.664 372.571 459.55 383.163 457.85 385.838C457.906 386.045 457.973 386.248 458.051 386.447C458.051 386.447 466.384 372.592 473.17 372.401C479.956 372.211 475.495 363.969 468.031 355.638Z" fill="black"/>
<path d="M475.061 361.936C475.061 363.673 474.865 365.082 474.626 365.082C474.388 365.082 474.187 363.673 474.187 361.936C474.187 360.198 474.43 361.014 474.674 361.014C474.918 361.014 475.061 360.193 475.061 361.936Z" fill="#FFD037"/>
<path d="M477.471 364.012C475.946 364.843 474.611 365.347 474.499 365.135C474.388 364.923 475.527 364.075 477.053 363.244C478.578 362.412 477.98 363.021 478.112 363.244C478.245 363.466 478.997 363.196 477.471 364.012Z" fill="#FFD037"/>
<path d="M448.071 355.638C448.071 355.638 444.288 360.58 449.813 368.037C455.339 375.494 459.878 381.808 458.051 386.447C458.051 386.447 449.718 372.592 442.932 372.401C436.146 372.211 440.596 363.969 448.071 355.638Z" fill="#24AD93"/>
<path opacity="0.1" d="M448.071 355.638C447.74 356.114 447.48 356.635 447.297 357.185C440.675 364.96 437.153 372.216 443.515 372.401C449.443 372.571 456.552 383.163 458.252 385.838C458.199 386.045 458.131 386.249 458.051 386.447C458.051 386.447 449.718 372.592 442.932 372.401C436.146 372.211 440.596 363.969 448.071 355.638Z" fill="black"/>
<path d="M441.041 361.936C441.041 363.673 441.237 365.082 441.481 365.082C441.724 365.082 441.915 363.673 441.915 361.936C441.915 360.198 441.671 361.014 441.433 361.014C441.195 361.014 441.041 360.193 441.041 361.936Z" fill="#FFD037"/>
<path d="M438.631 364.012C440.162 364.843 441.491 365.347 441.608 365.135C441.724 364.923 440.575 364.075 439.049 363.244C437.524 362.412 438.122 363.021 437.99 363.244C437.857 363.466 437.105 363.196 438.631 364.012Z" fill="#FFD037"/>
<path opacity="0.3" d="M458.051 424.253C479.876 424.253 497.569 421.538 497.569 418.189C497.569 414.839 479.876 412.124 458.051 412.124C436.226 412.124 418.532 414.839 418.532 418.189C418.532 421.538 436.226 424.253 458.051 424.253Z" fill="#212121"/>
<path d="M478.393 379.79L478.202 381.331L477.937 383.513L477.826 384.419L477.561 386.601L477.445 387.512L477.18 389.689L474.155 414.476C473.885 416.69 470.272 418.411 465.907 418.411H450.195C445.83 418.411 442.249 416.69 441.952 414.476L438.922 389.678L438.657 387.501L438.546 386.59L438.276 384.408L438.165 383.502L437.9 381.32L437.709 379.779C437.561 378.556 439.537 377.496 441.984 377.496H474.123C476.587 377.496 478.547 378.556 478.393 379.79Z" fill="#65617D"/>
<path d="M478.202 381.331L477.937 383.508H438.165L437.9 381.331H478.202Z" fill="#9D9CB5"/>
<path d="M477.826 384.419L477.561 386.601H438.546L438.276 384.419H477.826Z" fill="#9D9CB5"/>
<path d="M477.445 387.506L477.18 389.689H438.922L438.657 387.506H477.445Z" fill="#9D9CB5"/>
<path d="M274.233 90.6264C274.233 90.6264 273.264 88.2059 279.801 88.8097C286.338 89.4135 305.107 91.5003 313.222 89.673C321.338 87.8458 326.174 87.2632 325.692 89.673C325.21 92.0829 311.649 97.5275 311.649 97.5275L294.088 99.3442L281.136 97.2839L274.18 93.1686L274.233 90.6264Z" fill="#F5A623"/>
<path opacity="0.1" d="M325.708 89.673C325.221 92.0829 311.665 97.5275 311.665 97.5275L294.104 99.3442L281.152 97.2892L274.202 93.1739L274.249 90.6317C274.111 90.2024 274.26 89.7326 274.62 89.4612C275.219 88.9315 276.617 88.5184 279.817 88.815C286.359 89.4188 305.122 91.5003 313.238 89.673C319.849 88.1847 324.288 87.5227 325.422 88.6137C325.707 88.8861 325.817 89.2942 325.708 89.673Z" fill="#F5A623"/>
<path d="M336.144 126.34C324.845 128.515 314.189 133.233 304.985 140.137C304.519 138.898 303.642 137.857 302.5 137.187C301.721 136.703 300.87 136.346 299.979 136.128C299.168 135.921 298.389 136.414 297.674 137.123C296.852 138.033 296.161 139.055 295.624 140.158C283.276 131.684 264.544 126.276 264.544 126.276V124.581C264.544 124.248 264.603 123.845 264.666 123.39C264.73 122.934 264.809 122.532 264.91 122.039C266.499 113.957 272.782 95.4884 272.782 95.4884H274.726H279.886L293.659 98.3485L309.154 97.4004L324.76 94.1538L326.783 93.73C330.158 96.3782 333.988 114.916 335.492 122.807C335.683 123.808 335.831 124.634 335.943 125.244C336.075 125.932 336.144 126.34 336.144 126.34Z" fill="#F5A623"/>
<path d="M267.109 122.839C267.516 115.08 273.683 98.2638 274.726 95.4726H272.782C272.782 95.4726 266.128 115.069 264.778 122.717C264.775 122.736 264.775 122.756 264.778 122.775C264.741 122.982 264.704 123.183 264.677 123.374C264.613 123.829 264.571 124.232 264.555 124.566V126.26C264.555 126.26 283.287 131.673 295.635 140.142C296.172 139.039 296.862 138.018 297.685 137.107C292.965 132.817 275.065 125.826 267.109 122.839Z" fill="#6C63FF"/>
<path d="M335.943 125.222C335.895 124.952 335.837 124.64 335.773 124.295C335.694 123.851 335.598 123.347 335.493 122.786C333.988 114.884 330.158 96.3412 326.784 93.7089L324.76 94.1326C325.989 97.4322 333.909 118.978 333.236 123.183C319.992 125.831 306.569 134.438 302.511 137.187C303.653 137.857 304.53 138.898 304.995 140.137C314.2 133.233 324.856 128.515 336.155 126.34C336.155 126.34 336.075 125.932 335.943 125.222Z" fill="#6C63FF"/>
<path opacity="0.1" d="M267.596 122.352C267.998 114.593 274.17 97.7765 275.213 94.9906H273.264C273.264 94.9906 266.611 114.587 265.26 122.23C265.26 122.23 265.26 122.272 265.26 122.288C265.221 122.5 265.189 122.701 265.164 122.892C265.101 123.347 265.058 123.75 265.042 124.084V125.778C265.042 125.778 283.769 131.186 296.122 139.66C296.655 138.556 297.344 137.534 298.167 136.625C293.447 132.346 275.552 125.339 267.596 122.352Z" fill="black"/>
<path d="M267.109 122.839C267.516 115.08 273.683 98.2638 274.726 95.4726H272.782C272.782 95.4726 266.128 115.069 264.778 122.717C264.775 122.736 264.775 122.756 264.778 122.775C264.741 122.982 264.704 123.183 264.677 123.374C264.613 123.829 264.571 124.232 264.555 124.566V126.26C264.555 126.26 283.287 131.673 295.635 140.142C296.172 139.039 296.862 138.018 297.685 137.107C292.965 132.817 275.065 125.826 267.109 122.839Z" fill="#E69B1F"/>
<path opacity="0.1" d="M335.461 124.735L335.291 123.808C335.206 123.363 335.116 122.865 335.01 122.299C333.511 114.402 329.676 95.8592 326.302 93.2216L324.283 93.6506C325.512 96.9503 333.432 118.496 332.759 122.701C319.516 125.349 306.087 133.956 302.034 136.7C303.176 137.371 304.053 138.415 304.519 139.655C313.72 132.747 324.374 128.027 335.673 125.853C335.673 125.853 335.593 125.455 335.461 124.735Z" fill="black"/>
<path d="M335.943 125.222C335.895 124.952 335.837 124.64 335.773 124.295C335.694 123.851 335.598 123.347 335.493 122.786C333.988 114.884 330.158 96.3412 326.784 93.7089L324.76 94.1326C325.989 97.4322 333.909 118.978 333.236 123.183C319.992 125.831 306.569 134.438 302.511 137.187C303.653 137.857 304.53 138.898 304.995 140.137C314.2 133.233 324.856 128.515 336.155 126.34C336.155 126.34 336.075 125.932 335.943 125.222Z" fill="#E69B1F"/>
<path opacity="0.1" d="M271.712 105.048C271.712 105.048 284.002 112.781 286.873 101.458L289.606 102.188C289.606 102.188 290.507 114.736 270.896 107.575L271.712 105.048Z" fill="black"/>
<path d="M271.712 104.079C271.712 104.079 284.002 111.812 286.873 100.488L289.606 101.219C289.606 101.219 290.507 113.766 270.896 106.606L271.712 104.079Z" fill="#E69B1F"/>
<path opacity="0.1" d="M310.383 101.823C310.383 101.823 311.972 111.076 328.812 106.59L328.219 104.842C328.219 104.842 316.718 109.609 312.549 101.33L310.383 101.823Z" fill="black"/>
<path d="M310.383 100.854C310.383 100.854 311.972 110.106 328.812 105.62L328.219 103.873C328.219 103.873 316.718 108.639 312.549 100.361L310.383 100.854Z" fill="#E69B1F"/>
<path opacity="0.1" d="M299.174 101.701V121.012H302.161C302.161 121.012 306.293 119.523 306.198 110.843C306.103 102.162 305.472 99.8262 305.472 99.8262L299.174 101.701Z" fill="black"/>
<path d="M298.691 101.219V120.53H301.679C301.679 120.53 305.811 119.041 305.716 110.361C305.62 101.68 304.985 99.3442 304.985 99.3442L298.691 101.219Z" fill="#E69B1F"/>
<path opacity="0.1" d="M326.768 94.6834C325.549 96.9503 314.488 100.674 312.534 101.314L312.237 101.41C312.237 101.41 311.538 101.59 310.367 101.834C306.807 102.575 298.872 103.952 292.886 102.745C292.017 102.575 291.116 102.39 290.2 102.215L288.081 101.754C281.194 100.223 274.069 98.2214 272.803 96.4577C272.803 96.4577 273.148 90.7005 274.308 90.8541C275.468 91.0077 288.42 96.4577 288.42 96.4577L288.605 96.4842C288.939 96.5266 289.697 96.6219 290.761 96.7437C294.967 97.2045 303.83 97.9354 308.598 96.659C308.825 96.5954 309.037 96.5319 309.244 96.4577C309.604 96.3359 309.98 96.2088 310.367 96.0658C316.501 93.8943 325.687 90.0067 325.687 90.0067C325.687 90.0067 328.113 92.1888 326.768 94.6834Z" fill="black"/>
<path opacity="0.1" d="M325.708 89.673C325.221 92.0829 311.665 97.5276 311.665 97.5276L294.104 99.3442L281.152 97.2892L274.202 93.1739L274.249 90.6317C274.111 90.2024 274.26 89.7326 274.62 89.4612C276.924 90.1603 288.393 94.9853 288.393 94.9853L288.579 95.0118C288.912 95.0542 289.67 95.1495 290.735 95.2713C294.941 95.7321 303.803 96.463 308.571 95.1866C308.799 95.123 309.011 95.0595 309.217 94.9853C309.578 94.8688 309.954 94.7364 310.34 94.5934C315.887 92.6284 323.933 89.2599 325.422 88.6349C325.699 88.9031 325.809 89.3007 325.708 89.673Z" fill="black"/>
<path d="M326.768 93.7089C325.549 95.9757 314.488 99.6938 312.534 100.335L312.237 100.435C312.237 100.435 311.538 100.61 310.367 100.854C306.807 101.595 298.872 102.972 292.886 101.765C292.017 101.595 291.116 101.41 290.2 101.235L288.081 100.774C281.194 99.2436 274.069 97.2415 272.803 95.4778C272.803 95.4778 273.148 89.7207 274.308 89.8796C275.468 90.0385 288.42 95.4778 288.42 95.4778L288.605 95.5043C288.939 95.5467 289.697 95.6473 290.761 95.7639C294.967 96.2246 303.83 96.9555 308.598 95.6791C308.825 95.6156 309.037 95.552 309.244 95.4778C309.604 95.3613 309.98 95.2289 310.367 95.0859C316.501 92.9144 325.687 89.0269 325.687 89.0269C325.687 89.0269 328.113 91.2249 326.768 93.7089Z" fill="#E69B1F"/>
<path opacity="0.1" d="M301.271 101.765C302.342 101.765 303.21 100.897 303.21 99.8262C303.21 98.7556 302.342 97.8877 301.271 97.8877C300.201 97.8877 299.333 98.7556 299.333 99.8262C299.333 100.897 300.201 101.765 301.271 101.765Z" fill="black"/>
<path d="M301.271 101.277C302.342 101.277 303.21 100.41 303.21 99.3389C303.21 98.2683 302.342 97.4005 301.271 97.4005C300.201 97.4005 299.333 98.2683 299.333 99.3389C299.333 100.41 300.201 101.277 301.271 101.277Z" fill="#F5A623"/>
<path opacity="0.1" d="M291.222 95.7427L290.692 101.209L288.573 100.748L289.103 95.4832C289.4 95.5361 290.163 95.6367 291.222 95.7427Z" fill="black"/>
<path d="M290.745 95.7427L290.216 101.209L288.097 100.748L288.626 95.4832C288.918 95.5361 289.686 95.6367 290.745 95.7427Z" fill="#E69B1F"/>
<path opacity="0.1" d="M312.062 100.335L311.765 100.435C311.765 100.435 311.072 100.61 309.896 100.854L308.089 95.6686C308.317 95.605 308.534 95.5415 308.741 95.4673C309.101 95.3508 309.477 95.2184 309.864 95.0754L312.062 100.335Z" fill="black"/>
<path d="M312.549 100.335L312.253 100.435C312.253 100.435 311.554 100.61 310.383 100.854L308.576 95.6686C308.804 95.605 309.016 95.5415 309.223 95.4673C309.583 95.3508 309.959 95.2184 310.346 95.0754L312.549 100.335Z" fill="#E69B1F"/>
<g opacity="0.858515">
<path d="M175.919 86.2092C178.398 86.2254 180.827 86.8999 182.959 88.1635C182.959 88.1635 189.412 88.9474 192.929 88.1635C196.446 87.3797 198.226 84.6467 198.894 85.4253C199.561 86.2039 199.577 93.5394 199.577 93.5394L196.547 101.653L189.703 106.733L178.854 103.608L175.262 94.4292L175.919 86.2092Z" fill="#E96D79"/>
<path opacity="0.1" d="M199.577 93.55L196.547 101.664L189.703 106.743L178.854 103.618L175.262 94.4292L175.946 86.2198H176.104C178.529 86.2814 180.898 86.9556 182.991 88.1794C182.991 88.1794 189.443 88.9633 192.961 88.1794C196.303 87.438 198.062 84.9275 198.788 85.3512C198.831 85.3711 198.869 85.4 198.899 85.4359C199.577 86.2092 199.577 93.55 199.577 93.55Z" fill="black"/>
<path opacity="0.1" d="M199.577 93.5499L196.547 101.664L189.703 106.743L178.854 103.618L175.262 94.4291L175.946 86.2198H176.104C176.708 88.8097 179.283 96.9873 187.483 97.5646C195.917 98.1525 198.311 88.1212 198.809 85.3564C198.852 85.3764 198.89 85.4053 198.92 85.4412C199.577 86.2092 199.577 93.5499 199.577 93.5499Z" fill="black"/>
<path d="M175.919 86.2092C175.919 86.2092 177.678 97.644 187.457 98.3273C197.236 99.0105 198.894 85.4253 198.894 85.4253C198.894 85.4253 213.07 90.0702 216.375 98.3538C219.681 106.637 222.144 113.284 222.144 113.284C222.144 113.284 221.085 115.138 219.893 115.334C218.701 115.53 210.606 121.102 210.606 121.102C210.606 121.102 210.511 136.938 211.39 137.912C212.27 138.887 211.978 143.092 209.335 142.896C206.692 142.7 188.416 138.596 172.783 142.017C172.783 142.017 166.236 144.363 166.426 140.55C166.617 136.737 166.914 121.785 166.914 121.785C166.914 121.785 157.039 117.484 156.457 117.484C155.874 117.484 154.401 116.711 155.964 114.163C157.527 111.616 159.487 102.925 159.487 102.925C159.487 102.925 163.407 90.4463 175.919 86.2092Z" fill="#FF748E"/>
<path opacity="0.1" d="M206.321 106.743C206.321 106.743 209.256 108.894 208.572 110.557C207.889 112.22 206.321 106.743 206.321 106.743Z" fill="black"/>
<path opacity="0.1" d="M210.622 108.809C210.349 109.762 210.349 110.774 210.622 111.727V108.809Z" fill="black"/>
<path opacity="0.1" d="M212.577 114.174C212.577 114.174 212.969 116.822 211.798 117.103L212.577 114.174Z" fill="black"/>
<path opacity="0.1" d="M172.693 106.06C172.693 106.06 167.221 110.827 169.075 112.707L172.693 106.06Z" fill="black"/>
<path opacity="0.1" d="M169.271 117.596C169.271 117.596 169.181 122.579 170.691 122.971L169.271 117.596Z" fill="black"/>
<path opacity="0.1" d="M185.01 134.306C185.01 134.306 188.718 131.769 189.703 131.864L185.01 134.306Z" fill="black"/>
<path opacity="0.1" d="M188.718 136.949C188.718 136.949 192.733 134.11 193.808 134.3L188.718 136.949Z" fill="black"/>
</g>
<g opacity="0.885021">
<path d="M275.913 182.418C275.913 182.418 307.898 183.933 323.801 183.001L323.451 187.195L295.312 190.903L286.984 188.339L275.913 182.418Z" fill="#6C63FF"/>
<path opacity="0.1" d="M323.822 183.001L323.473 187.195L295.338 190.903L287.005 188.339L275.913 182.418C275.913 182.418 276.569 182.455 277.74 182.503C284.68 182.805 309.668 183.779 323.388 183.032L323.822 183.001Z" fill="black"/>
<path d="M334.894 242.648C328.717 246.356 307.279 242.765 307.279 242.765L301.335 221.579L294.692 243.13C285.257 246.509 265.795 241.616 265.795 241.616L273.37 195.007L274.678 188.583L275.913 182.418L287.917 186.03C287.917 186.03 291.524 188.477 306.558 187.778C321.592 187.079 323.801 183.011 323.801 183.011C324.463 183.202 325.094 185.538 325.729 188.44C326.651 192.677 327.589 198.111 328.696 199.907C330.582 202.926 334.894 242.648 334.894 242.648Z" fill="#212121"/>
<path opacity="0.1" d="M325.751 188.895C312.348 196.252 300.81 196.051 300.81 196.051C297.955 196.4 274.678 189.044 274.678 189.044L275.913 182.884L287.917 186.496C287.917 186.496 291.524 188.943 306.558 188.244C321.592 187.545 323.801 183.477 323.801 183.477C324.485 183.663 325.115 185.993 325.751 188.895Z" fill="black"/>
<path opacity="0.1" d="M323.822 183.001L323.473 187.195L295.338 190.903L287.005 188.339L275.913 182.418C275.913 182.418 276.569 182.455 277.74 182.503L287.911 185.564C287.911 185.564 291.519 188.011 306.553 187.312C318.361 186.782 322.259 184.134 323.388 183.027L323.822 183.001Z" fill="black"/>
<path d="M325.751 188.429C312.348 195.786 300.81 195.585 300.81 195.585C297.955 195.934 274.678 188.578 274.678 188.578L275.913 182.418L287.917 186.03C287.917 186.03 291.524 188.477 306.558 187.778C321.592 187.079 323.801 183.011 323.801 183.011C324.485 183.191 325.115 185.527 325.751 188.429Z" fill="#6C63FF"/>
<path opacity="0.1" d="M303.083 194.473C303.759 194.473 304.307 193.925 304.307 193.249C304.307 192.573 303.759 192.026 303.083 192.026C302.407 192.026 301.859 192.573 301.859 193.249C301.859 193.925 302.407 194.473 303.083 194.473Z" fill="black"/>
<path fill-rule="evenodd" clip-rule="evenodd" d="M303.083 194.006C303.759 194.006 304.307 193.459 304.307 192.783C304.307 192.107 303.759 191.56 303.083 191.56C302.407 191.56 301.859 192.107 301.859 192.783C301.859 193.459 302.407 194.006 303.083 194.006Z" stroke="#6C63FF" stroke-width="0.561404"/>
<path opacity="0.1" d="M271.797 214.689C271.797 214.689 273.953 221.097 275.468 220.981C276.983 220.864 271.797 214.689 271.797 214.689Z" fill="black"/>
<path opacity="0.1" d="M270.398 220.981C270.398 220.981 271.738 224.826 273.137 225.467L270.398 220.981Z" fill="black"/>
<path opacity="0.1" d="M270.398 225.001C270.398 225.001 272.517 227.681 273.773 228.322L270.398 225.001Z" fill="black"/>
<path opacity="0.1" d="M327.297 200.77C327.297 200.77 329.279 203.741 327.297 204.382V200.77Z" fill="black"/>
<path opacity="0.1" d="M328.198 205.6C325.899 202.873 327.319 209.308 327.319 209.308C327.319 209.308 328.786 206.299 328.198 205.6Z" fill="black"/>
<path opacity="0.1" d="M329.358 208.921C329.358 208.921 325.862 214.106 326.561 214.689L329.358 208.921Z" fill="black"/>
<path opacity="0.1" d="M283.107 200.881C278.821 200.881 274.35 198.943 274.101 198.826L274.292 198.397C274.377 198.44 282.932 202.152 287.562 199.366C289.31 198.307 290.29 196.443 290.481 193.805L290.947 193.842C290.745 196.639 289.686 198.609 287.8 199.764C286.366 200.556 284.744 200.942 283.107 200.881Z" fill="black"/>
<path d="M283.107 200.415C278.821 200.415 274.35 198.477 274.101 198.36L274.292 197.936C274.377 197.973 282.932 201.686 287.562 198.9C289.31 197.841 290.29 195.977 290.481 193.339L290.947 193.376C290.745 196.173 289.686 198.143 287.8 199.298C286.366 200.09 284.744 200.476 283.107 200.415Z" fill="#6C63FF"/>
<path opacity="0.1" d="M318.292 201.231C317.194 201.246 316.107 201.013 315.113 200.547C311.638 198.874 311.077 194.774 311.05 194.6L311.516 194.541C311.516 194.584 312.073 198.572 315.32 200.129C318.212 201.522 322.318 200.659 327.504 197.481L327.742 197.878C324.05 200.113 320.888 201.231 318.292 201.231Z" fill="black"/>
<path d="M318.292 200.765C317.194 200.78 316.107 200.547 315.113 200.081C311.638 198.408 311.077 194.308 311.05 194.134L311.516 194.075C311.516 194.118 312.073 198.106 315.32 199.663C318.212 201.056 322.318 200.193 327.504 197.015L327.742 197.412C324.05 199.647 320.888 200.765 318.292 200.765Z" fill="#6C63FF"/>
</g>
<path d="M178.621 183.133C178.621 183.133 184.633 191.528 188.718 190.712C192.802 189.896 193.205 189.001 196.833 183.133L199.81 189.981L196.304 198.455L192.15 203.831L183.346 202.449L180.496 192.831L178.621 183.133Z" fill="#6C63FF"/>
<path opacity="0.1" d="M199.81 189.976L196.304 198.45L192.15 203.826L183.346 202.444L180.496 192.825L178.621 183.133C178.621 183.133 179.151 183.864 179.977 184.87C181.995 187.28 185.836 191.284 188.718 190.696C192.744 189.891 193.194 189.007 196.69 183.355L196.833 183.117L199.81 189.976Z" fill="black"/>
<path opacity="0.1" d="M199.81 189.976L196.304 198.45L192.15 203.826L183.346 202.444L180.496 192.825L178.621 183.133C178.621 183.133 179.151 183.864 179.977 184.87C181.291 189.107 184.114 195.903 188.718 195.844C193.914 195.786 196.012 187.179 196.69 183.371L196.833 183.133L199.81 189.976Z" fill="black"/>
<path d="M175.443 182.884C175.443 182.884 173.403 182.64 174.463 185.167C175.522 187.693 177.477 196.003 176.502 197.714C175.527 199.425 176.015 204.07 171.777 204.97L172.995 209.774C172.995 209.774 173.239 220.367 172.751 221.918C172.264 223.47 172.179 232.019 172.344 232.914C172.508 233.809 172.428 239.677 171.777 239.926C171.125 240.175 170.717 243.019 172.836 243.506C174.955 243.994 183.998 244.243 185.629 244.73C187.261 245.217 198.831 244.73 198.831 244.73C198.831 244.73 203.72 244.078 204.944 243.671C206.167 243.263 206.411 242.288 206.003 240.413C205.595 238.538 203.72 224.932 204.128 223.221C204.536 221.511 204.621 204.806 204.621 204.806C204.621 204.806 201.442 203.747 201.442 200.648C201.442 197.55 200.218 189.24 202.745 184.028C202.745 184.028 200.706 182.63 200.383 182.879C200.06 183.128 196.982 182.233 196.982 182.233C196.982 182.233 195.393 196.411 188.744 196.49C182.096 196.57 179.135 182.233 179.135 182.233C179.135 182.233 179.193 180.93 175.443 182.884Z" fill="#413E4D"/>
<path opacity="0.1" d="M185.057 228.354C185.057 228.354 186.429 231.696 188.718 232.183C191.006 232.67 185.057 228.354 185.057 228.354Z" fill="black"/>
<path opacity="0.1" d="M182.938 230.959C182.938 230.959 187.367 234.545 187.176 235.281L182.938 230.959Z" fill="black"/>
<path opacity="0.1" d="M174.054 209.774C174.054 209.774 177.561 212.136 177.561 213.847L174.054 209.774Z" fill="black"/>
<path opacity="0.1" d="M176.417 217.189C176.417 217.189 175.443 213.767 174.791 213.036L176.417 217.189Z" fill="black"/>
<path opacity="0.1" d="M174.791 218.492C174.791 218.492 176.258 221.426 176.417 222.241L174.791 218.492Z" fill="black"/>
<path opacity="0.1" d="M203.233 212.544C203.233 212.544 198.672 213.931 199.074 215.642L203.233 212.544Z" fill="black"/>
<path opacity="0.1" d="M199.053 228.354C199.053 228.354 205.028 221.426 203.233 221.59C201.437 221.754 199.053 228.354 199.053 228.354Z" fill="black"/>
<g opacity="0.1">
<path d="M201.437 200.648C201.437 199.218 201.177 196.676 201.146 193.842C201.114 197.094 201.437 200.103 201.437 201.707C201.437 204.737 204.472 205.812 204.615 205.86C204.615 205.198 204.615 204.8 204.615 204.8C204.615 204.8 201.437 203.747 201.437 200.648Z" fill="black"/>
<path d="M205.987 241.473C206.049 241.751 206.097 242.032 206.13 242.315C206.198 241.678 206.149 241.033 205.987 240.413C205.638 238.824 204.218 228.624 204.07 224.641C203.911 227.363 205.616 239.693 205.987 241.473Z" fill="black"/>
<path d="M172.269 230.906C172.269 227.999 172.434 223.989 172.751 222.962C173.011 222.136 173.064 218.757 173.059 215.769C173.059 218.449 172.979 221.172 172.751 221.903C172.391 223.057 172.253 228.025 172.269 230.906Z" fill="black"/>
<path d="M175.443 183.943C179.188 181.989 179.108 183.292 179.108 183.292C179.108 183.292 182.043 197.635 188.718 197.55C195.393 197.465 196.982 183.292 196.982 183.292C196.982 183.292 200.081 184.187 200.404 183.938C200.727 183.689 201.813 184.468 202.412 184.849C202.523 184.568 202.639 184.293 202.772 184.028C202.772 184.028 200.732 182.63 200.404 182.879C200.075 183.128 196.982 182.233 196.982 182.233C196.982 182.233 195.393 196.411 188.744 196.49C182.096 196.57 179.135 182.233 179.135 182.233C179.135 182.233 179.214 180.93 175.469 182.884C175.469 182.884 173.811 182.693 174.272 184.521C174.537 183.837 175.443 183.943 175.443 183.943Z" fill="black"/>
<path d="M171.771 240.985C172.301 240.789 172.444 237.161 172.412 235.159C172.386 237.172 172.2 239.762 171.771 239.926C171.342 240.09 171.136 240.985 171.3 241.849C171.385 241.393 171.554 241.06 171.771 240.985Z" fill="black"/>
<path d="M176.502 198.773C176.761 198.079 176.846 197.331 176.751 196.596C176.746 196.982 176.661 197.363 176.502 197.714C175.522 199.425 176.009 204.07 171.771 204.97L172.026 205.966C175.988 204.938 175.543 200.452 176.502 198.773Z" fill="black"/>
</g>
<path d="M200.044 282.514C198.041 286.158 177.715 282.514 177.715 282.514L177.768 282.149L178.171 279.326H199.588L199.996 282.144L200.044 282.514Z" fill="#6C63FF"/>
<path opacity="0.1" d="M200.044 282.514C198.041 286.158 177.715 282.514 177.715 282.514L177.768 282.149C178.743 282.149 193.448 281.799 200.017 282.149L200.044 282.514Z" fill="black"/>
<path d="M177.715 282.514C177.715 282.514 174.071 283.425 168.418 298.732C162.766 314.038 160.764 333.815 160.764 333.815C160.764 333.815 157.585 339.196 171.152 339.556C171.152 339.556 170.06 343.11 177.715 342.565C185.37 342.019 184.268 342.024 184.268 342.024C184.268 342.024 189.189 338.926 191.377 339.472C193.565 340.017 194.932 340.203 197.3 342.205C199.668 344.207 207.237 343.391 207.328 341.844C207.388 341.085 207.388 340.321 207.328 339.562C207.328 339.562 218.902 340.293 216.715 331.908C214.527 323.524 212.704 309.764 212.704 309.764C212.704 309.764 206.782 282.885 200.033 282.52C193.284 282.154 177.715 282.514 177.715 282.514Z" fill="#6C63FF"/>
<path opacity="0.1" d="M170.989 339.568L175.276 293.094L175.64 293.127L171.353 339.602L170.989 339.568Z" fill="black"/>
<path opacity="0.1" d="M184.073 341.992L184.261 293.059L184.626 293.06L184.439 341.993L184.073 341.992Z" fill="black"/>
<path opacity="0.1" d="M195.334 293.062L195.699 293.049L197.526 342.165L197.161 342.179L195.334 293.062Z" fill="black"/>
<path opacity="0.1" d="M207.153 339.562C206.517 311.57 201.749 292.408 201.691 292.238L202.046 292.148C202.094 292.339 206.888 311.538 207.518 339.578L207.153 339.562Z" fill="black"/>
<path opacity="0.1" d="M178.351 285.247C178.351 285.247 177.715 285.613 178.351 287.366V285.247Z" fill="black"/>
<path opacity="0.1" d="M180.178 285.247C180.178 285.247 178.446 286.338 180.178 288.166V285.247Z" fill="black"/>
<path opacity="0.1" d="M196.399 285.247C196.399 285.247 198.767 287.525 198.221 288.166L196.399 285.247Z" fill="black"/>
<path opacity="0.1" d="M198.306 284.702C198.306 284.702 198.677 287.435 200.043 288.165L198.306 284.702Z" fill="black"/>
<g opacity="0.88837">
<path d="M295.047 280.332C295.047 280.332 303.989 276.773 307.856 281.116C311.723 285.459 305.207 290.745 305.207 290.745L302.474 296.2L296.043 295.496L294.528 287.954L295.047 280.332Z" fill="#57CCB7"/>
<path opacity="0.1" d="M305.207 290.718L302.474 296.174L296.043 295.49L294.528 287.954L295.057 280.332L295.2 280.279C296.334 279.861 303.989 277.191 307.649 280.867C307.726 280.937 307.798 281.012 307.866 281.09C311.723 285.411 305.207 290.718 305.207 290.718Z" fill="black"/>
<path opacity="0.1" d="M305.207 290.718L302.474 296.174L296.043 295.491L294.528 287.954L295.057 280.332L295.2 280.279C296.308 286.344 299.263 288.902 299.761 289.283L299.836 289.336L301.653 289.188C305.186 287.239 307.051 282.604 307.649 280.851C307.726 280.921 307.798 280.996 307.866 281.074C311.723 285.411 305.207 290.718 305.207 290.718Z" fill="black"/>
<path d="M320.824 311.491C320.824 311.491 318.853 336.585 319.388 339.615C319.923 342.644 318.249 342.872 318.249 342.872C318.249 342.872 311.119 344.461 309.774 343.401C308.428 342.342 306.134 342.136 306.134 342.136C306.134 342.136 300.837 343.349 298.474 342.443C296.112 341.537 292.181 341.913 292.181 341.913C292.181 341.913 289.151 343.735 288.314 343.354C287.477 342.972 286.417 343.126 283.991 342.448C281.565 341.77 280.198 341.156 281.485 336.988C282.773 332.819 281.644 319.626 281.565 318.032C281.485 316.438 280.733 312.577 279.668 307.969C278.604 303.361 281.485 304.33 281.485 304.33C288.24 300.845 285.432 294.018 284.373 290.988C283.313 287.959 284.976 287.811 285.808 287.811C286.64 287.811 289.829 285.083 289.829 285.083L291.121 283.923L295.063 280.385C296.043 287.011 299.221 289.792 299.751 290.205L299.825 290.263L301.642 290.109C306.039 287.689 307.856 281.105 307.856 281.105C308.386 282.006 309.567 283.033 310.886 283.987C312.612 285.208 314.411 286.322 316.273 287.323C319.452 289.219 317.11 291.116 317.11 291.116C313.243 304.304 318.7 304.886 318.7 304.886C322.72 305.479 320.824 311.491 320.824 311.491Z" fill="#36C2A9"/>
<path opacity="0.1" d="M291.026 287.837C291.026 287.837 289.887 288.446 289.887 289.124L291.026 287.837Z" fill="black"/>
<path opacity="0.1" d="M291.709 289.124C291.709 289.124 290.194 290.713 290.459 291.174L291.709 289.124Z" fill="black"/>
<path opacity="0.1" d="M291.709 291.179C291.709 291.179 290.57 292.392 291.026 293.075L291.709 291.179Z" fill="black"/>
<path opacity="0.1" d="M299.295 291.116L294.528 295.718C294.353 290.602 291.879 286.508 290.661 284.781L294.602 281.243C295.566 287.922 298.771 290.703 299.295 291.116Z" fill="black"/>
<path d="M299.751 290.205L294.983 294.813C294.814 289.691 292.334 285.602 291.121 283.87L295.063 280.332C296.043 287.011 299.221 289.792 299.751 290.205Z" fill="#57CCB7"/>
<path opacity="0.1" d="M311.342 284.882C309.435 287.858 305.891 295.718 305.891 295.718L302.098 291.02C306.494 288.595 308.311 282.016 308.311 282.016C308.841 282.896 310.023 283.923 311.342 284.882Z" fill="black"/>
<path d="M310.875 283.971C308.974 286.953 305.424 294.813 305.424 294.813L301.642 290.12C306.039 287.699 307.856 281.116 307.856 281.116C308.386 281.99 309.567 283.017 310.875 283.971Z" fill="#57CCB7"/>
<path opacity="0.1" d="M308.089 332.565C308.089 332.565 307.278 339.45 306.812 339.842L308.089 332.565Z" fill="black"/>
<path opacity="0.1" d="M314.758 333.778C314.758 333.778 315.669 338.704 315.288 339.842L314.758 333.778Z" fill="black"/>
<path opacity="0.1" d="M295.349 334.08C295.349 334.08 294.517 338.704 295.349 339.233V334.08Z" fill="black"/>
<path opacity="0.1" d="M290.428 333.397C290.428 333.397 289.739 338.857 289.898 339.842L290.428 333.397Z" fill="black"/>
<path opacity="0.1" d="M315.897 306.788C315.897 306.788 313.778 308.456 313.927 308.906L315.897 306.788Z" fill="black"/>
<path opacity="0.1" d="M317.412 307.852C317.412 307.852 313.355 311.263 315.384 310.882C317.412 310.5 317.412 307.852 317.412 307.852Z" fill="black"/>
</g>
<path fill-rule="evenodd" clip-rule="evenodd" d="M352.188 157.824C355.606 156.401 357.829 153.059 357.821 149.358C357.809 144.315 353.717 140.232 348.672 140.232C344.97 140.232 341.633 142.463 340.218 145.884C338.803 149.304 339.59 153.24 342.211 155.854C344.832 158.469 348.77 159.246 352.188 157.824ZM354.404 147.414L347.613 154.199V154.209C347.503 154.321 347.353 154.384 347.197 154.384C347.041 154.384 346.891 154.321 346.781 154.209L342.946 150.375C342.834 150.265 342.771 150.115 342.771 149.959C342.771 149.803 342.834 149.653 342.946 149.543L343.777 148.707C344.01 148.479 344.382 148.479 344.614 148.707L347.2 151.281L352.735 145.746C352.845 145.634 352.995 145.571 353.151 145.571C353.308 145.571 353.457 145.634 353.567 145.746L354.404 146.583C354.631 146.813 354.631 147.183 354.404 147.414Z" fill="#3ACC6C"/>
<path fill-rule="evenodd" clip-rule="evenodd" d="M237.846 258.892C242.898 258.892 246.994 254.797 246.994 249.746C246.994 244.694 242.898 240.599 237.846 240.599C232.793 240.599 228.697 244.694 228.697 249.746C228.697 254.797 232.793 258.892 237.846 258.892ZM243.599 247.802L236.786 254.587C236.676 254.698 236.525 254.761 236.368 254.761C236.21 254.761 236.06 254.698 235.949 254.587L232.114 250.752C231.886 250.519 231.886 250.148 232.114 249.915L232.951 249.084C233.06 248.972 233.21 248.909 233.367 248.909C233.523 248.909 233.673 248.972 233.782 249.084L236.368 251.668L241.903 246.16C242.014 246.048 242.165 245.985 242.322 245.985C242.479 245.985 242.63 246.048 242.74 246.16L243.599 246.965C243.71 247.075 243.773 247.226 243.773 247.383C243.773 247.541 243.71 247.691 243.599 247.802Z" fill="#3ACC6C"/>
<path fill-rule="evenodd" clip-rule="evenodd" d="M237.846 358.814C242.898 358.814 246.994 354.719 246.994 349.667C246.994 344.615 242.898 340.52 237.846 340.52C232.793 340.52 228.697 344.615 228.697 349.667C228.697 354.719 232.793 358.814 237.846 358.814ZM243.599 347.723L236.786 354.508H236.813C236.702 354.62 236.551 354.683 236.394 354.683C236.237 354.683 236.086 354.62 235.976 354.508L232.14 350.673C231.913 350.441 231.913 350.069 232.14 349.837L232.977 349.005C233.087 348.893 233.237 348.831 233.393 348.831C233.55 348.831 233.699 348.893 233.809 349.005L236.394 351.59L241.93 346.055C242.04 345.943 242.191 345.88 242.348 345.88C242.506 345.88 242.656 345.943 242.767 346.055L243.599 346.887C243.711 346.997 243.774 347.148 243.774 347.305C243.774 347.462 243.711 347.613 243.599 347.723Z" fill="#3ACC6C"/>
<path opacity="0.3" d="M71.9067 414.987C111.62 414.987 143.813 408.694 143.813 400.931C143.813 393.168 111.62 386.874 71.9067 386.874C32.1937 386.874 0 393.168 0 400.931C0 408.694 32.1937 414.987 71.9067 414.987Z" fill="#212121"/>
<path d="M131.788 210.145L131.815 210.107L131.767 210.07L131.481 209.88L131.539 209.922C131.114 209.676 130.572 209.796 130.289 210.198L130.173 210.362L123.736 219.62L122.613 221.267C119.218 220.245 113.703 224.545 110.911 227.014C110.737 227.167 110.572 227.31 110.424 227.448C110.202 226.95 110.069 226.632 110.069 226.632C109.931 228.147 104.581 230.419 103.331 231.245C102.763 231.588 102.126 231.802 101.466 231.87C101.646 226.113 97.1912 220.054 97.1912 220.054L86.3051 206.204C85.9046 203.699 86.2934 201.132 87.4175 198.858C87.5076 198.678 87.5976 198.498 87.6983 198.328H87.7513C87.3394 199.492 87.1089 200.712 87.0679 201.946C87.0944 202.883 87.9632 207.428 89.1869 207.242C89.4342 207.267 89.6751 207.153 89.8119 206.946C90.7867 205.812 90.8714 203.884 90.8237 202.099C90.8069 202.624 90.7484 203.146 90.6489 203.662C90.7284 202.179 90.5589 200.611 90.5589 199.494C90.5589 199.049 90.5589 198.609 90.5907 198.164H90.7231C90.7231 198.334 90.7231 198.514 90.7231 198.694C90.7231 198.508 90.7231 198.328 90.7231 198.164H90.8608C93.3026 197.717 95.5905 196.657 97.509 195.082C98.4659 195.043 99.367 194.621 100.009 193.911C100.245 194.698 100.068 195.551 99.5379 196.178C100.995 196.109 102.229 194.976 102.791 193.646C103.272 192.289 103.414 190.834 103.204 189.409C102.994 187.983 102.89 186.544 102.891 185.103C102.992 184.325 103.034 183.541 103.018 182.757C102.995 182.517 102.952 182.28 102.891 182.047H102.934C103.215 182.053 103.488 181.946 103.691 181.751C104.295 181.285 104.491 180.374 104.645 179.674C105.063 178.065 105.252 176.405 105.206 174.744C105.174 175.247 105.111 175.755 105.037 176.258C105.169 174.352 104.904 172.498 103.643 171.116C102.775 170.167 101.562 169.611 100.396 169.055C99.9794 168.906 99.6124 168.644 99.3366 168.298C99.1307 167.89 99.0184 167.441 99.0082 166.984C98.6003 164.198 95.9781 162.26 93.3665 161.158C90.0079 159.697 85.9501 159.072 82.7452 160.809C81.156 161.651 79.9376 162.97 78.5073 164.045C76.7168 165.406 74.6508 166.359 72.7385 167.546C70.8261 168.732 69.0303 170.236 68.0927 172.281C66.6889 175.459 67.743 179.06 67.9178 182.508C68.1986 187.937 65.9631 193.63 61.5345 196.808C61.0037 197.134 60.5296 197.543 60.1307 198.021C59.732 198.517 59.6855 199.209 60.0141 199.753C60.2419 200.05 60.6021 200.219 60.8511 200.5C61.3544 201.072 61.2537 201.946 61.0577 202.677C60.4145 205.068 59.1327 207.239 57.3496 208.958C57.429 209.52 58.123 209.742 58.6898 209.827C60.1894 210.047 61.7033 210.157 63.2191 210.155H63.8706C63.8018 210.33 63.7276 210.515 63.6534 210.711C62.8324 212.872 61.7676 216.198 62.1225 218.232C62.6522 221.442 64.3474 236.118 63.5104 238.692C62.6734 241.266 64.856 259.931 64.856 259.931C64.856 259.931 65.1473 261.371 65.6506 263.521C64.3421 266.604 62.8482 270.025 62.1013 271.397C60.5969 274.146 61.3385 288.181 66.5246 294.421C66.5246 294.421 68.6436 297.45 68.1138 298.546C67.5841 299.643 68.2092 301.576 68.2092 301.576L69.0303 319.737C69.0127 321.593 68.8854 323.447 68.6489 325.288C66.4346 328.026 63.0231 332.02 61.4179 332.671C58.9335 333.683 40.4032 356.155 40.4032 356.155C40.4032 356.155 40.5515 356.425 40.8429 356.865L40.3132 357.469L36.7586 361.589L36.4778 361.912C35.8104 361.785 31.3659 360.98 27.8431 360.726H27.4935V360.662C26.2589 360.521 25.0104 360.555 23.7853 360.763C23.5536 360.806 23.3397 360.917 23.1708 361.081C21.9683 362.553 21.322 385.667 21.322 385.667C21.322 385.667 22.604 397.239 26.6194 397.885C26.8241 397.957 27.0385 397.996 27.2551 398.002H27.4299C30.2905 397.79 31.6042 396.153 32.1976 395.031C32.3731 394.695 32.5065 394.339 32.5949 393.971C32.5949 393.971 32.1287 391.911 33.3789 389.067C34.6291 386.223 36.9652 381.218 36.9652 381.218C36.9652 381.218 41.2031 376.763 40.4456 374.602C40.5621 374.428 40.6999 374.237 40.8482 374.02C42.4374 371.753 45.6582 367.278 48.2645 364.29C48.4341 364.089 48.6036 363.904 48.7943 363.718C49.7424 364.119 50.7346 364.405 51.7502 364.571C51.7502 364.571 55.7338 363.014 57.2118 359.529C57.8422 358.046 60.3161 355.419 62.9489 352.893L62.8641 353.565L62.7741 375.672C63.6302 376.26 64.5423 376.762 65.4969 377.171V377.701C65.5156 380.851 65.3245 383.999 64.9248 387.123L64.8454 387.616C64.5169 387.383 64.2309 387.303 64.0507 387.483C63.235 388.31 62.7264 393.585 62.6787 396.016C62.6787 396.095 62.6787 396.175 62.6787 396.259C62.5463 398.685 61.1637 402.213 65.3274 402.393C68.4423 402.525 81.8712 402.726 89.0544 402.832C92.9245 402.905 96.6894 401.571 99.6492 399.077C101.932 397.123 103.315 394.798 100.205 393.087C100.015 392.981 99.8134 392.88 99.5909 392.78L92.7043 391.72L80.9388 385.714C80.9388 385.714 80.87 382.081 79.4556 382.685C79.0354 382.776 78.6328 382.936 78.2636 383.156C78.1948 383.024 78.1206 382.881 78.0517 382.732C77.0935 380.834 76.5962 378.736 76.6003 376.61C76.6003 376.419 76.6003 376.223 76.6267 376.027C76.9713 375.713 77.2968 375.379 77.6015 375.026C77.6015 375.026 77.5114 366.769 78.4385 365.212C79.3655 363.655 82.2367 347.872 82.2367 347.872C82.2367 347.872 82.3267 344.937 84.1808 343.195C86.0349 341.452 85.3833 336.405 85.3833 336.405C85.3833 336.405 87.979 335.028 88.8107 330.537C89.6424 326.045 92.3335 316.236 92.3335 316.236C92.3335 316.236 97.8905 301.74 97.5249 292.572C97.1594 283.404 98.0547 278.627 98.0547 278.627L99.2095 257.314V256.986C99.6704 257.335 99.9829 257.621 99.9829 257.621C99.9829 257.621 99.9829 257.537 99.9829 257.388C100.152 257.531 100.248 257.621 100.248 257.621C100.248 257.621 100.841 247.95 100.64 244.116C103.882 243.014 108.819 241.203 109.116 240.281C109.529 238.909 115.091 234.571 115.091 234.571C114.971 234.552 114.856 234.509 114.752 234.444C114.927 234.365 115.107 234.27 115.282 234.169C118.926 232.22 125.696 226.521 124.558 223.047L131.974 212.406C132.453 211.703 132.375 210.761 131.788 210.145Z" fill="url(#paint0_linear)"/>
<path d="M114.535 235.843C113.994 236.182 113.39 236.411 112.76 236.515C110.445 236.584 108.522 230.318 108.522 230.318C108.522 230.318 109.179 229.651 110.228 228.73C113.332 225.97 119.843 220.875 122.894 223.724C126.337 226.908 118.545 233.687 114.535 235.843Z" fill="#FFD4D6"/>
<path d="M79.3442 385.269L70.7995 394.49C70.7995 394.49 62.8958 394.58 64.4426 390.221C64.7516 389.277 64.9715 388.305 65.0995 387.319C65.4888 384.224 65.6747 381.106 65.6557 377.987C65.6557 375.942 65.6239 374.507 65.6239 374.507C65.6239 374.507 78.0675 369.057 76.7961 374.735C76.6379 375.445 76.5527 376.169 76.5418 376.896C76.5368 379 77.023 381.077 77.9615 382.96C78.3456 383.773 78.8087 384.547 79.3442 385.269Z" fill="#FFD4D6"/>
<path opacity="0.1" d="M79.3442 385.269L70.7995 394.49C70.7995 394.49 62.8958 394.58 64.4426 390.222C64.7516 389.277 64.9715 388.305 65.0995 387.319C66.2278 388.193 67.8488 390.767 67.8488 390.767C67.8488 390.767 73.2998 392.356 74.799 387.589C75.636 384.941 76.9603 383.601 77.9774 382.96C78.3565 383.773 78.8142 384.546 79.3442 385.269Z" fill="black"/>
<path d="M99.1671 399.157C96.2701 401.624 92.5681 402.943 88.763 402.864C81.7175 402.763 68.5535 402.557 65.4969 402.43C61.4073 402.25 62.7635 398.759 62.8959 396.355C62.8959 396.27 62.8959 396.196 62.8959 396.116C62.9436 393.707 63.4256 388.484 64.2414 387.669C65.0572 386.853 67.8489 391.302 67.8489 391.302C67.8489 391.302 73.3 392.891 74.7991 388.124C76.2983 383.357 79.3443 382.897 79.3443 382.897C80.7269 382.298 80.7958 385.894 80.7958 385.894L92.3335 391.842L99.1035 392.902C99.3207 393.002 99.5167 393.103 99.7021 393.203C102.764 394.919 101.408 397.218 99.1671 399.157Z" fill="#C17174"/>
<path opacity="0.25" d="M77.8505 389.989C78.1255 389.989 78.3484 389.766 78.3484 389.491C78.3484 389.216 78.1255 388.993 77.8505 388.993C77.5755 388.993 77.3525 389.216 77.3525 389.491C77.3525 389.766 77.5755 389.989 77.8505 389.989Z" fill="white"/>
<path opacity="0.25" d="M82.5334 392.308C82.8084 392.308 83.0313 392.085 83.0313 391.81C83.0313 391.536 82.8084 391.313 82.5334 391.313C82.2583 391.313 82.0354 391.536 82.0354 391.81C82.0354 392.085 82.2583 392.308 82.5334 392.308Z" fill="white"/>
<path opacity="0.25" d="M84.9384 393.383C85.2134 393.383 85.4363 393.161 85.4363 392.886C85.4363 392.611 85.2134 392.388 84.9384 392.388C84.6634 392.388 84.4404 392.611 84.4404 392.886C84.4404 393.161 84.6634 393.383 84.9384 393.383Z" fill="white"/>
<path opacity="0.25" d="M89.9337 395.301C90.2088 395.301 90.4317 395.078 90.4317 394.803C90.4317 394.528 90.2088 394.305 89.9337 394.305C89.6587 394.305 89.4358 394.528 89.4358 394.803C89.4358 395.078 89.6587 395.301 89.9337 395.301Z" fill="white"/>
<path opacity="0.25" d="M87.391 394.485C87.666 394.485 87.889 394.262 87.889 393.987C87.889 393.712 87.666 393.489 87.391 393.489C87.116 393.489 86.8931 393.712 86.8931 393.987C86.8931 394.262 87.116 394.485 87.391 394.485Z" fill="white"/>
<path d="M99.1671 399.156C96.2701 401.624 92.5681 402.943 88.763 402.864C81.7175 402.763 68.5535 402.557 65.4969 402.43C61.4073 402.25 62.7635 398.759 62.8959 396.355L88.5723 397.944C88.5723 397.944 99.0876 396.355 99.6968 393.219C102.764 394.919 101.408 397.218 99.1671 399.156Z" fill="#C17174"/>
<path opacity="0.25" d="M99.1671 399.156C96.2701 401.624 92.5681 402.943 88.763 402.864C81.7175 402.763 68.5535 402.557 65.4969 402.43C61.4073 402.25 62.7635 398.759 62.8959 396.355L88.5723 397.944C88.5723 397.944 99.0876 396.355 99.6968 393.219C102.764 394.919 101.408 397.218 99.1671 399.156Z" fill="white"/>
<path d="M51.3688 362.108C50.4241 362.879 49.5613 363.745 48.7943 364.693C46.2463 367.648 43.0943 372.108 41.5316 374.322C40.9277 375.19 40.5622 375.736 40.5622 375.736L37.1507 375.233C37.1507 375.233 33.4743 369.603 33.5219 369.47C33.5696 369.338 36.4355 363.289 36.4355 363.289L37.5427 361.992L41.0336 357.914L42.6229 356.07C42.6229 356.07 54.4466 359.884 51.3688 362.108Z" fill="#FFD4D6"/>
<path opacity="0.1" d="M41.5316 374.332C40.9277 375.201 40.5622 375.747 40.5622 375.747L37.1507 375.243C37.1507 375.243 33.4743 369.613 33.5219 369.481C33.5696 369.348 36.4355 363.289 36.4355 363.289L37.5427 361.992L37.9029 362.061H38.7717C35.7257 365.239 38.9941 372.23 38.9941 372.23C38.9941 372.23 40.4033 372.362 41.5316 374.332Z" fill="black"/>
<path d="M37.7228 381.451C37.7228 381.451 35.4502 386.355 34.2212 389.173C32.9922 391.991 33.4478 394.03 33.4478 394.03C33.3613 394.397 33.2315 394.752 33.0611 395.089C32.1735 396.854 30.3853 397.986 28.41 398.034H28.1875C24.045 397.928 22.7312 385.905 22.7312 385.905C22.7312 385.905 23.3669 363.019 24.5482 361.542C24.7107 361.377 24.9195 361.266 25.1468 361.224C26.3523 361.015 27.5816 360.981 28.7967 361.123C32.542 361.393 37.3573 362.315 37.3573 362.315H38.2208C35.1748 365.493 38.4433 372.489 38.4433 372.489C38.4433 372.489 39.9 372.622 41.0337 374.666C42.1673 376.71 37.7228 381.451 37.7228 381.451Z" fill="#C17174"/>
<path opacity="0.25" d="M32.7221 375.137C32.9971 375.137 33.22 374.915 33.22 374.64C33.22 374.365 32.9971 374.142 32.7221 374.142C32.4471 374.142 32.2241 374.365 32.2241 374.64C32.2241 374.915 32.4471 375.137 32.7221 375.137Z" fill="white"/>
<path opacity="0.25" d="M32.4731 379.104C32.7481 379.104 32.971 378.882 32.971 378.607C32.971 378.332 32.7481 378.109 32.4731 378.109C32.198 378.109 31.9751 378.332 31.9751 378.607C31.9751 378.882 32.198 379.104 32.4731 379.104Z" fill="white"/>
<path d="M32.7274 394.988C31.8398 396.753 30.0515 397.885 28.0763 397.933H27.8591C23.7165 397.827 22.3975 385.804 22.3975 385.804C22.3975 385.804 23.0331 362.919 24.2145 361.441C24.3769 361.277 24.5858 361.166 24.8131 361.123C26.0185 360.914 27.2478 360.88 28.463 361.023C28.3941 365.138 28.1981 378.141 28.463 379.433C28.7278 380.725 31.0746 391.54 32.7274 394.988Z" fill="#C17174"/>
<path opacity="0.25" d="M32.7274 394.988C31.8398 396.753 30.0515 397.885 28.0763 397.933H27.8591C23.7165 397.827 22.3975 385.804 22.3975 385.804C22.3975 385.804 23.0331 362.919 24.2145 361.441C24.3769 361.277 24.5858 361.166 24.8131 361.123C26.0185 360.914 27.2478 360.88 28.463 361.023C28.3941 365.138 28.1981 378.141 28.463 379.433C28.7278 380.725 31.0746 391.54 32.7274 394.988Z" fill="white"/>
<path d="M27.8537 397.944C23.7111 397.838 22.3921 385.815 22.3921 385.815C22.3921 385.815 23.0278 362.929 24.2091 361.452C24.3715 361.287 24.5804 361.176 24.8077 361.134C25.6765 362.426 26.4393 365.286 25.7506 371.578C24.4581 383.5 26.0155 384.252 26.0155 384.252C26.0155 384.252 27.9596 394.384 27.8537 397.944Z" fill="#C17174"/>
<path opacity="0.1" d="M27.8537 397.944C23.7111 397.838 22.3921 385.815 22.3921 385.815C22.3921 385.815 23.0278 362.929 24.2091 361.452C24.3715 361.287 24.5804 361.176 24.8077 361.134C25.6765 362.426 26.4393 365.286 25.7506 371.578C24.4581 383.5 26.0155 384.252 26.0155 384.252C26.0155 384.252 27.9596 394.384 27.8537 397.944Z" fill="black"/>
<path opacity="0.1" d="M114.535 235.843C113.994 236.182 113.39 236.411 112.76 236.515C110.445 236.584 108.522 230.318 108.522 230.318C108.522 230.318 109.179 229.651 110.228 228.73C110.986 230.424 113.073 234.995 114.535 235.843Z" fill="black"/>
<path d="M99.6808 233.586C99.6808 233.586 101.588 233.724 102.812 232.908C104.035 232.093 109.285 229.842 109.423 228.343C109.423 228.343 112.553 235.97 114.328 236.245C114.328 236.245 108.877 240.535 108.469 241.896C108.061 243.258 97.4294 246.6 97.4294 246.6L99.6808 233.586Z" fill="#FF748E"/>
<path opacity="0.1" d="M99.6808 233.586C99.6808 233.586 101.588 233.724 102.812 232.908C104.035 232.093 109.285 229.842 109.423 228.343C109.423 228.343 112.553 235.97 114.328 236.245C114.328 236.245 108.877 240.535 108.469 241.896C108.061 243.258 97.4294 246.6 97.4294 246.6L99.6808 233.586Z" fill="black"/>
<path opacity="0.1" d="M51.3688 362.108C50.424 362.879 49.5613 363.745 48.7943 364.693C44.6835 362.972 42.0348 359.455 41.0283 357.914L42.6175 356.07C42.6175 356.07 54.4466 359.884 51.3688 362.108Z" fill="black"/>
<path d="M70.8101 323.487C70.8101 323.487 64.146 332.39 61.7092 333.391C59.2724 334.392 41.1077 356.642 41.1077 356.642C41.1077 356.642 45.0118 363.819 52.1898 364.995C52.1898 364.995 56.094 363.454 57.5508 360C59.0075 356.547 70.4499 346.791 70.4499 346.791L70.8101 323.487Z" fill="#5E5A6B"/>
<path opacity="0.1" d="M70.8101 323.487C70.8101 323.487 64.146 332.39 61.7092 333.391C59.2724 334.392 41.1077 356.642 41.1077 356.642C41.1077 356.642 45.0118 363.819 52.1898 364.995C52.1898 364.995 56.094 363.454 57.5508 360C59.0075 356.547 70.4499 346.791 70.4499 346.791L70.8101 323.487Z" fill="black"/>
<path opacity="0.1" d="M50.6218 353.279C52.6381 353.491 54.671 353.491 56.6873 353.279C60.2737 352.935 57.572 355.117 50.6218 353.279Z" fill="black"/>
<path opacity="0.1" d="M48.9849 355.594C48.9849 355.594 53.7525 358.316 55.596 356.955C57.4395 355.594 53.8214 358.268 48.9849 355.594Z" fill="black"/>
<path opacity="0.1" d="M76.8067 374.735C76.6485 375.445 76.5633 376.169 76.5524 376.896C72.8708 380.238 68.4368 379.205 65.6663 377.987C65.6663 375.942 65.6345 374.507 65.6345 374.507C65.6345 374.507 78.0781 369.036 76.8067 374.735Z" fill="black"/>
<path d="M98.8811 256.25L98.7487 258.76L97.615 279.866C97.615 279.866 96.7039 284.591 97.0853 293.669C97.4667 302.747 91.9786 317.131 91.9786 317.131C91.9786 317.131 89.3299 326.85 88.5247 331.299C87.7195 335.748 85.1662 337.125 85.1662 337.125C85.1662 337.125 85.8019 342.12 83.9849 343.846C82.1679 345.573 82.0778 348.475 82.0778 348.475C82.0778 348.475 79.2596 364.1 78.3696 365.646C77.4797 367.193 77.5485 375.365 77.5485 375.365C71.6472 382.356 63.0178 376.001 63.0178 376.001L63.1079 354.111C63.1079 354.111 65.5605 333.948 67.3775 331.13C69.1946 328.312 69.1946 320.595 69.1946 320.595L68.3841 302.588C68.3841 302.588 67.7378 300.681 68.294 299.59C68.8502 298.499 66.7419 295.506 66.7419 295.506C61.6511 289.325 60.9147 275.428 62.4033 272.732C63.8919 270.036 68.294 259.11 68.294 259.11L74.3701 255.566L85.3516 255.889L98.8811 256.25Z" fill="#5E5A6B"/>
<path opacity="0.1" d="M73.0403 363.289C73.0403 363.289 74.4759 368.263 75.6307 368.808C76.7855 369.354 73.0403 363.289 73.0403 363.289Z" fill="black"/>
<path opacity="0.1" d="M75.0164 346.738C75.0164 346.738 78.7245 349.672 80.3137 349.667C81.903 349.662 75.0164 346.738 75.0164 346.738Z" fill="black"/>
<path d="M97.4295 223.777V229.773L93.4724 228.068L89.5258 226.367L80.9335 217.92C80.9335 217.92 74.1369 213.508 70.5029 209.488C68.4263 207.195 67.3827 205.028 69.2103 203.884C70.0961 203.304 70.8966 202.604 71.5889 201.803C73.4153 199.65 75.0032 197.306 76.3247 194.812C76.383 194.711 76.4413 194.61 76.4943 194.51C78.2636 191.263 79.4343 188.493 79.4343 188.493C79.4343 188.493 84.4138 190.082 87.6135 192.349C87.873 192.529 88.1167 192.714 88.3498 192.905C90.135 194.367 91.025 196.083 89.3775 197.756C88.9543 198.194 88.563 198.661 88.2068 199.155C87.9407 199.521 87.6966 199.903 87.4757 200.299C87.3804 200.479 87.285 200.653 87.2003 200.828C86.098 203.083 85.717 205.622 86.109 208.1L97.4295 223.777Z" fill="#FFD4D6"/>
<path d="M96.7038 181.014C96.9104 181.375 97.1964 181.682 97.3871 182.047C97.7084 182.854 97.8126 183.73 97.6891 184.589C97.5858 185.948 97.675 187.313 97.954 188.647C98.2347 189.844 98.7592 190.998 98.8015 192.227C98.8598 193.959 97.9593 195.564 97.0905 197.062C98.0444 197.033 98.9445 196.614 99.5803 195.903C99.8139 196.678 99.6428 197.52 99.1247 198.143C100.55 198.074 101.773 196.951 102.303 195.638C102.787 194.281 102.927 192.825 102.711 191.401C102.504 189.989 102.401 188.564 102.404 187.137C102.502 186.366 102.543 185.589 102.526 184.812C102.393 183.271 101.466 181.931 100.534 180.681L98.6903 178.149C98.5622 177.942 98.3787 177.775 98.1606 177.667C96.4177 176.926 96.2164 180.135 96.7038 181.014Z" fill="#464353"/>
<path opacity="0.1" d="M89.4092 197.756C88.986 198.194 88.5947 198.661 88.2385 199.155C87.9724 199.521 87.7283 199.903 87.5074 200.299C87.4121 200.479 87.3167 200.653 87.232 200.828C82.9801 200.59 79.0555 198.47 76.526 195.045C76.4677 194.965 76.4094 194.886 76.3564 194.801C76.4147 194.7 76.473 194.6 76.526 194.499C78.2953 191.252 79.466 188.482 79.466 188.482C79.466 188.482 84.4456 190.071 87.6452 192.338C87.9047 192.518 88.1484 192.704 88.3815 192.894C90.1455 194.367 91.0355 196.061 89.4092 197.756Z" fill="black"/>
<path d="M102.324 186.014C102.326 192.914 97.399 198.832 90.6116 200.081C89.7552 200.237 88.8864 200.315 88.0159 200.314H87.9523C87.7987 200.314 87.6398 200.314 87.4862 200.314C79.6624 200.025 73.5257 193.5 73.7173 185.674C73.9088 177.849 80.3574 171.632 88.186 171.725C96.0146 171.818 102.313 178.187 102.319 186.014H102.324Z" fill="#FFD4D6"/>
<path opacity="0.1" d="M89.8913 221.373C89.8913 221.373 97.0958 225.435 95.2523 222.008L85.8494 208.111L96.5236 221.823C96.5236 221.823 103.336 231.182 99.612 237.627C99.612 237.627 99.0823 242.987 99.7021 244.259C100.322 245.53 99.522 259.088 99.522 259.088C99.522 259.088 96.9739 256.726 95.6125 257.176C94.2511 257.627 84.6416 258.432 84.6416 258.432L89.8913 221.373Z" fill="black"/>
<path opacity="0.1" d="M98.8811 256.25L98.7487 258.76C97.8852 258.135 96.6827 257.436 95.8828 257.701C94.5213 258.156 84.896 258.977 84.896 258.977L85.3357 255.847L98.8811 256.25Z" fill="black"/>
<path d="M90.1616 221.373C90.1616 221.373 97.3713 225.435 95.5226 222.008L86.1197 208.111L96.7939 221.823C96.7939 221.823 103.606 231.182 99.8823 237.627C99.8823 237.627 99.3526 242.987 99.9724 244.259C100.592 245.53 99.7922 259.088 99.7922 259.088C99.7922 259.088 97.2495 256.726 95.8881 257.176C94.5266 257.627 84.896 258.453 84.896 258.453L90.1616 221.373Z" fill="#464353"/>
<path opacity="0.1" d="M94.0127 228.338C93.5942 232.707 91.7984 237.903 91.7984 237.903C91.7984 237.903 90.527 250.8 88.8796 254.634C87.2321 258.469 87.9684 263.717 87.0626 273.436C86.7341 276.937 85.6058 279.342 84.0854 280.962C81.5851 283.611 78.0146 284.188 75.1964 284.024L74.5289 283.971C69.9838 283.521 65.624 261.631 65.624 261.631C65.624 261.631 63.5369 243.009 64.3527 240.445C65.1685 237.882 63.5475 223.386 63.0018 220.208C62.6522 218.19 63.6958 214.911 64.501 212.761C64.9724 211.522 65.3592 210.642 65.3592 210.642C65.3592 210.642 66.906 205.738 69.4487 203.196C70.1571 202.469 71.1299 202.06 72.1451 202.062C73.3405 202.111 74.5015 202.476 75.509 203.122C75.5497 203.145 75.5887 203.172 75.6255 203.201C75.6255 203.201 92.1639 220.096 93.7055 224C94.1346 225.096 94.1769 226.653 94.0127 228.338Z" fill="black"/>
<path d="M93.4724 228.068C93.0486 232.432 91.2528 237.627 91.2528 237.627C91.2528 237.627 89.9814 250.529 88.3445 254.343C86.7076 258.156 87.4386 263.426 86.5275 273.145C86.1991 276.641 85.0707 279.045 83.5504 280.671C81.05 283.319 77.4796 283.891 74.6613 283.732L73.9939 283.68C69.4487 283.224 65.089 261.334 65.089 261.334C65.089 261.334 63.0018 242.717 63.8176 240.175C64.6334 237.633 63.0018 223.1 62.4562 219.916C62.1065 217.904 63.1501 214.62 63.9553 212.47C64.4268 211.23 64.8135 210.378 64.8135 210.378C64.8135 210.378 66.3603 205.473 68.9031 202.931C69.6095 202.202 70.5841 201.794 71.5995 201.803C72.7958 201.846 73.9582 202.212 74.9633 202.862L75.0798 202.936C75.0798 202.936 91.6183 219.832 93.1598 223.735C93.5889 224.821 93.6472 226.383 93.4724 228.068Z" fill="#FF748E"/>
<path opacity="0.1" d="M74.9475 294.558C74.9475 294.558 71.197 297.895 69.9044 297.736C68.6118 297.577 74.9475 294.558 74.9475 294.558Z" fill="black"/>
<path opacity="0.1" d="M75.9434 297.763C75.9434 297.763 71.9915 299.595 70.8102 299.881C69.6289 300.167 74.4177 297.291 75.9434 297.763Z" fill="black"/>
<path opacity="0.1" d="M91.2317 247.622C91.2317 247.622 97.0906 247.691 97.9753 249.528C98.8599 251.366 93.1176 246.87 91.2317 247.622Z" fill="black"/>
<path opacity="0.1" d="M90.4104 250.821C90.4104 250.821 94.9079 251.774 96.2693 252.865C97.6307 253.956 90.4104 250.821 90.4104 250.821Z" fill="black"/>
<path opacity="0.1" d="M82.8512 239.72C82.8512 239.72 82.3215 258.177 80.2979 260.566C78.2743 262.955 82.8512 239.72 82.8512 239.72Z" fill="black"/>
<path opacity="0.1" d="M77.808 291.899C77.808 291.899 74.0469 308.181 81.5903 309.187C89.1338 310.193 86.803 290.65 86.803 290.65L77.808 291.899Z" fill="black"/>
<path d="M77.5326 291.629C77.5326 291.629 73.7926 307.91 81.3202 308.927C88.8478 309.944 86.5275 290.39 86.5275 290.39L77.5326 291.629Z" fill="#FFD4D6"/>
<path opacity="0.1" d="M102.234 184.436C102.025 184.125 101.847 183.793 101.705 183.445C100.703 181.359 98.1289 182.386 96.243 183.377L95.2365 184.674C94.7773 185.213 94.3908 185.809 94.087 186.449C93.8937 186.968 93.7327 187.498 93.6049 188.037C93.3454 188.959 92.964 189.838 92.6196 190.739C91.4776 193.732 90.8005 196.883 90.6119 200.081C89.7555 200.237 88.8867 200.315 88.0162 200.314H87.9526V200.251C88.048 199.891 88.1274 199.525 88.2016 199.16C88.596 197.099 88.6443 194.987 88.3446 192.91C88.3446 192.862 88.3446 192.82 88.3446 192.772C88.2758 192.312 88.1857 191.846 88.1486 191.385C87.9738 191.703 87.8043 192.026 87.6189 192.354C86.48 194.473 85.2828 196.591 83.132 197.518C82.2592 197.861 81.3392 198.068 80.4039 198.132C79.2492 198.194 78.1049 198.384 76.9923 198.699C76.613 198.803 76.27 199.01 76.0017 199.298C75.7023 199.741 75.53 200.257 75.5038 200.791C75.389 201.496 75.2117 202.189 74.974 202.862C74.0013 205.375 72.4813 207.64 70.5242 209.493L70.0316 209.97C69.1925 210.835 68.1919 211.528 67.0862 212.009C66.0817 212.347 65.0254 212.504 63.9661 212.475C64.4375 211.236 64.8242 210.383 64.8242 210.383C64.8242 210.383 66.3711 205.478 68.9138 202.936C69.6202 202.207 70.5948 201.799 71.6102 201.808C73.5083 199.565 75.1533 197.119 76.5156 194.515C72.9474 189.674 72.7893 183.119 76.12 178.112C79.4507 173.105 85.5585 170.716 91.4033 172.134C97.248 173.553 101.581 178.475 102.245 184.452L102.234 184.436Z" fill="black"/>
<path d="M103.145 173.276C102.298 172.334 101.106 171.783 99.967 171.237C99.5615 171.084 99.2048 170.824 98.934 170.485C98.7364 170.08 98.628 169.638 98.6162 169.188C98.2189 166.423 95.6444 164.511 93.0857 163.388C89.7908 161.942 85.8336 161.322 82.6711 163.039C81.1348 163.875 79.9217 165.184 78.5338 166.248C76.7751 167.593 74.7515 168.536 72.8762 169.712C71.0009 170.888 69.2104 172.36 68.3204 174.405C66.9431 177.529 67.9761 181.115 68.1509 184.526C68.4211 189.907 66.2333 195.527 61.8894 198.71C61.3661 199.03 60.9004 199.437 60.5121 199.912C60.1233 200.404 60.079 201.085 60.4008 201.623C60.618 201.919 60.9783 202.089 61.2166 202.364C61.7146 202.931 61.6139 203.794 61.4179 204.525C60.7905 206.886 59.5346 209.033 57.7839 210.738C57.8581 211.299 58.5362 211.516 59.0924 211.601C60.5637 211.82 62.0494 211.928 63.5369 211.924C65.8876 212.117 68.1912 211.188 69.7507 209.419C72.3994 206.93 74.6402 203.821 75.2388 200.24C75.27 199.707 75.4418 199.192 75.7368 198.747C76.0089 198.464 76.3505 198.258 76.7274 198.148C78.7033 197.47 80.9653 197.804 82.8671 196.967C85.3462 195.908 86.5752 193.26 87.8731 190.834C87.9155 191.295 88.0002 191.761 88.0744 192.227C88.4527 194.719 88.3266 197.262 87.7036 199.705C87.3487 201.088 86.8348 202.465 86.8719 203.89C86.8984 204.949 87.9737 210.484 89.3881 208.826C90.8026 207.168 90.2834 203.503 90.2834 201.448C90.285 197.601 90.9906 193.786 92.3653 190.193C92.7043 189.298 93.091 188.413 93.3506 187.492C93.479 186.954 93.6382 186.423 93.8274 185.903C94.135 185.265 94.5231 184.668 94.9822 184.129L95.994 182.831C97.8799 181.83 100.454 180.813 101.456 182.9C101.837 183.7 102.044 184.584 103.045 183.806C103.633 183.345 103.824 182.439 103.977 181.751C104.608 178.864 105.127 175.469 103.145 173.276Z" fill="#464353"/>
<path opacity="0.1" d="M83.9742 223.28C83.5875 213.497 69.8937 211.474 66.6994 220.727C66.6735 220.789 66.6522 220.852 66.6358 220.917C64.5434 227.183 65.4545 243.051 65.4545 243.051C65.4545 243.051 65.7247 253.707 66.7259 257.251C67.7271 260.794 70.54 270.963 70.54 272.61C70.54 274.257 73.1516 280.512 74.2482 280.968C75.3447 281.423 75.901 284.961 76.1711 285.597C76.4413 286.232 77.2306 294.5 77.2306 294.5C77.2306 294.5 87.4969 293.864 87.6771 292.228C87.8572 290.591 85.4045 282.599 85.4045 282.599C85.4045 282.599 83.5981 279.331 83.365 276.699C83.1319 274.067 81.7122 272.87 81.993 271.053C82.2737 269.236 81.1719 268.331 81.1719 267.15C81.1719 265.968 80.3561 262.791 80.3561 262.791C80.3561 262.791 78.6291 261.424 78.9046 259.793C79.18 258.162 76.4519 254.888 77.1776 253.707C77.9034 252.526 78.0835 249.618 78.0835 249.618C78.0835 249.618 78.9946 236.542 79.6303 232.998C80.266 229.455 83.9901 223.735 83.9901 223.735C83.9901 223.735 83.9848 223.571 83.9742 223.28Z" fill="black"/>
<path opacity="0.1" d="M83.5504 280.671C81.05 283.319 77.4796 283.891 74.6614 283.732C74.333 282.493 73.8562 280.968 73.1622 280.682C72.0604 280.226 69.4541 273.961 69.4541 272.329C69.4541 270.698 66.6412 260.518 65.6399 256.97C64.6387 253.421 64.3686 242.776 64.3686 242.776C64.3686 242.776 63.4574 226.886 65.5499 220.637C65.5499 220.578 65.587 220.515 65.6135 220.451C68.7919 211.193 82.5015 213.222 82.8882 223.004C82.8882 223.295 82.8882 223.454 82.8882 223.454C82.8882 223.454 79.1801 229.174 78.5285 232.718C77.8769 236.261 76.9922 249.338 76.9922 249.338C76.9922 249.338 76.8068 252.246 76.0811 253.427C75.3554 254.608 78.0782 257.881 77.808 259.512C77.5379 261.143 79.2595 262.51 79.2595 262.51C79.2595 262.51 80.0753 265.688 80.0753 266.874C80.0753 268.061 81.1666 268.961 80.8964 270.778C80.6263 272.594 82.0777 273.775 82.3108 276.408C82.5054 277.883 82.9234 279.321 83.5504 280.671Z" fill="black"/>
<path d="M83.4285 223.009C83.0418 213.227 69.3481 211.204 66.1537 220.457L66.0902 220.642C63.9977 226.913 64.9089 242.781 64.9089 242.781C64.9089 242.781 65.179 253.432 66.1802 256.975C67.1814 260.518 69.9944 270.693 69.9944 272.335C69.9944 273.977 72.606 280.237 73.7025 280.692C74.7991 281.148 75.3553 284.691 75.6255 285.327C75.8956 285.962 76.685 294.225 76.685 294.225C76.685 294.225 86.9513 293.589 87.1314 291.958C87.3115 290.326 84.8641 282.329 84.8641 282.329C84.8641 282.329 83.0524 279.056 82.8193 276.423C82.5862 273.791 81.1348 272.61 81.4102 270.793C81.6857 268.977 80.5891 268.066 80.5891 266.885C80.5891 265.704 79.7733 262.526 79.7733 262.526C79.7733 262.526 78.0464 261.165 78.3218 259.528C78.5973 257.891 75.8692 254.624 76.5949 253.442C77.3206 252.261 77.5007 249.359 77.5007 249.359C77.5007 249.359 78.4119 236.277 79.0476 232.734C79.6833 229.19 83.4073 223.47 83.4073 223.47C83.4073 223.47 83.4391 223.301 83.4285 223.009Z" fill="#FF748E"/>
<path opacity="0.1" d="M66.5669 248.167C66.8371 247.892 72.0179 242.172 73.6495 244.216C75.2811 246.261 66.5669 248.167 66.5669 248.167Z" fill="black"/>
<path opacity="0.1" d="M67.0437 252.595C67.245 252.389 72.2192 252.187 73.4482 249.417C74.6772 246.647 67.0437 252.595 67.0437 252.595Z" fill="black"/>
<path d="M61.3756 202.364C61.4979 202.508 61.5898 202.676 61.6458 202.857C61.8487 202.23 61.7488 201.545 61.3756 201.003C61.1319 200.722 60.777 200.558 60.5545 200.262C60.5545 200.262 60.528 200.214 60.5121 200.187C60.2619 200.637 60.2781 201.188 60.5545 201.623C60.8035 201.919 61.1319 202.089 61.3756 202.364Z" fill="black"/>
<path d="M68.3097 184.722C68.3097 184.192 68.3097 183.663 68.3097 183.175C68.2143 181.322 67.87 179.42 67.7799 177.561C67.6687 179.839 68.1773 182.227 68.3097 184.537C68.3097 184.59 68.3044 184.648 68.3097 184.722Z" fill="black"/>
<path d="M89.5417 207.465C88.2809 208.942 87.2903 204.689 87.0731 203.01C87.0387 203.302 87.0228 203.596 87.0254 203.89C87.0572 204.949 88.1273 210.484 89.5417 208.826C90.5005 207.703 90.6012 205.791 90.5376 204.027C90.4687 205.378 90.2568 206.628 89.5417 207.465Z" fill="black"/>
<path d="M88.228 192.227C88.3357 192.939 88.4012 193.657 88.424 194.377C88.47 193.201 88.4043 192.024 88.228 190.86C88.1591 190.4 88.069 189.934 88.0267 189.467C86.7182 191.914 85.5051 194.531 83.0259 195.606C81.103 196.438 78.8622 196.109 76.8863 196.787C76.5069 196.891 76.1639 197.098 75.8956 197.386C75.5976 197.829 75.4255 198.345 75.3977 198.879C74.7938 202.459 72.5477 205.568 69.9043 208.058C68.3448 209.827 66.0412 210.756 63.6905 210.563C62.2048 210.564 60.7211 210.456 59.2513 210.24C59.0233 210.205 58.7997 210.146 58.5838 210.065C58.3772 210.298 58.16 210.521 57.9375 210.738C58.0117 211.299 58.695 211.516 59.2513 211.601C60.7208 211.82 62.2047 211.928 63.6905 211.924C66.0412 212.117 68.3448 211.188 69.9043 209.419C72.553 206.93 74.7938 203.821 75.3977 200.24C75.4263 199.707 75.5984 199.191 75.8956 198.747C76.166 198.462 76.5082 198.255 76.8863 198.148C78.8622 197.47 81.1242 197.804 83.0259 196.967C85.5051 195.908 86.7341 193.26 88.0267 190.834C88.069 191.295 88.1591 191.761 88.228 192.227Z" fill="black"/>
<path d="M104.131 180.389C103.977 181.078 103.781 181.978 103.193 182.444C102.197 183.218 101.996 182.339 101.604 181.539C100.603 179.452 98.0282 180.48 96.1423 181.47L95.1305 182.768C94.6712 183.306 94.2847 183.903 93.981 184.542C93.787 185.06 93.6277 185.591 93.5042 186.131C93.2393 187.052 92.8579 187.932 92.5136 188.827C91.1441 192.421 90.4405 196.235 90.437 200.081C90.437 200.256 90.437 200.447 90.437 200.643C90.5314 197.068 91.2317 193.534 92.5083 190.193C92.8526 189.298 93.234 188.413 93.4989 187.492C93.6224 186.952 93.7817 186.421 93.9757 185.903C94.2794 185.264 94.6659 184.667 95.1252 184.129L96.137 182.831C98.0229 181.83 100.597 180.813 101.599 182.9C101.985 183.7 102.187 184.584 103.188 183.806C103.776 183.345 103.972 182.439 104.125 181.751C104.525 180.155 104.703 178.512 104.655 176.867C104.57 178.053 104.395 179.23 104.131 180.389Z" fill="black"/>
<path d="M116.521 231.955L116.802 232.146C116.548 231.977 116.374 231.713 116.319 231.413C116.264 231.114 116.333 230.804 116.511 230.557L129.14 212.263C129.308 212.017 129.568 211.848 129.861 211.794C130.155 211.74 130.458 211.806 130.703 211.977L130.422 211.781C131.242 212.348 131.448 213.471 130.883 214.292L119.032 231.489C118.466 232.308 117.344 232.516 116.521 231.955Z" fill="#464353"/>
<path d="M130.557 211.85L130.771 211.998L116.87 232.175L116.656 232.028C116.237 231.739 116.131 231.165 116.42 230.746L129.272 212.091C129.561 211.672 130.135 211.566 130.554 211.855L130.557 211.85Z" fill="#9F9EFF"/>
<path d="M128.853 214.572C128.869 214.549 128.901 214.543 128.925 214.559L129.027 214.629C129.051 214.646 129.057 214.678 129.04 214.701L127.966 216.261C127.95 216.284 127.918 216.29 127.894 216.274L127.792 216.203C127.768 216.187 127.762 216.155 127.779 216.131L128.853 214.572Z" fill="#464353"/>
<defs>
<linearGradient id="paint0_linear" x1="132.322" y1="402.875" x2="132.322" y2="159.606" gradientUnits="userSpaceOnUse">
<stop stop-color="#808080" stop-opacity="0.25"/>
<stop offset="0.54" stop-color="#808080" stop-opacity="0.12"/>
<stop offset="1" stop-color="#808080" stop-opacity="0.1"/>
</linearGradient>
</defs>
</svg>

