<svg width="70" height="70" viewBox="0 0 70 70" fill="none" xmlns="http://www.w3.org/2000/svg">
<path d="M35 70C54.33 70 70 54.33 70 35C70 15.67 54.33 0 35 0C15.67 0 0 15.67 0 35C0 54.33 15.67 70 35 70Z" fill="#3C3352"/>
<path fill-rule="evenodd" clip-rule="evenodd" d="M45.8898 21C47.6011 21 49.001 22.3999 49.001 24.1111V45.8889C49.001 47.6001 47.6011 49 45.8898 49H24.1121C22.4008 49 21.001 47.6001 21.001 45.8889V24.1111C21.001 22.3999 22.4008 21 24.1121 21H45.8898ZM33.4455 42L29.5566 37.3333L24.1122 44.3333H45.8899L38.8899 35L33.4455 42Z" fill="white"/>
</svg>
