<svg width="12" height="14" viewBox="0 0 12 14" fill="none" xmlns="http://www.w3.org/2000/svg">
<path d="M4.66667 11.0002C4.84348 11.0002 5.01305 10.9299 5.13807 10.8049C5.2631 10.6799 5.33333 10.5103 5.33333 10.3335V6.3335C5.33333 6.15669 5.2631 5.98712 5.13807 5.86209C5.01305 5.73707 4.84348 5.66683 4.66667 5.66683C4.48986 5.66683 4.32029 5.73707 4.19526 5.86209C4.07024 5.98712 4 6.15669 4 6.3335V10.3335C4 10.5103 4.07024 10.6799 4.19526 10.8049C4.32029 10.9299 4.48986 11.0002 4.66667 11.0002ZM11.3333 3.00016H8.66667V2.3335C8.66667 1.80306 8.45595 1.29436 8.08088 0.919283C7.70581 0.54421 7.1971 0.333496 6.66667 0.333496H5.33333C4.8029 0.333496 4.29419 0.54421 3.91912 0.919283C3.54405 1.29436 3.33333 1.80306 3.33333 2.3335V3.00016H0.666667C0.489856 3.00016 0.320286 3.0704 0.195262 3.19543C0.0702379 3.32045 0 3.49002 0 3.66683C0 3.84364 0.0702379 4.01321 0.195262 4.13823C0.320286 4.26326 0.489856 4.3335 0.666667 4.3335H1.33333V11.6668C1.33333 12.1973 1.54405 12.706 1.91912 13.081C2.29419 13.4561 2.8029 13.6668 3.33333 13.6668H8.66667C9.1971 13.6668 9.70581 13.4561 10.0809 13.081C10.456 12.706 10.6667 12.1973 10.6667 11.6668V4.3335H11.3333C11.5101 4.3335 11.6797 4.26326 11.8047 4.13823C11.9298 4.01321 12 3.84364 12 3.66683C12 3.49002 11.9298 3.32045 11.8047 3.19543C11.6797 3.0704 11.5101 3.00016 11.3333 3.00016ZM4.66667 2.3335C4.66667 2.15669 4.7369 1.98712 4.86193 1.86209C4.98695 1.73707 5.15652 1.66683 5.33333 1.66683H6.66667C6.84348 1.66683 7.01305 1.73707 7.13807 1.86209C7.2631 1.98712 7.33333 2.15669 7.33333 2.3335V3.00016H4.66667V2.3335ZM9.33333 11.6668C9.33333 11.8436 9.2631 12.0132 9.13807 12.1382C9.01305 12.2633 8.84348 12.3335 8.66667 12.3335H3.33333C3.15652 12.3335 2.98695 12.2633 2.86193 12.1382C2.7369 12.0132 2.66667 11.8436 2.66667 11.6668V4.3335H9.33333V11.6668ZM7.33333 11.0002C7.51014 11.0002 7.67971 10.9299 7.80474 10.8049C7.92976 10.6799 8 10.5103 8 10.3335V6.3335C8 6.15669 7.92976 5.98712 7.80474 5.86209C7.67971 5.73707 7.51014 5.66683 7.33333 5.66683C7.15652 5.66683 6.98695 5.73707 6.86193 5.86209C6.73691 5.98712 6.66667 6.15669 6.66667 6.3335V10.3335C6.66667 10.5103 6.73691 10.6799 6.86193 10.8049C6.98695 10.9299 7.15652 11.0002 7.33333 11.0002Z" fill="#959393"/>
</svg>
