<svg width="33" height="25" viewBox="0 0 33 25" fill="none" xmlns="http://www.w3.org/2000/svg">
<path d="M11.8481 2.14673H20.63V17.9262H11.8481V2.14673Z" fill="#FF5F00"/>
<path d="M12.4062 10.0364C12.4062 6.8304 13.9116 3.98669 16.2255 2.14663C14.525 0.808462 12.3784 0 10.0366 0C4.48845 0 0 4.48845 0 10.0364C0 15.5843 4.48845 20.0729 10.0364 20.0729C12.3783 20.0729 14.5249 19.2644 16.2255 17.9261C13.9116 16.114 12.4062 13.2425 12.4062 10.0364Z" fill="#EB001B"/>
<path d="M32.4789 10.0364C32.4789 15.5843 27.9905 20.0729 22.4425 20.0729C20.1007 20.0729 17.954 19.2644 16.2534 17.9261C18.5952 16.0862 20.0728 13.2425 20.0728 10.0364C20.0728 6.8304 18.5673 3.98669 16.2534 2.14663C17.9539 0.808462 20.1007 0 22.4425 0C27.9905 0 32.479 4.51639 32.479 10.0364H32.4789Z" fill="#F79E1B"/>
<path d="M5.91694 24.9442V23.2716C5.91694 22.6302 5.52655 22.2122 4.8574 22.2122C4.52289 22.2122 4.16044 22.3237 3.9095 22.6861C3.71443 22.3794 3.43567 22.2122 3.01747 22.2122C2.73859 22.2122 2.45996 22.2957 2.23682 22.6024V22.2679H1.65137V24.9442H2.23682V23.4666C2.23682 22.9928 2.48777 22.7697 2.87816 22.7697C3.26829 22.7697 3.46361 23.0206 3.46361 23.4666V24.9442H4.04907V23.4666C4.04907 22.9928 4.3277 22.7697 4.69015 22.7697C5.08054 22.7697 5.2756 23.0206 5.2756 23.4666V24.9442H5.91694ZM14.5871 22.2679H13.6394V21.4594H13.0539V22.2679H12.5242V22.7975H13.0538V24.0243C13.0538 24.6377 13.3047 25 13.9739 25C14.2248 25 14.5034 24.9164 14.6988 24.8049L14.5314 24.303C14.3641 24.4145 14.1691 24.4425 14.0296 24.4425C13.7509 24.4425 13.6394 24.2752 13.6394 23.9963V22.7975H14.5871V22.2679ZM19.5497 22.212C19.2152 22.212 18.9922 22.3794 18.8527 22.6024V22.2679H18.2673V24.9442H18.8527V23.4388C18.8527 22.9928 19.0478 22.7419 19.4102 22.7419C19.5217 22.7419 19.6612 22.7698 19.7727 22.7976L19.9399 22.2401C19.8284 22.2122 19.6612 22.2122 19.5497 22.2122V22.212ZM12.0502 22.4909C11.7714 22.2957 11.3811 22.2122 10.9629 22.2122C10.2939 22.2122 9.84787 22.5467 9.84787 23.0764C9.84787 23.5225 10.1824 23.7733 10.7678 23.857L11.0466 23.885C11.3533 23.9406 11.5205 24.0243 11.5205 24.1637C11.5205 24.3588 11.2975 24.4982 10.9072 24.4982C10.5169 24.4982 10.2102 24.3588 10.015 24.2195L9.73624 24.6655C10.0429 24.8885 10.4611 25 10.8792 25C11.6599 25 12.106 24.6377 12.106 24.1358C12.106 23.6618 11.7436 23.4109 11.1859 23.3273L10.9072 23.2994C10.6562 23.2714 10.4611 23.2158 10.4611 23.0486C10.4611 22.8534 10.6562 22.7419 10.9629 22.7419C11.2975 22.7419 11.632 22.8812 11.7993 22.9649L12.0502 22.4909ZM27.6067 22.2122C27.2721 22.2122 27.0491 22.3794 26.9096 22.6024V22.2679H26.3242V24.9442H26.9096V23.4388C26.9096 22.9928 27.1048 22.7419 27.4672 22.7419C27.5788 22.7419 27.7182 22.7698 27.8297 22.7976L27.997 22.2401C27.8855 22.2122 27.7182 22.2122 27.6067 22.2122ZM20.1351 23.6061C20.1351 24.4145 20.6926 25 21.557 25C21.9472 25 22.226 24.9164 22.5048 24.6934L22.226 24.2195C22.003 24.3867 21.78 24.4703 21.529 24.4703C21.0551 24.4703 20.7206 24.1358 20.7206 23.6061C20.7206 23.1043 21.0551 22.7697 21.529 22.7419C21.78 22.7419 22.003 22.8254 22.226 22.9928L22.5048 22.5188C22.226 22.2957 21.9472 22.2122 21.557 22.2122C20.6926 22.2122 20.1351 22.7976 20.1351 23.6061ZM25.5437 23.6061V22.2679H24.9582V22.6024C24.763 22.3516 24.4843 22.2122 24.1218 22.2122C23.3691 22.2122 22.7836 22.7976 22.7836 23.6061C22.7836 24.4145 23.3691 25 24.1218 25C24.5121 25 24.791 24.8607 24.9582 24.6097V24.9442H25.5437V23.6061ZM23.3969 23.6061C23.3969 23.1321 23.7036 22.7419 24.2054 22.7419C24.6793 22.7419 25.014 23.1043 25.014 23.6061C25.014 24.08 24.6793 24.4703 24.2054 24.4703C23.7036 24.4423 23.3969 24.08 23.3969 23.6061ZM16.3994 22.2122C15.6187 22.2122 15.0611 22.7697 15.0611 23.6061C15.0611 24.4425 15.6186 25 16.4272 25C16.8175 25 17.2078 24.8885 17.5145 24.6377L17.2357 24.2195C17.0127 24.3867 16.7339 24.4982 16.4551 24.4982C16.0927 24.4982 15.7302 24.331 15.6465 23.8569H17.626V23.634C17.654 22.7697 17.1521 22.2122 16.3993 22.2122H16.3994ZM16.3994 22.7139C16.7617 22.7139 17.0128 22.937 17.0684 23.3552H15.6745C15.7302 22.9928 15.9812 22.7139 16.3994 22.7139ZM30.9243 23.6061V21.2085H30.3388V22.6024C30.1436 22.3516 29.8649 22.2122 29.5024 22.2122C28.7497 22.2122 28.1642 22.7976 28.1642 23.6061C28.1642 24.4145 28.7497 25 29.5024 25C29.8928 25 30.1716 24.8607 30.3388 24.6097V24.9442H30.9243V23.6061ZM28.7776 23.6061C28.7776 23.1321 29.0842 22.7419 29.5861 22.7419C30.0601 22.7419 30.3946 23.1043 30.3946 23.6061C30.3946 24.08 30.0601 24.4703 29.5861 24.4703C29.0842 24.4423 28.7776 24.08 28.7776 23.6061ZM9.20654 23.6061V22.2679H8.62108V22.6024C8.42589 22.3516 8.14713 22.2122 7.78468 22.2122C7.03197 22.2122 6.44651 22.7976 6.44651 23.6061C6.44651 24.4145 7.03197 25 7.78468 25C8.17507 25 8.45383 24.8607 8.62108 24.6097V24.9442H9.20654V23.6061ZM7.03197 23.6061C7.03197 23.1321 7.33867 22.7419 7.84043 22.7419C8.31438 22.7419 8.64902 23.1043 8.64902 23.6061C8.64902 24.08 8.31438 24.4703 7.84043 24.4703C7.33867 24.4423 7.03197 24.08 7.03197 23.6061Z" fill="black"/>
</svg>
