
<svg width="55" height="18" viewBox="0 0 55 18" fill="none" xmlns="http://www.w3.org/2000/svg">
<path d="M28.0042 5.75439C27.9734 8.26187 30.169 9.66105 31.823 10.493C33.5223 11.3466 34.0931 11.894 34.0863 12.6574C34.0737 13.8255 32.7308 14.3411 31.4743 14.3612C29.282 14.3962 28.0073 13.7502 26.994 13.2616L26.2042 17.0761C27.2209 17.5597 29.1036 17.9815 31.0558 18C35.6384 18 38.6365 15.665 38.6527 12.0446C38.6706 7.44992 32.4959 7.1956 32.538 5.14189C32.5526 4.51916 33.1282 3.85462 34.3897 3.68566C35.014 3.60031 36.7376 3.53498 38.6917 4.46386L39.4587 0.77319C38.4078 0.378212 37.0572 0 35.3756 0C31.0623 0 28.0286 2.36682 28.0042 5.75439ZM46.8284 0.317898C45.9916 0.317898 45.2865 0.821745 44.9718 1.59493L38.4257 17.7289H43.005L43.9162 15.1293H49.512L50.0406 17.7289H54.0767L50.5546 0.317898H46.8284ZM47.469 5.02127L48.7906 11.5593H45.1713L47.469 5.02127ZM22.4521 0.318115L18.8425 17.7287H23.2062L26.814 0.31768H22.4521V0.318115ZM15.9967 0.31768L11.4548 12.1685L9.61757 2.09225C9.402 0.967413 8.55065 0.317898 7.60523 0.317898H0.180652L0.0766602 0.823486C1.60089 1.1649 3.33269 1.71556 4.38189 2.30476C5.02399 2.66468 5.20708 2.97932 5.41802 3.83459L8.89786 17.7289H13.5092L20.5789 0.317898H15.9967" fill="url(#paint0_linear)"/>
<defs>
<linearGradient id="paint0_linear" x1="24.9026" y1="18.3611" x2="25.4404" y2="-0.124222" gradientUnits="userSpaceOnUse">
<stop stop-color="#222357"/>
<stop offset="1" stop-color="#254AA5"/>
</linearGradient>
</defs>
</svg>
