<svg width="20" height="20" viewBox="0 0 20 20" fill="none" xmlns="http://www.w3.org/2000/svg">
<path d="M9.6 20C14.9019 20 19.2 15.5228 19.2 10C19.2 4.47715 14.9019 0 9.6 0C4.29807 0 0 4.47715 0 10C0 15.5228 4.29807 20 9.6 20Z" fill="#3C3352"/>
<path fill-rule="evenodd" clip-rule="evenodd" d="M12.5869 6C13.0563 6 13.4403 6.39996 13.4403 6.8889V13.1111C13.4403 13.6 13.0563 14 12.5869 14H6.61359C6.14421 14 5.76025 13.6 5.76025 13.1111V6.8889C5.76025 6.39996 6.14421 6 6.61359 6H12.5869ZM9.17362 12L8.10694 10.6667L6.61362 12.6667H12.5869L10.6669 10L9.17362 12Z" fill="white"/>
</svg>
