<svg width="24" height="24" viewBox="0 0 24 24" fill="none" xmlns="http://www.w3.org/2000/svg">
<g opacity="0.2">
<path opacity="0.5" fill-rule="evenodd" clip-rule="evenodd" d="M19.7089 10.3386C20.3159 9.94433 20.3159 9.05567 19.7089 8.66137L16.5447 6.6062C15.8795 6.17409 15 6.65154 15 7.44482L15 8L7.00002 8C6.44773 8 6.00002 8.44771 6.00002 9L6.00002 10C6.00002 10.5523 6.44773 11 7.00002 11L15 11L15 11.5552C15 12.3485 15.8795 12.8259 16.5447 12.3938L19.7089 10.3386ZM4.29117 14.6614C3.68411 15.0557 3.68411 15.9443 4.29117 16.3386L7.45531 18.3938C8.12059 18.8259 9.00002 18.3485 9.00002 17.5552L9.00002 17H17C17.5523 17 18 16.5523 18 16V15C18 14.4477 17.5523 14 17 14H9.00002L9.00002 13.4448C9.00002 12.6515 8.12058 12.1741 7.45531 12.6062L4.29117 14.6614Z" fill="black"/>
</g>
</svg>
