<svg width="14" height="14" viewBox="0 0 14 14" fill="none" xmlns="http://www.w3.org/2000/svg">
<path fill-rule="evenodd" clip-rule="evenodd" d="M6.16678 7.47518C5.90795 7.21252 5.90795 6.78816 6.16678 6.52482L12.3096 0.285008C12.6832 -0.0950026 13.2912 -0.0950026 13.6655 0.285008C14.0391 0.665018 14.0391 1.28177 13.6655 1.66178L8.41061 7.00034L13.6655 12.3375C14.0391 12.7182 14.0391 13.335 13.6655 13.715C13.2912 14.095 12.6832 14.095 12.3096 13.715L6.16678 7.47518Z" fill="#4A4A4A"/>
<path fill-rule="evenodd" clip-rule="evenodd" d="M7.77951 7.47518C8.03834 7.21252 8.03834 6.78816 7.77951 6.52482L1.63668 0.285008C1.26304 -0.0950026 0.655128 -0.0950026 0.280824 0.285008C-0.0928164 0.665018 -0.0928164 1.28177 0.280824 1.66178L5.53568 7.00034L0.280824 12.3375C-0.0928164 12.7182 -0.0928164 13.335 0.280824 13.715C0.655128 14.095 1.26304 14.095 1.63668 13.715L7.77951 7.47518Z" fill="#4A4A4A"/>
</svg>
