<svg width="26" height="26" viewBox="0 0 26 26" fill="none" xmlns="http://www.w3.org/2000/svg">
<path d="M21.75 0.5H4.25C3.25544 0.5 2.30161 0.895088 1.59835 1.59835C0.895088 2.30161 0.5 3.25544 0.5 4.25V21.75C0.5 22.7446 0.895088 23.6984 1.59835 24.4017C2.30161 25.1049 3.25544 25.5 4.25 25.5H21.75C21.9556 25.4971 22.1606 25.4762 22.3625 25.4375L22.7375 25.35H22.825H22.8875L23.35 25.175L23.5125 25.0875C23.6375 25.0125 23.775 24.95 23.9 24.8625C24.0669 24.7397 24.2256 24.6061 24.375 24.4625L24.4625 24.35C24.5852 24.2256 24.6981 24.0919 24.8 23.95L24.9125 23.7875C24.9998 23.6483 25.0751 23.502 25.1375 23.35C25.1718 23.29 25.2011 23.2273 25.225 23.1625C25.2875 23.0125 25.325 22.85 25.375 22.6875V22.5C25.4459 22.2558 25.4878 22.004 25.5 21.75V4.25C25.5 3.25544 25.1049 2.30161 24.4017 1.59835C23.6984 0.895088 22.7446 0.5 21.75 0.5ZM4.25 23C3.91848 23 3.60054 22.8683 3.36612 22.6339C3.1317 22.3995 3 22.0815 3 21.75V16.3625L7.1125 12.2375C7.2287 12.1203 7.36695 12.0273 7.51928 11.9639C7.6716 11.9004 7.83499 11.8678 8 11.8678C8.16501 11.8678 8.3284 11.9004 8.48072 11.9639C8.63305 12.0273 8.7713 12.1203 8.8875 12.2375L19.6375 23H4.25ZM23 21.75C22.9988 21.9041 22.9692 22.0567 22.9125 22.2C22.8839 22.2609 22.8505 22.3195 22.8125 22.375C22.7791 22.4279 22.7414 22.4781 22.7 22.525L16.0125 15.8375L17.1125 14.7375C17.2287 14.6203 17.367 14.5273 17.5193 14.4639C17.6716 14.4004 17.835 14.3678 18 14.3678C18.165 14.3678 18.3284 14.4004 18.4807 14.4639C18.633 14.5273 18.7713 14.6203 18.8875 14.7375L23 18.8625V21.75ZM23 15.325L20.65 13C19.9347 12.3212 18.9861 11.9428 18 11.9428C17.0139 11.9428 16.0653 12.3212 15.35 13L14.25 14.1L10.65 10.5C9.93465 9.82124 8.98612 9.44285 8 9.44285C7.01388 9.44285 6.06535 9.82124 5.35 10.5L3 12.825V4.25C3 3.91848 3.1317 3.60054 3.36612 3.36612C3.60054 3.1317 3.91848 3 4.25 3H21.75C22.0815 3 22.3995 3.1317 22.6339 3.36612C22.8683 3.60054 23 3.91848 23 4.25V15.325Z" fill="#F6F9FF"/>
</svg>
