<svg width="255" height="200" viewBox="0 0 255 200" fill="none" xmlns="http://www.w3.org/2000/svg">
<path fill-rule="evenodd" clip-rule="evenodd" d="M107.608 176.754H184.992V40.8119H107.608V176.754Z" fill="#E7F7F3"/>
<path fill-rule="evenodd" clip-rule="evenodd" d="M153.912 36.3642H138.687C138.281 36.3642 137.953 36.036 137.953 35.6308C137.953 35.2256 138.281 34.8967 138.687 34.8967H153.912C154.317 34.8967 154.645 35.2256 154.645 35.6308C154.645 36.036 154.317 36.3642 153.912 36.3642Z" fill="#2E87BF"/>
<mask id="mask0" mask-type="alpha" maskUnits="userSpaceOnUse" x="113" y="157" width="66" height="20">
<path fill-rule="evenodd" clip-rule="evenodd" d="M113.733 157.173H178.865V176.753H113.733V157.173Z" fill="white"/>
</mask>
<g mask="url(#mask0)">
<path fill-rule="evenodd" clip-rule="evenodd" d="M176.203 197.93H116.396C114.925 197.93 113.733 196.738 113.733 195.267V159.835C113.733 158.364 114.925 157.173 116.396 157.173H176.203C177.673 157.173 178.865 158.364 178.865 159.835V195.267C178.865 196.738 177.673 197.93 176.203 197.93Z" fill="#B8E8DC"/>
</g>
<path fill-rule="evenodd" clip-rule="evenodd" d="M126.104 162.53L126.832 164.433L128.868 164.538C129.275 164.56 129.441 165.071 129.125 165.326L127.539 166.608L128.069 168.576C128.174 168.969 127.739 169.285 127.399 169.063L125.689 167.951L123.981 169.063C123.64 169.285 123.205 168.969 123.311 168.576L123.84 166.608L122.255 165.326C121.938 165.071 122.105 164.56 122.51 164.538L124.546 164.433L125.275 162.53C125.42 162.15 125.958 162.15 126.104 162.53Z" fill="white"/>
<path fill-rule="evenodd" clip-rule="evenodd" d="M136.409 162.53L137.138 164.433L139.173 164.538C139.58 164.56 139.746 165.071 139.43 165.326L137.845 166.608L138.373 168.576C138.479 168.969 138.044 169.285 137.704 169.063L135.994 167.951L134.286 169.063C133.945 169.285 133.51 168.969 133.616 168.576L134.145 166.608L132.56 165.326C132.243 165.071 132.409 164.56 132.815 164.538L134.852 164.433L135.581 162.53C135.725 162.15 136.263 162.15 136.409 162.53Z" fill="white"/>
<path fill-rule="evenodd" clip-rule="evenodd" d="M146.713 162.53L147.442 164.433L149.478 164.538C149.885 164.56 150.051 165.071 149.735 165.326L148.15 166.608L148.678 168.576C148.784 168.969 148.349 169.285 148.009 169.063L146.299 167.951L144.591 169.063C144.249 169.285 143.815 168.969 143.921 168.576L144.45 166.608L142.865 165.326C142.548 165.071 142.714 164.56 143.12 164.538L145.156 164.433L145.885 162.53C146.03 162.15 146.568 162.15 146.713 162.53Z" fill="white"/>
<path fill-rule="evenodd" clip-rule="evenodd" d="M157.019 162.53L157.748 164.433L159.784 164.538C160.19 164.56 160.356 165.071 160.04 165.326L158.455 166.608L158.983 168.576C159.089 168.969 158.654 169.285 158.313 169.063L156.604 167.951L154.896 169.063C154.554 169.285 154.12 168.969 154.226 168.576L154.755 166.608L153.17 165.326C152.853 165.071 153.019 164.56 153.425 164.538L155.462 164.433L156.191 162.53C156.335 162.15 156.873 162.15 157.019 162.53Z" fill="white"/>
<path fill-rule="evenodd" clip-rule="evenodd" d="M167.324 162.53L168.053 164.433L170.088 164.538C170.495 164.56 170.661 165.071 170.345 165.326L168.76 166.608L169.288 168.576C169.394 168.969 168.959 169.285 168.618 169.063L166.909 167.951L165.201 169.063C164.859 169.285 164.425 168.969 164.531 168.576L165.059 166.608L163.475 165.326C163.158 165.071 163.324 164.56 163.73 164.538L165.767 164.433L166.496 162.53C166.64 162.15 167.178 162.15 167.324 162.53Z" fill="white"/>
<mask id="mask1" mask-type="alpha" maskUnits="userSpaceOnUse" x="141" y="173" width="34" height="4">
<path fill-rule="evenodd" clip-rule="evenodd" d="M141.885 173.244H174.405V176.753H141.885V173.244Z" fill="white"/>
</mask>
<g mask="url(#mask1)">
<path fill-rule="evenodd" clip-rule="evenodd" d="M171.79 178.473H144.5C143.056 178.473 141.885 177.302 141.885 175.858C141.885 174.414 143.056 173.244 144.5 173.244H171.79C173.234 173.244 174.405 174.414 174.405 175.858C174.405 177.302 173.234 178.473 171.79 178.473Z" fill="#71D3BA"/>
</g>
<mask id="mask2" mask-type="alpha" maskUnits="userSpaceOnUse" x="119" y="173" width="20" height="4">
<path fill-rule="evenodd" clip-rule="evenodd" d="M119.18 173.243H138.395V176.753H119.18V173.243Z" fill="white"/>
</mask>
<g mask="url(#mask2)">
<path fill-rule="evenodd" clip-rule="evenodd" d="M136.502 192.454H121.074C120.028 192.454 119.18 191.607 119.18 190.562V175.136C119.18 174.091 120.028 173.243 121.074 173.243H136.502C137.547 173.243 138.395 174.091 138.395 175.136V190.562C138.395 191.607 137.547 192.454 136.502 192.454Z" fill="#71D3BA"/>
</g>
<path fill-rule="evenodd" clip-rule="evenodd" d="M176.203 152.641H116.396C114.925 152.641 113.733 151.449 113.733 149.979V114.546C113.733 113.076 114.925 111.884 116.396 111.884H176.203C177.673 111.884 178.865 113.076 178.865 114.546V149.979C178.865 151.449 177.673 152.641 176.203 152.641Z" fill="#B8E8DC"/>
<path fill-rule="evenodd" clip-rule="evenodd" d="M126.104 117.242L126.832 119.145L128.868 119.25C129.275 119.271 129.441 119.782 129.125 120.038L127.539 121.319L128.069 123.287C128.174 123.68 127.739 123.996 127.399 123.774L125.689 122.663L123.981 123.774C123.64 123.996 123.205 123.68 123.311 123.287L123.84 121.319L122.255 120.038C121.938 119.782 122.105 119.271 122.51 119.25L124.546 119.145L125.275 117.242C125.42 116.862 125.958 116.862 126.104 117.242Z" fill="white"/>
<path fill-rule="evenodd" clip-rule="evenodd" d="M136.409 117.242L137.138 119.145L139.173 119.25C139.58 119.271 139.746 119.782 139.43 120.038L137.845 121.319L138.373 123.287C138.479 123.68 138.044 123.996 137.704 123.774L135.994 122.663L134.286 123.774C133.945 123.996 133.51 123.68 133.616 123.287L134.145 121.319L132.56 120.038C132.243 119.782 132.409 119.271 132.815 119.25L134.852 119.145L135.581 117.242C135.725 116.862 136.263 116.862 136.409 117.242Z" fill="white"/>
<path fill-rule="evenodd" clip-rule="evenodd" d="M146.713 117.242L147.442 119.145L149.478 119.25C149.885 119.271 150.051 119.782 149.735 120.038L148.15 121.319L148.678 123.287C148.784 123.68 148.349 123.996 148.009 123.774L146.299 122.663L144.591 123.774C144.249 123.996 143.815 123.68 143.921 123.287L144.45 121.319L142.865 120.038C142.548 119.782 142.714 119.271 143.12 119.25L145.156 119.145L145.885 117.242C146.03 116.862 146.568 116.862 146.713 117.242Z" fill="white"/>
<path fill-rule="evenodd" clip-rule="evenodd" d="M157.019 117.242L157.748 119.145L159.784 119.25C160.19 119.271 160.356 119.782 160.04 120.038L158.455 121.319L158.983 123.287C159.089 123.68 158.654 123.996 158.313 123.774L156.604 122.663L154.896 123.774C154.554 123.996 154.12 123.68 154.226 123.287L154.755 121.319L153.17 120.038C152.853 119.782 153.019 119.271 153.425 119.25L155.462 119.145L156.191 117.242C156.335 116.862 156.873 116.862 157.019 117.242Z" fill="white"/>
<path fill-rule="evenodd" clip-rule="evenodd" d="M167.324 117.242L168.053 119.145L170.088 119.25C170.495 119.271 170.661 119.782 170.345 120.038L168.76 121.319L169.288 123.287C169.394 123.68 168.959 123.996 168.618 123.774L166.909 122.663L165.201 123.774C164.859 123.996 164.425 123.68 164.531 123.287L165.059 121.319L163.475 120.038C163.158 119.782 163.324 119.271 163.73 119.25L165.767 119.145L166.496 117.242C166.64 116.862 167.178 116.862 167.324 117.242Z" fill="white"/>
<path fill-rule="evenodd" clip-rule="evenodd" d="M171.79 133.184H144.5C143.056 133.184 141.885 132.013 141.885 130.569C141.885 129.126 143.056 127.955 144.5 127.955H171.79C173.234 127.955 174.405 129.126 174.405 130.569C174.405 132.013 173.234 133.184 171.79 133.184Z" fill="#71D3BA"/>
<path fill-rule="evenodd" clip-rule="evenodd" d="M171.79 140.174H144.5C143.056 140.174 141.885 139.004 141.885 137.56C141.885 136.116 143.056 134.945 144.5 134.945H171.79C173.234 134.945 174.405 136.116 174.405 137.56C174.405 139.004 173.234 140.174 171.79 140.174Z" fill="#71D3BA"/>
<path fill-rule="evenodd" clip-rule="evenodd" d="M156.28 147.166H144.5C143.056 147.166 141.886 145.995 141.886 144.551C141.886 143.107 143.056 141.937 144.5 141.937H156.28C157.724 141.937 158.895 143.107 158.895 144.551C158.895 145.995 157.724 147.166 156.28 147.166Z" fill="#71D3BA"/>
<path fill-rule="evenodd" clip-rule="evenodd" d="M136.502 147.166H121.074C120.028 147.166 119.18 146.318 119.18 145.273V129.847C119.18 128.802 120.028 127.955 121.074 127.955H136.502C137.547 127.955 138.395 128.802 138.395 129.847V145.273C138.395 146.318 137.547 147.166 136.502 147.166Z" fill="#71D3BA"/>
<path fill-rule="evenodd" clip-rule="evenodd" d="M135.248 143.404L133.645 131.309H123.539L121.935 143.404L127.023 144.472L128.591 139.722L130.16 144.472L135.248 143.404Z" fill="#B8E8DC"/>
<path fill-rule="evenodd" clip-rule="evenodd" d="M147.391 144.157H147.448C147.453 144.157 147.46 144.157 147.466 144.157C147.439 144.157 147.414 144.157 147.391 144.157H147.448H147.391ZM147.364 144.746C147.561 144.732 147.748 144.654 147.896 144.524C147.748 144.654 147.561 144.732 147.364 144.746ZM147.766 144.917C147.627 144.711 147.411 144.753 147.31 144.748H146.778H146.77C146.607 144.748 146.475 144.615 146.475 144.453V144.452C146.475 144.299 146.59 144.173 146.74 144.159C146.75 144.157 146.76 144.157 146.77 144.157C146.771 144.157 146.771 144.157 146.772 144.157L147.252 144.157H147.305C147.706 144.15 147.716 143.547 147.319 143.532L146.312 143.533V145.514H147.448C147.757 145.514 147.936 145.169 147.766 144.917ZM147.448 146.106H146.016C146.006 146.106 145.996 146.105 145.986 146.104C145.873 146.093 145.78 146.018 145.74 145.916C145.727 145.883 145.721 145.848 145.721 145.81V143.237V143.235V143.234C145.721 143.07 145.853 142.938 146.016 142.938H146.019H146.02H147.3C148.024 142.938 148.456 143.75 148.051 144.35C148.048 144.353 148.045 144.356 148.043 144.36C148.033 144.375 148.022 144.39 148.011 144.404C148.022 144.39 148.033 144.375 148.043 144.36C148.777 144.927 148.372 146.106 147.448 146.106Z" fill="white"/>
<path fill-rule="evenodd" clip-rule="evenodd" d="M151.626 143.218V144.907H151.625C151.626 144.913 151.626 144.918 151.626 144.924C151.626 145.624 150.97 146.18 150.248 146.18C149.525 146.18 148.876 145.621 148.876 144.924C148.876 144.918 148.876 144.913 148.876 144.907H148.876V143.218C148.876 143.055 149.008 142.922 149.171 142.922C149.335 142.922 149.467 143.055 149.467 143.218C149.467 143.22 149.466 143.223 149.466 143.225V144.907C149.466 144.913 149.467 144.918 149.467 144.924C149.467 145.284 149.846 145.589 150.248 145.589H150.249C150.651 145.589 151.034 145.285 151.034 144.925V144.924C151.034 144.918 151.035 144.913 151.036 144.907H151.035V143.225C151.035 143.223 151.034 143.22 151.034 143.218C151.034 143.055 151.167 142.922 151.33 142.922C151.493 142.922 151.626 143.055 151.626 143.218Z" fill="white"/>
<path fill-rule="evenodd" clip-rule="evenodd" d="M153.324 144.714C153.303 144.745 153.291 144.774 153.285 144.803C153.285 144.8 153.286 144.798 153.286 144.796C153.286 144.792 153.288 144.79 153.289 144.787C153.29 144.784 153.29 144.782 153.291 144.78L153.289 144.786C153.291 144.78 153.293 144.774 153.296 144.768C153.294 144.772 153.292 144.776 153.291 144.78C153.292 144.776 153.294 144.772 153.296 144.767C153.296 144.765 153.297 144.763 153.298 144.762C153.298 144.761 153.299 144.761 153.299 144.76C153.299 144.761 153.298 144.761 153.298 144.762C153.301 144.754 153.305 144.747 153.31 144.739C153.308 144.739 153.308 144.74 153.308 144.741C153.308 144.739 153.31 144.739 153.31 144.738C153.311 144.737 153.312 144.736 153.312 144.735C153.313 144.733 153.314 144.732 153.314 144.73C153.314 144.731 153.313 144.732 153.313 144.734C153.316 144.728 153.319 144.722 153.322 144.717C153.321 144.719 153.32 144.721 153.319 144.721C153.32 144.719 153.321 144.718 153.323 144.716C153.323 144.716 153.323 144.715 153.324 144.714ZM155.003 143.411L153.866 144.975V145.782V145.8V145.81C153.866 145.957 153.758 146.08 153.616 146.102C153.615 146.102 153.614 146.102 153.613 146.103C153.607 146.103 153.602 146.104 153.596 146.105C153.587 146.105 153.579 146.106 153.571 146.106C153.562 146.106 153.554 146.105 153.545 146.105C153.539 146.104 153.534 146.103 153.529 146.103C153.527 146.102 153.526 146.102 153.525 146.102C153.383 146.08 153.275 145.957 153.275 145.811C153.275 145.807 153.275 145.804 153.275 145.8C153.275 145.793 153.275 145.787 153.275 145.782V144.883C153.274 144.912 153.275 144.942 153.275 144.975L152.137 143.411H152.138C152.101 143.362 152.081 143.302 152.081 143.237C152.081 143.073 152.213 142.941 152.376 142.941C152.475 142.941 152.562 142.989 152.615 143.064H152.616L153.571 144.375L154.525 143.064C154.579 142.989 154.665 142.941 154.764 142.941C154.928 142.941 155.06 143.073 155.06 143.237C155.06 143.302 155.038 143.362 155.003 143.411Z" fill="white"/>
<path fill-rule="evenodd" clip-rule="evenodd" d="M176.203 107.352H116.397C114.926 107.352 113.734 106.16 113.734 104.69V69.2577C113.734 67.7876 114.926 66.5953 116.397 66.5953H176.203C177.673 66.5953 178.866 67.7876 178.866 69.2577V104.69C178.866 106.16 177.673 107.352 176.203 107.352Z" fill="#B8E8DC"/>
<path fill-rule="evenodd" clip-rule="evenodd" d="M126.104 71.9527L126.832 73.8564L128.868 73.9611C129.275 73.9824 129.441 74.4935 129.125 74.7488L127.539 76.0302L128.069 77.9985C128.174 78.3914 127.739 78.7074 127.399 78.4858L125.689 77.3743L123.981 78.4858C123.64 78.7074 123.205 78.3914 123.311 77.9985L123.84 76.0302L122.255 74.7488C121.938 74.4935 122.105 73.9824 122.51 73.9611L124.546 73.8564L125.275 71.9527C125.42 71.5727 125.958 71.5727 126.104 71.9527Z" fill="white"/>
<path fill-rule="evenodd" clip-rule="evenodd" d="M136.409 71.9527L137.138 73.8564L139.173 73.9611C139.58 73.9824 139.746 74.4935 139.43 74.7488L137.845 76.0302L138.373 77.9985C138.479 78.3914 138.044 78.7074 137.704 78.4858L135.994 77.3743L134.286 78.4858C133.945 78.7074 133.51 78.3914 133.616 77.9985L134.145 76.0302L132.56 74.7488C132.243 74.4935 132.409 73.9824 132.815 73.9611L134.852 73.8564L135.581 71.9527C135.725 71.5727 136.263 71.5727 136.409 71.9527Z" fill="white"/>
<path fill-rule="evenodd" clip-rule="evenodd" d="M146.713 71.9527L147.442 73.8564L149.478 73.9611C149.885 73.9824 150.051 74.4935 149.735 74.7488L148.15 76.0302L148.678 77.9985C148.784 78.3914 148.349 78.7074 148.009 78.4858L146.299 77.3743L144.591 78.4858C144.249 78.7074 143.815 78.3914 143.921 77.9985L144.45 76.0302L142.865 74.7488C142.548 74.4935 142.714 73.9824 143.12 73.9611L145.156 73.8564L145.885 71.9527C146.03 71.5727 146.568 71.5727 146.713 71.9527Z" fill="white"/>
<path fill-rule="evenodd" clip-rule="evenodd" d="M157.019 71.9527L157.748 73.8564L159.784 73.9611C160.19 73.9824 160.356 74.4935 160.04 74.7488L158.455 76.0302L158.983 77.9985C159.089 78.3914 158.654 78.7074 158.313 78.4858L156.604 77.3743L154.896 78.4858C154.554 78.7074 154.12 78.3914 154.226 77.9985L154.755 76.0302L153.17 74.7488C152.853 74.4935 153.019 73.9824 153.425 73.9611L155.462 73.8564L156.191 71.9527C156.335 71.5727 156.873 71.5727 157.019 71.9527Z" fill="white"/>
<path fill-rule="evenodd" clip-rule="evenodd" d="M167.324 71.9527L168.053 73.8564L170.088 73.9611C170.495 73.9824 170.661 74.4935 170.345 74.7488L168.76 76.0302L169.288 77.9985C169.394 78.3914 168.959 78.7074 168.618 78.4858L166.909 77.3743L165.201 78.4858C164.859 78.7074 164.425 78.3914 164.531 77.9985L165.059 76.0302L163.475 74.7488C163.158 74.4935 163.324 73.9824 163.73 73.9611L165.767 73.8564L166.496 71.9527C166.64 71.5727 167.178 71.5727 167.324 71.9527Z" fill="white"/>
<path fill-rule="evenodd" clip-rule="evenodd" d="M171.79 87.8954H144.5C143.056 87.8954 141.885 86.7245 141.885 85.2809C141.885 83.8366 143.056 82.6664 144.5 82.6664H171.79C173.234 82.6664 174.405 83.8366 174.405 85.2809C174.405 86.7245 173.234 87.8954 171.79 87.8954Z" fill="#71D3BA"/>
<path fill-rule="evenodd" clip-rule="evenodd" d="M171.79 94.8864H144.5C143.056 94.8864 141.885 93.7155 141.885 92.2719C141.885 90.8276 143.056 89.6567 144.5 89.6567H171.79C173.234 89.6567 174.405 90.8276 174.405 92.2719C174.405 93.7155 173.234 94.8864 171.79 94.8864Z" fill="#71D3BA"/>
<path fill-rule="evenodd" clip-rule="evenodd" d="M156.28 101.877H144.5C143.056 101.877 141.886 100.706 141.886 99.2627C141.886 97.8185 143.056 96.6476 144.5 96.6476H156.28C157.724 96.6476 158.895 97.8185 158.895 99.2627C158.895 100.706 157.724 101.877 156.28 101.877Z" fill="#71D3BA"/>
<path fill-rule="evenodd" clip-rule="evenodd" d="M147.391 98.868H147.448C147.453 98.868 147.46 98.8687 147.466 98.8687C147.439 98.868 147.414 98.868 147.391 98.868H147.448H147.391ZM147.364 99.4573C147.561 99.4431 147.748 99.3649 147.896 99.2363C147.748 99.3649 147.561 99.4431 147.364 99.4573ZM147.766 99.6284C147.627 99.4229 147.411 99.4643 147.31 99.4591H146.778H146.77C146.607 99.4591 146.475 99.3266 146.475 99.1638V99.1631C146.475 99.01 146.59 98.884 146.74 98.8698C146.75 98.8685 146.76 98.8678 146.77 98.8678C146.771 98.8678 146.771 98.8685 146.772 98.8685L147.252 98.8678H147.305C147.706 98.8614 147.716 98.2585 147.319 98.2436L146.312 98.2442V100.225H147.448C147.757 100.225 147.936 99.8798 147.766 99.6284ZM147.448 100.817H146.016C146.006 100.817 145.996 100.817 145.986 100.816C145.873 100.805 145.78 100.73 145.74 100.627C145.727 100.595 145.721 100.559 145.721 100.522V97.949V97.9471V97.9451C145.721 97.7816 145.853 97.6492 146.016 97.6492H146.019H146.02H147.3C148.024 97.6492 148.456 98.4608 148.051 99.0611C148.048 99.0637 148.045 99.0676 148.043 99.0708C148.033 99.0863 148.022 99.1012 148.011 99.1154C148.022 99.1012 148.033 99.0863 148.043 99.0708C148.777 99.6382 148.372 100.817 147.448 100.817Z" fill="white"/>
<path fill-rule="evenodd" clip-rule="evenodd" d="M151.626 97.9289V99.6193H151.625C151.626 99.6245 151.626 99.6297 151.626 99.6348C151.626 100.336 150.97 100.891 150.248 100.892C149.525 100.891 148.876 100.333 148.876 99.6348C148.876 99.6297 148.876 99.6245 148.876 99.6193H148.876V97.9289C148.876 97.766 149.008 97.6335 149.171 97.6335C149.335 97.6335 149.467 97.766 149.467 97.9289C149.467 97.9314 149.466 97.934 149.466 97.9366V99.6193C149.466 99.6245 149.467 99.6297 149.467 99.6348C149.467 99.996 149.846 100.3 150.248 100.3H150.249C150.651 100.3 151.034 99.996 151.034 99.6361V99.6348C151.034 99.6297 151.035 99.6245 151.036 99.6193H151.035V97.9366C151.035 97.934 151.034 97.9314 151.034 97.9289C151.034 97.766 151.167 97.6335 151.33 97.6335C151.493 97.6335 151.626 97.766 151.626 97.9289Z" fill="white"/>
<path fill-rule="evenodd" clip-rule="evenodd" d="M153.324 99.4261C153.303 99.4558 153.291 99.4849 153.285 99.514C153.285 99.5114 153.286 99.5095 153.286 99.5069C153.286 99.5036 153.288 99.5011 153.289 99.4978C153.29 99.4952 153.29 99.4933 153.291 99.4914L153.289 99.4972C153.291 99.4914 153.293 99.4855 153.296 99.4797C153.294 99.4836 153.292 99.4875 153.291 99.4914C153.292 99.4875 153.294 99.483 153.296 99.4791C153.296 99.4771 153.297 99.4752 153.298 99.4739C153.298 99.4726 153.299 99.4726 153.299 99.472C153.299 99.4726 153.298 99.4726 153.298 99.4739C153.301 99.4655 153.305 99.4578 153.31 99.4506C153.308 99.4506 153.308 99.4513 153.308 99.4519C153.308 99.4506 153.31 99.45 153.31 99.4494C153.311 99.4487 153.312 99.4474 153.312 99.4461C153.313 99.4442 153.314 99.4429 153.314 99.4416C153.314 99.4422 153.313 99.4435 153.313 99.4448C153.316 99.439 153.319 99.4338 153.322 99.4287C153.321 99.4306 153.32 99.4319 153.319 99.4332C153.32 99.4313 153.321 99.4293 153.323 99.4274C153.323 99.4274 153.323 99.4267 153.324 99.4261ZM155.003 98.122L153.866 99.6864V100.493V100.511V100.521C153.866 100.669 153.758 100.791 153.616 100.814C153.615 100.814 153.614 100.814 153.613 100.815C153.607 100.815 153.602 100.816 153.596 100.817C153.587 100.817 153.579 100.818 153.571 100.818C153.562 100.818 153.554 100.817 153.545 100.817C153.539 100.816 153.534 100.815 153.529 100.815C153.527 100.814 153.526 100.814 153.525 100.814C153.383 100.791 153.275 100.669 153.275 100.522C153.275 100.518 153.275 100.515 153.275 100.511C153.275 100.505 153.275 100.498 153.275 100.493V99.594C153.274 99.6231 153.275 99.6535 153.275 99.6864L152.137 98.122H152.138C152.101 98.0735 152.081 98.0134 152.081 97.9488C152.081 97.7847 152.213 97.6528 152.376 97.6528C152.475 97.6528 152.562 97.7 152.615 97.775H152.616L153.571 99.0867L154.525 97.775C154.579 97.7 154.665 97.6528 154.764 97.6528C154.928 97.6528 155.06 97.7847 155.06 97.9488C155.06 98.0134 155.038 98.0735 155.003 98.122Z" fill="white"/>
<path fill-rule="evenodd" clip-rule="evenodd" d="M136.502 101.877H121.074C120.028 101.877 119.18 101.03 119.18 99.9846V84.5592C119.18 83.5137 120.028 82.6665 121.074 82.6665H136.502C137.547 82.6665 138.395 83.5137 138.395 84.5592V99.9846C138.395 101.03 137.547 101.877 136.502 101.877Z" fill="#71D3BA"/>
<path fill-rule="evenodd" clip-rule="evenodd" d="M132.036 85.0068C131.754 84.8737 131.446 84.8052 131.134 84.8052H130.523C130.523 84.8181 130.526 84.8297 130.526 84.842C130.526 85.8023 129.748 86.5809 128.788 86.5809C127.827 86.5809 127.049 85.8023 127.049 84.842C127.049 84.8297 127.053 84.8181 127.053 84.8052H126.441C126.129 84.8052 125.821 84.8737 125.539 85.0068L120.862 87.209L122.342 90.7231L124.266 89.9832V99.2225H133.31V89.9832L135.233 90.7231L136.712 87.209L132.036 85.0068Z" fill="#B8E8DC"/>
<path fill-rule="evenodd" clip-rule="evenodd" d="M191.965 38.2683C189.59 32.015 185.833 31.2157 180.643 31.2157H111.956C106.766 31.2157 103.009 32.015 100.634 38.2683L92.5718 59.167H200.028L191.965 38.2683Z" fill="#2E87BF"/>
<path fill-rule="evenodd" clip-rule="evenodd" d="M115.121 31.2156L107.473 59.1669H122.746L127.773 31.2156H115.121Z" fill="#4CB5D5"/>
<path fill-rule="evenodd" clip-rule="evenodd" d="M177.479 31.2156H164.826L169.853 59.1669H185.126L177.479 31.2156Z" fill="#4CB5D5"/>
<path fill-rule="evenodd" clip-rule="evenodd" d="M152.268 31.2156H140.331L137.924 59.1669H154.676L152.268 31.2156Z" fill="#4CB5D5"/>
<path fill-rule="evenodd" clip-rule="evenodd" d="M107.473 59.1667C107.473 63.0517 110.892 66.2013 115.11 66.2013C119.327 66.2013 122.746 63.0517 122.746 59.1667H107.473Z" fill="#38A0C1"/>
<path fill-rule="evenodd" clip-rule="evenodd" d="M137.924 59.1667C137.924 63.0517 141.667 66.2013 146.285 66.2013C150.902 66.2013 154.645 63.0517 154.645 59.1667H137.924Z" fill="#38A0C1"/>
<path fill-rule="evenodd" clip-rule="evenodd" d="M185.125 59.1667C185.125 63.0517 181.706 66.2013 177.489 66.2013C173.271 66.2013 169.852 63.0517 169.852 59.1667H185.125Z" fill="#38A0C1"/>
<path fill-rule="evenodd" clip-rule="evenodd" d="M122.746 59.1667C122.746 63.0517 126.144 66.2013 130.335 66.2013C134.527 66.2013 137.924 63.0517 137.924 59.1667H122.746Z" fill="#226CAF"/>
<path fill-rule="evenodd" clip-rule="evenodd" d="M92.5715 59.1667C92.5715 63.0517 95.9071 66.2013 100.022 66.2013C104.138 66.2013 107.474 63.0517 107.474 59.1667H92.5715Z" fill="#226CAF"/>
<path fill-rule="evenodd" clip-rule="evenodd" d="M169.853 59.1667C169.853 63.0517 166.455 66.2013 162.264 66.2013C158.073 66.2013 154.676 63.0517 154.676 59.1667H169.853Z" fill="#226CAF"/>
<path fill-rule="evenodd" clip-rule="evenodd" d="M200.028 59.1667C200.028 63.0517 196.692 66.2013 192.577 66.2013C188.462 66.2013 185.125 63.0517 185.125 59.1667H200.028Z" fill="#226CAF"/>
<path fill-rule="evenodd" clip-rule="evenodd" d="M228.231 16.7704C222.479 13.8024 215.409 16.0583 212.44 21.8101C210.721 25.1413 210.764 28.9093 212.214 32.0711L209.583 35.7945C209.408 36.0439 209.635 36.3787 209.932 36.3069L214.36 35.2433C215.241 36.1712 216.279 36.9777 217.481 37.5974C223.234 40.566 230.303 38.3095 233.271 32.5583C236.24 26.8065 233.983 19.7384 228.231 16.7704Z" stroke="#13B58C" stroke-width="0.8"/>
<path fill-rule="evenodd" clip-rule="evenodd" d="M228.901 25.087C228.674 23.6415 227.506 22.4557 226.062 22.2101C224.416 21.9303 222.949 22.8085 222.306 24.1546C221.664 22.8085 220.197 21.9297 218.55 22.2101C217.107 22.4563 215.937 23.6415 215.711 25.087C215.526 26.2721 215.937 27.3687 216.69 28.1222L221.667 33.0973C222.02 33.4508 222.593 33.4508 222.946 33.0973L227.922 28.1222C228.676 27.3687 229.087 26.2721 228.901 25.087Z" fill="#13B58C"/>
<path fill-rule="evenodd" clip-rule="evenodd" d="M240.634 59.4559C234.798 57.8527 228.485 60.5066 225.56 65.8035C223.285 69.9205 223.427 74.5453 225.334 78.2965L222.178 83.899C222.039 84.1446 222.279 84.4302 222.545 84.3365L228.426 82.2712C230.264 83.8783 232.568 85.0486 235.329 85.4305C241.039 86.2195 246.721 83.1727 249.174 77.9579C252.684 70.4969 248.676 61.6659 240.634 59.4559Z" stroke="#13B58C" stroke-width="0.8"/>
<path fill-rule="evenodd" clip-rule="evenodd" d="M231.203 79.8675H243.225V72.3696H231.203V79.8675Z" fill="#B8E8DC"/>
<path fill-rule="evenodd" clip-rule="evenodd" d="M235.339 79.8675H239.089V72.3696H235.339V79.8675Z" fill="#13B58C"/>
<path fill-rule="evenodd" clip-rule="evenodd" d="M231.203 73.2226H243.225V72.3696H231.203V73.2226Z" fill="#E7F7F3"/>
<path fill-rule="evenodd" clip-rule="evenodd" d="M237.215 68.9195C237.215 68.9195 234.055 68.8484 233.185 68.4607C232.314 68.0723 232.048 67.3563 232.322 66.7405C232.632 65.1709 234.879 64.1822 235.553 64.8562C237.318 66.7179 237.215 68.9195 237.215 68.9195Z" fill="#13B58C"/>
<path fill-rule="evenodd" clip-rule="evenodd" d="M237.215 68.9193C237.215 68.9193 234.055 68.8483 233.185 68.4605C232.314 68.0722 232.048 67.3562 232.322 66.7404C232.596 66.1252 233.306 65.8441 234.177 66.2312C235.048 66.6189 237.215 68.9193 237.215 68.9193Z" fill="#B8E8DC"/>
<path fill-rule="evenodd" clip-rule="evenodd" d="M237.217 68.9195C237.217 68.9195 240.377 68.8484 241.247 68.4607C242.118 68.0723 242.384 67.3563 242.109 66.7405C241.8 65.1709 239.552 64.1822 238.879 64.8562C237.113 66.7179 237.217 68.9195 237.217 68.9195Z" fill="#13B58C"/>
<path fill-rule="evenodd" clip-rule="evenodd" d="M237.217 68.9193C237.217 68.9193 240.376 68.8483 241.247 68.4605C242.118 68.0722 242.384 67.3562 242.109 66.7404C241.835 66.1252 241.125 65.8441 240.254 66.2312C239.384 66.6189 237.217 68.9193 237.217 68.9193Z" fill="#B8E8DC"/>
<path fill-rule="evenodd" clip-rule="evenodd" d="M230.43 72.4808H243.999V68.6805H230.43V72.4808Z" fill="#13B58C"/>
<path fill-rule="evenodd" clip-rule="evenodd" d="M237.942 68.1925C237.942 68.5938 237.616 68.9195 237.215 68.9195C236.813 68.9195 236.487 68.5938 236.487 68.1925C236.487 67.7906 236.813 67.4656 237.215 67.4656C237.616 67.4656 237.942 67.7906 237.942 68.1925Z" fill="#E7F7F3"/>
<path fill-rule="evenodd" clip-rule="evenodd" d="M86.1926 47.4218L83.9176 43.2202C84.5769 42.1501 85.0726 40.9546 85.357 39.6583C86.7181 33.4574 82.7943 27.3269 76.5923 25.966C70.3903 24.6045 64.2588 28.5282 62.8977 34.7291C61.5365 40.93 65.4603 47.0599 71.6623 48.4214C75.2551 49.2098 78.8234 48.2218 81.4552 46.0479L85.9432 47.7087C86.1196 47.7739 86.2825 47.5865 86.1926 47.4218Z" stroke="#13B58C" stroke-width="0.8"/>
<path fill-rule="evenodd" clip-rule="evenodd" d="M77.2724 40.5568C77.2724 41.2929 77.3577 41.784 77.5276 42.0315C77.6563 42.2221 77.8333 42.3171 78.0602 42.3171C78.2916 42.3171 78.4693 42.2247 78.5928 42.0386C78.7627 41.7865 78.8481 41.2929 78.8481 40.5568C78.8481 39.8208 78.7653 39.3271 78.6005 39.0751C78.4713 38.8896 78.2916 38.7966 78.0602 38.7966C77.8282 38.7966 77.6511 38.8896 77.5276 39.0751C77.3577 39.3271 77.2724 39.8208 77.2724 40.5568ZM75.5818 40.5646C75.5818 39.5507 75.8048 38.7992 76.2501 38.3107C76.6948 37.8215 77.3036 37.5772 78.0753 37.5772C78.8528 37.5772 79.4642 37.8215 79.9095 38.3107C80.3548 38.7992 80.5772 39.5507 80.5772 40.5646C80.5772 41.5837 80.3548 42.3371 79.9095 42.8263C79.4642 43.3155 78.8606 43.5597 78.0986 43.5597C77.3113 43.5597 76.6948 43.3155 76.2501 42.8263C75.8048 42.3371 75.5818 41.5837 75.5818 40.5646ZM71.6456 43.5365H71.6042C71.0852 43.5365 70.7472 42.9885 70.9818 42.5239L76.3074 31.9779C76.4257 31.7427 76.6667 31.5947 76.9298 31.5947C77.4488 31.5947 77.7862 32.1408 77.5541 32.6047L72.2699 43.1513C72.151 43.3872 71.9099 43.5365 71.6456 43.5365ZM69.6368 34.5667C69.6368 35.3027 69.7214 35.797 69.8914 36.049C70.02 36.2345 70.1978 36.3269 70.424 36.3269C70.656 36.3269 70.8363 36.2345 70.9643 36.049C71.1291 35.797 71.2118 35.3027 71.2118 34.5667C71.2118 33.8306 71.1291 33.3395 70.9643 33.0927C70.8363 32.9021 70.656 32.8064 70.424 32.8064C70.1978 32.8064 70.02 32.8995 69.8914 33.0849C69.7214 33.3369 69.6368 33.8306 69.6368 34.5667ZM67.946 34.5821C67.946 33.5689 68.1684 32.8173 68.6137 32.3282C69.059 31.839 69.6626 31.5947 70.424 31.5947C71.2119 31.5947 71.8278 31.8377 72.2737 32.3243C72.7184 32.8109 72.9414 33.563 72.9414 34.5821C72.9414 35.596 72.7184 36.3475 72.2737 36.836C71.8278 37.3252 71.2248 37.5695 70.4628 37.5695C69.6756 37.5695 69.059 37.3259 68.6137 36.8399C68.1684 36.354 67.946 35.6012 67.946 34.5821Z" fill="#13B58C"/>
<path fill-rule="evenodd" clip-rule="evenodd" d="M89.4221 194.122C89.4221 194.122 95.6203 195.939 95.6144 197.307C95.6112 198.091 86.5092 197.885 85.9605 197.354C85.0828 196.505 86.643 193.933 86.643 193.933L89.4221 194.122Z" fill="#142C5B"/>
<path fill-rule="evenodd" clip-rule="evenodd" d="M89.4222 190.299V194.24C89.4222 194.24 89.2031 194.876 88.2769 194.947C87.3501 195.019 86.7407 194.24 86.7407 194.24L86.6431 189.308" fill="#FC6360"/>
<path fill-rule="evenodd" clip-rule="evenodd" d="M84.8178 120.985C84.5392 121.402 78.9699 121.834 81.4886 144.805C81.8072 147.713 83.8987 155.408 85.932 163.111C82.8433 172.854 84.8578 181.895 86.0567 190.932C87.6803 191.096 90.4012 191.065 90.44 190.932C92.4714 183.977 97.6263 162.028 96.3751 135.792C95.8897 125.617 93.8739 117.811 93.8739 117.811" fill="#212121"/>
<path fill-rule="evenodd" clip-rule="evenodd" d="M82.8437 138.773L81.1775 141.571C81.2641 142.601 81.3636 143.668 81.4884 144.806C81.807 147.713 83.8991 155.408 85.9318 163.112C82.8437 172.854 84.8582 181.894 86.0571 190.932C86.5108 190.978 87.0505 191.008 87.5934 191.026C87.4687 188.426 87.0938 185.792 86.8683 183.213C86.2769 176.485 86.454 169.55 88.0135 162.937C88.0433 162.122 84.4717 144.27 82.8437 138.773Z" fill="#144168"/>
<path fill-rule="evenodd" clip-rule="evenodd" d="M85.9319 190.326H90.7088L90.4851 191.866H85.9319V190.326Z" fill="#4CB5D5"/>
<path fill-rule="evenodd" clip-rule="evenodd" d="M57.8469 190.186C57.8469 190.186 61.7887 195.301 60.9789 196.404C60.5149 197.037 53.2762 191.515 53.1456 190.763C52.9356 189.559 55.7108 188.398 55.7108 188.398L57.8469 190.186Z" fill="#142C5B"/>
<path fill-rule="evenodd" clip-rule="evenodd" d="M60.097 187.095L57.778 190.281C57.778 190.281 57.2254 190.667 56.4343 190.179C55.6439 189.692 55.6096 188.703 55.6096 188.703L58.4327 184.658" fill="#FC6360"/>
<path fill-rule="evenodd" clip-rule="evenodd" d="M70.0815 122.725C69.909 122.983 64.4729 130.466 68.1536 140.136C69.1153 144.569 68.9117 152.671 69.7151 159.089C58.4803 169.715 56.9395 187.324 56.9395 187.324C56.9395 187.324 58.3213 189.017 59.5751 189.017C80.6914 166.949 83.3542 153.549 83.899 136.564C84.2248 126.382 84.1821 118.602 84.1821 118.602" fill="#212121"/>
<path fill-rule="evenodd" clip-rule="evenodd" d="M56.9392 187.324L57.4433 187.967C57.4433 187.967 62.8504 172.395 65.6237 168.389C68.9509 163.585 72.7712 162.106 73.2637 158.779C73.7569 155.453 73.5106 145.227 72.0319 139.189C74.4969 139.189 76.9606 139.559 82.844 138.08C87.4871 136.913 93.8416 132.686 93.1675 132.012C92.6233 131.468 77.7142 125.314 71.3707 122.348L70.0813 122.725C69.9094 122.984 64.4733 130.466 68.1534 140.137C69.1151 144.569 68.9115 152.671 69.7155 159.09C58.48 169.714 56.9392 187.324 56.9392 187.324Z" fill="#144168"/>
<path fill-rule="evenodd" clip-rule="evenodd" d="M56.93 186.056L59.9761 188.861L58.8056 189.878L56.1279 187.43L56.93 186.056Z" fill="#4CB5D5"/>
<path fill-rule="evenodd" clip-rule="evenodd" d="M78.9113 77.6852C78.6566 78.354 78.4407 79.039 78.2979 79.7395C78.1428 80.4981 78.0756 81.302 78.3322 82.0322C78.7962 83.3563 80.3493 84.1485 81.7253 83.8732C83.1019 83.5973 84.1961 82.3702 84.4488 80.9899C84.5975 80.1841 84.4909 79.3556 84.3836 78.5434C84.2808 77.7615 84.1768 76.9796 84.074 76.197" fill="#AE263E"/>
<path fill-rule="evenodd" clip-rule="evenodd" d="M87.1562 72.7063C87.6733 72.7806 88.1438 73.0727 88.4928 73.4617C88.8412 73.8507 89.0758 74.3315 89.2361 74.8291C89.4855 75.6045 89.5618 76.4362 89.4584 77.2445C89.417 77.5625 89.3453 77.8856 89.1669 78.1525C88.9194 78.5227 88.4863 78.7424 88.0449 78.809C87.6035 78.8762 87.1524 78.8058 86.72 78.6953" fill="#142C5B"/>
<path fill-rule="evenodd" clip-rule="evenodd" d="M88.5746 77.8704C88.6418 78.6529 88.6399 79.4568 88.4027 80.2057C88.1661 80.9547 87.6691 81.6494 86.9562 81.9809C84.5836 83.0846 81.0922 81.3411 80.3257 78.8959C79.7602 77.093 79.3782 74.8675 80.3076 73.1137C81.2383 71.3548 83.6846 70.2104 85.6093 70.8527C88.5668 71.8394 88.3568 75.3483 88.5746 77.8704Z" fill="#FFCDC4"/>
<path fill-rule="evenodd" clip-rule="evenodd" d="M85.0195 80.9903C85.0195 80.9903 85.5624 84.673 85.7149 84.892C85.8674 85.1104 87.4231 85.3708 87.4231 85.3708C87.4231 85.3708 86.7535 86.8907 84.5251 86.8907C82.409 86.8907 80.7771 85.2054 80.7771 85.2054C80.7771 85.2054 82.6979 84.9728 82.7083 84.7078C82.718 84.4436 82.8918 79.9686 82.8918 79.9686" fill="#FFCDC4"/>
<path fill-rule="evenodd" clip-rule="evenodd" d="M89.8425 70.1203C89.783 69.7216 89.6409 69.3371 89.4146 69.0024C89.3532 68.9119 89.2854 68.824 89.1923 68.7672C89.0146 68.6586 88.7599 68.6082 88.5809 68.7155C87.7698 69.1982 87.6295 69.3655 85.5652 69.268C84.3288 68.877 82.0661 68.72 80.8736 69.2305C80.1259 69.5504 79.4447 70.0725 78.9896 70.751C78.7615 71.0909 78.6141 71.4547 78.5133 71.8495C78.4041 72.2793 78.132 72.5009 77.9077 72.8893C76.7469 74.8996 77.7604 76.7089 78.5993 78.5752C78.7673 79.6356 79.2857 80.3787 79.8654 80.6792C80.7075 81.1167 81.191 80.0556 81.2285 79.4223C81.2407 79.211 81.189 79.0023 81.1373 78.7975C80.9984 78.2411 80.8594 77.6847 80.7198 77.1283C80.7592 77.0986 80.8013 77.0721 80.8381 77.0379C81.3396 76.5707 81.3855 75.7875 81.2446 75.1167C81.1761 74.7904 81.0359 74.267 81.2304 73.9548C81.4204 73.6505 81.8884 73.6938 82.218 73.6893C83.1331 73.677 84.0335 73.8941 84.9467 73.9225C85.8851 73.951 86.83 73.7765 87.6968 73.4146C88.2978 73.1626 88.873 72.8117 89.2809 72.3032C89.7656 71.6983 89.9563 70.8848 89.8425 70.1203Z" fill="#142C5B"/>
<path fill-rule="evenodd" clip-rule="evenodd" d="M81.1993 77.1532C81.1987 76.9949 81.0675 76.8624 80.9201 76.8049C80.5621 76.6653 80.1355 76.9031 79.9739 77.252C79.8117 77.6003 79.8666 78.0165 80.0146 78.3713C80.2409 78.9141 80.7366 79.3923 81.3241 79.3994C81.5949 79.4026 81.7293 79.2016 81.8528 78.9606" fill="#FFCDC4"/>
<path fill-rule="evenodd" clip-rule="evenodd" d="M85.3417 69.2032C85.3417 69.2032 82.1703 69.7499 79.9948 73.7453C78.3725 76.7249 78.5994 78.575 78.5994 78.575C78.5994 78.575 75.404 76.4141 77.4832 71.7079C79.2858 67.6265 83.8313 68.2959 85.3417 69.2032Z" fill="#CC3E56"/>
<path fill-rule="evenodd" clip-rule="evenodd" d="M83.9319 76.5174C83.8964 76.5626 83.8666 76.5982 83.8524 76.6544C83.8453 76.6789 83.8414 76.7035 83.8369 76.7281C83.824 76.7966 83.8136 76.8651 83.8143 76.9348C83.8149 76.9859 83.8175 77.0369 83.8227 77.0873C83.833 77.1946 83.8356 77.3174 83.9222 77.3943C83.9881 77.4518 84.0592 77.4796 84.1458 77.468C84.2215 77.4576 84.3068 77.4143 84.3404 77.3407C84.3688 77.2786 84.385 77.2282 84.3759 77.1597C84.3733 77.1365 84.3701 77.1184 84.3643 77.0964C84.3585 77.0738 84.3527 77.0505 84.3488 77.0279C84.3384 76.9814 84.3307 76.9348 84.3242 76.8877L84.3339 76.9568C84.3262 76.8993 84.3223 76.8418 84.3113 76.7856C84.3035 76.7487 84.2977 76.7126 84.2932 76.6757C84.2951 76.6957 84.2984 76.7164 84.301 76.7371C84.2964 76.7048 84.2964 76.6686 84.2867 76.6389C84.2777 76.6111 84.2641 76.584 84.2493 76.5581C84.2176 76.5032 84.1626 76.4702 84.1019 76.4618C84.0444 76.4541 83.9707 76.4683 83.9319 76.5174Z" fill="#1E1240"/>
<path fill-rule="evenodd" clip-rule="evenodd" d="M87.3848 76.2038C87.3492 76.249 87.3195 76.2846 87.3046 76.3408C87.2982 76.3653 87.2943 76.3899 87.2898 76.4145C87.2769 76.483 87.2665 76.5515 87.2672 76.6212C87.2678 76.6723 87.2704 76.7233 87.2756 76.7737C87.2859 76.8817 87.2878 77.0038 87.3751 77.0807C87.441 77.1382 87.5121 77.166 87.5987 77.1544C87.6743 77.144 87.759 77.1007 87.7933 77.0271C87.8217 76.965 87.8379 76.9146 87.8288 76.8461C87.8262 76.8235 87.823 76.8048 87.8172 76.7834C87.8114 76.7602 87.8055 76.7369 87.8017 76.7143C87.7913 76.6678 87.7836 76.6212 87.7771 76.5741C87.7803 76.5967 87.7836 76.62 87.7862 76.6432C87.779 76.5857 87.7752 76.5282 87.7642 76.472C87.7564 76.4351 87.7506 76.399 87.7461 76.3621C87.748 76.3822 87.7506 76.4028 87.7538 76.4235C87.7493 76.3918 87.7493 76.355 87.7396 76.3253C87.7306 76.2975 87.717 76.271 87.7021 76.2445C87.6705 76.1896 87.6155 76.1566 87.5548 76.1482C87.4973 76.1405 87.4236 76.1547 87.3848 76.2038Z" fill="#1E1240"/>
<path fill-rule="evenodd" clip-rule="evenodd" d="M83.7821 75.1013C83.1139 75.0645 82.7151 75.6486 82.7151 75.6486C82.7151 75.6486 83.5708 75.3113 84.3483 75.3436C84.2591 75.0994 83.9832 75.1123 83.7821 75.1013Z" fill="#1E1240"/>
<path fill-rule="evenodd" clip-rule="evenodd" d="M87.4039 74.7702C87.243 74.7786 87.0316 74.8374 86.9812 75.0895C87.5842 74.9447 88.2001 75.0707 88.2001 75.0707C88.2001 75.0707 87.9436 74.7431 87.4039 74.7702Z" fill="#1E1240"/>
<path opacity="0.315267" fill-rule="evenodd" clip-rule="evenodd" d="M86.7076 77.2476C86.7321 77.3956 86.7509 77.5429 86.7903 77.6877C86.8304 77.8389 86.8769 77.9869 86.9234 78.1361C86.968 78.279 87.01 78.4231 87.0475 78.5678C87.0811 78.6932 87.1451 78.8521 87.118 78.9827C87.1115 79.0143 87.1031 79.0337 87.0934 79.046C87.0792 79.0628 87.0727 79.0712 87.0501 79.0815C87.0637 79.0757 86.9926 79.097 86.9932 79.097C86.9784 79.0996 86.9247 79.1009 86.8943 79.099C86.8168 79.0951 86.769 79.0867 86.6862 79.0705C86.6022 79.0537 86.5195 79.0318 86.4374 79.0072C86.3579 78.984 86.2791 78.9516 86.197 78.9361C86.1517 78.9284 86.0942 78.92 86.0477 78.9323C86.0393 78.9342 86.0315 78.94 86.0231 78.942C85.9831 78.9516 86.0348 78.9381 86.0083 78.9439C85.996 78.9465 85.985 78.9497 85.9727 78.9523C85.9145 78.9678 85.8984 79.0415 85.9391 79.0835C85.9811 79.1274 86.0173 79.1759 86.0884 79.2134C86.1711 79.2579 86.2648 79.2831 86.354 79.3109C86.5324 79.3659 86.7231 79.4182 86.9105 79.4027C87.0844 79.3885 87.2647 79.3219 87.3468 79.1565C87.4056 79.0376 87.4036 78.9071 87.3797 78.7791C87.3474 78.6105 87.2989 78.4437 87.2511 78.279C87.1968 78.0909 87.1432 77.9003 87.0656 77.72C86.9881 77.5397 86.8963 77.3782 86.7909 77.2127C86.7619 77.1668 86.6992 77.1979 86.7076 77.2476Z" fill="#CE4545"/>
<path fill-rule="evenodd" clip-rule="evenodd" d="M87.1 80.1131C86.9015 80.0717 86.7975 80.3353 86.3257 80.3173C85.6697 80.292 85.6535 80.0769 85.532 80.1563C85.4112 80.2352 85.4461 81.2032 86.2572 81.2562C87.2615 81.3208 87.2021 80.1344 87.1 80.1131Z" fill="white"/>
<path fill-rule="evenodd" clip-rule="evenodd" d="M116.425 120.813C116.615 121.537 117.826 121.281 118.258 121.306C118.18 121.402 118.409 121.741 118.494 121.823C118.7 122.022 118.907 122.118 119.195 122.178C119.389 122.22 119.671 122.107 119.84 121.982C120.004 121.861 120.184 121.679 120.217 121.482C120.237 121.369 120.529 121.442 120.379 121.045C120.414 121.055 120.963 121.325 121.102 121.544C121.179 121.664 121.817 122.309 122.058 122.207C122.299 122.104 121.785 121.449 121.505 121.069C121.244 120.714 120.751 120.274 120.124 120.024C120.386 119.942 120.837 120.195 121.09 119.862C121.342 119.529 120.009 119.261 119.392 119.204C118.489 119.12 117.126 119.266 117.126 119.266L113.843 117.375C113.843 117.375 111.82 119.624 112.014 119.663C112.208 119.701 116.425 120.813 116.425 120.813Z" fill="#FFCDC4"/>
<path fill-rule="evenodd" clip-rule="evenodd" d="M87.4229 85.3707C87.4229 85.3707 92.9799 85.3707 97.4847 93.2621C100.767 99.0113 101.196 103.33 102.619 105.064C106.238 109.475 116.538 118.884 116.538 118.884L115.563 120.647C115.563 120.647 103.853 119.296 94.0993 109.919C87.7997 103.861 85.1731 96.4052 85.1731 96.4052" fill="#B8E8DC"/>
<path fill-rule="evenodd" clip-rule="evenodd" d="M84.8152 87.2617C84.8152 87.2617 94.4782 119.783 96.2872 127.725C96.3751 128.705 97.0686 131.175 96.381 132.339C95.0515 134.588 79.169 140.328 66.9738 133.552C66.3992 132.798 66.4522 130.261 66.9738 128.705C66.9479 125.939 82.7903 86.726 84.8152 87.2617Z" fill="#B8E8DC"/>
<path fill-rule="evenodd" clip-rule="evenodd" d="M83.8987 86.8385C83.8987 86.8385 86.7451 86.6104 88.0131 85.4957C89.8609 85.939 92.4035 89.8776 93.2172 92.6562C95.6144 100.847 95.8309 117.813 96.2872 125.834C96.3602 127.126 96.5619 128.609 95.9085 129.793C94.853 131.703 91.913 132.563 89.9702 133.122C85.3826 134.442 80.4119 134.682 75.7087 133.909C73.3936 133.528 70.8167 133.34 68.7143 132.113C66.0689 130.569 66.7579 128.281 66.734 125.635C66.7081 122.869 66.7986 122.067 66.9654 119.307C67.4682 110.975 68.5928 102.652 70.1969 94.4617C70.2751 94.0617 70.354 93.6617 70.4386 93.2624C71.0281 92.1264 77.0627 85.5067 77.0627 85.5067C77.0627 85.5067 78.8478 85.2973 80.7764 85.2056C81.879 85.9881 83.0036 86.602 83.8987 86.8385Z" fill="#13B58C"/>
<path fill-rule="evenodd" clip-rule="evenodd" d="M84.6448 87.0548C83.1157 87.0548 81.54 86.5094 80.3171 85.2299L81.1457 85.1104C82.1378 86.0467 83.2811 86.3995 84.6448 86.3995C84.6578 86.3995 84.6707 86.3995 84.6843 86.3995C85.8328 86.3911 86.7615 86.0441 87.2811 85.3314L88.0134 85.4955C87.5235 86.4906 86.0441 87.0438 84.6894 87.0541C84.6746 87.0541 84.6591 87.0548 84.6448 87.0548Z" fill="#FF8F8F"/>
<path fill-rule="evenodd" clip-rule="evenodd" d="M14.4631 155.468L11.1663 186.392L41.1157 186.29L38.0832 155.389L14.4631 155.468Z" fill="#71D3BA"/>
<path fill-rule="evenodd" clip-rule="evenodd" d="M25.8588 148.432C27.1514 148.432 28.2152 148.893 29.0231 149.805C31.1398 152.192 30.7132 156.824 30.6938 157.02C30.6705 157.263 30.4708 157.441 30.2362 157.415C30.0074 157.39 29.8413 157.172 29.8652 156.928C29.8691 156.884 30.2692 152.502 28.4156 150.412C27.7253 149.635 26.7772 149.265 25.6203 149.326C24.3923 149.387 23.4073 149.866 22.6925 150.752C20.9197 152.947 21.2874 156.919 21.2906 156.959C21.3145 157.204 21.1484 157.422 20.919 157.447C20.6928 157.477 20.4853 157.295 20.4614 157.052C20.444 156.873 20.0549 152.656 22.0597 150.173C22.9303 149.094 24.1157 148.511 25.5821 148.439C25.6759 148.435 25.7683 148.432 25.8588 148.432Z" fill="#4FB399"/>
<path fill-rule="evenodd" clip-rule="evenodd" d="M26.5062 164.535L24.1763 186.391L45.3443 186.32L43.2011 164.479L26.5062 164.535Z" fill="#B8E8DC"/>
<path fill-rule="evenodd" clip-rule="evenodd" d="M34.5602 159.561C35.4741 159.561 36.2257 159.888 36.7971 160.532C38.2926 162.219 37.9915 165.494 37.9779 165.632C37.9617 165.804 37.8202 165.93 37.6541 165.911C37.4932 165.893 37.3749 165.74 37.3917 165.567C37.3949 165.536 37.6773 162.438 36.3673 160.962C35.88 160.412 35.2097 160.151 34.3921 160.194C33.5242 160.236 32.8274 160.575 32.3227 161.201C31.0695 162.753 31.3293 165.561 31.3312 165.589C31.3487 165.762 31.231 165.916 31.0695 165.933C30.9092 165.955 30.7625 165.826 30.7457 165.654C30.7334 165.528 30.4581 162.547 31.8754 160.792C32.4907 160.03 33.3283 159.618 34.365 159.567C34.4309 159.563 34.4962 159.561 34.5602 159.561Z" fill="#4FB399"/>
<path fill-rule="evenodd" clip-rule="evenodd" d="M37.0151 195.638C37.0151 198.047 38.9683 200 41.3784 200C43.7878 200 45.7416 198.047 45.7416 195.638C45.7416 193.228 43.7878 191.275 41.3784 191.275C38.9683 191.275 37.0151 193.228 37.0151 195.638Z" fill="#71D3BA"/>
<path fill-rule="evenodd" clip-rule="evenodd" d="M39.3486 195.637C39.3486 196.758 40.2573 197.667 41.378 197.667C42.4994 197.667 43.4081 196.758 43.4081 195.637C43.4081 194.517 42.4994 193.608 41.378 193.608C40.2573 193.608 39.3486 194.517 39.3486 195.637Z" fill="#4FB399"/>
<path fill-rule="evenodd" clip-rule="evenodd" d="M8.64868 195.638C8.64868 198.047 10.6018 200 13.0119 200C15.4214 200 17.3752 198.047 17.3752 195.638C17.3752 193.228 15.4214 191.275 13.0119 191.275C10.6018 191.275 8.64868 193.228 8.64868 195.638Z" fill="#71D3BA"/>
<path fill-rule="evenodd" clip-rule="evenodd" d="M10.9824 195.637C10.9824 196.758 11.8911 197.667 13.0118 197.667C14.1332 197.667 15.0413 196.758 15.0413 195.637C15.0413 194.517 14.1332 193.608 13.0118 193.608C11.8911 193.608 10.9824 194.517 10.9824 195.637Z" fill="#4FB399"/>
<path fill-rule="evenodd" clip-rule="evenodd" d="M55.0204 152.572H1.49616L10.043 186.391H46.259L55.0204 152.572ZM8.89771 187.207L0.0199789 152.078C-0.029787 151.882 0.0148084 151.674 0.138254 151.515C0.262346 151.356 0.453007 151.263 0.655303 151.263H55.3597L57.6522 142.412C58.8834 137.519 62.612 134.231 66.9313 134.231H68.3079C68.6692 134.231 68.9626 134.523 68.9626 134.886C68.9626 135.248 68.6692 135.541 68.3079 135.541H66.9313C63.2228 135.541 60.0041 138.43 58.9216 142.737L47.4004 187.211C47.3254 187.499 47.0643 187.7 46.7664 187.7H9.53303C9.2325 187.7 8.97074 187.497 8.89771 187.207Z" fill="#212121"/>
<path fill-rule="evenodd" clip-rule="evenodd" d="M2.8742 161.355H53.3944C53.7557 161.355 54.0491 161.062 54.0491 160.7C54.0491 160.338 53.7557 160.045 53.3944 160.045H2.8742C2.51226 160.045 2.21948 160.338 2.21948 160.7C2.21948 161.062 2.51226 161.355 2.8742 161.355Z" fill="#212121"/>
<path fill-rule="evenodd" clip-rule="evenodd" d="M5.09392 170.137H51.1992C51.5611 170.137 51.8545 169.844 51.8545 169.482C51.8545 169.12 51.5611 168.828 51.1992 168.828H5.09392C4.73199 168.828 4.43921 169.12 4.43921 169.482C4.43921 169.844 4.73199 170.137 5.09392 170.137Z" fill="#212121"/>
<path fill-rule="evenodd" clip-rule="evenodd" d="M7.39633 178.919H48.6775C49.0394 178.919 49.3322 178.626 49.3322 178.264C49.3322 177.903 49.0394 177.609 48.6775 177.609H7.39633C7.03439 177.609 6.74097 177.903 6.74097 178.264C6.74097 178.626 7.03439 178.919 7.39633 178.919Z" fill="#212121"/>
<path fill-rule="evenodd" clip-rule="evenodd" d="M39.6446 187.701C39.9678 187.701 40.2496 187.461 40.2929 187.132L44.9282 152.003C44.9761 151.645 44.7233 151.316 44.3646 151.269C44.0098 151.222 43.677 151.473 43.6304 151.831L38.9944 186.96C38.9473 187.319 39.1993 187.648 39.558 187.695C39.5871 187.699 39.6162 187.701 39.6446 187.701Z" fill="#212121"/>
<path fill-rule="evenodd" clip-rule="evenodd" d="M31.1029 187.701C31.4448 187.701 31.733 187.436 31.7556 187.089L34.0733 151.96C34.0972 151.6 33.8232 151.287 33.4632 151.264C33.1039 151.242 32.7904 151.514 32.7658 151.875L30.4482 187.003C30.4249 187.364 30.6983 187.676 31.0589 187.699C31.0738 187.7 31.0887 187.701 31.1029 187.701Z" fill="#212121"/>
<path fill-rule="evenodd" clip-rule="evenodd" d="M15.9077 187.701C15.9367 187.701 15.9652 187.699 15.9943 187.695C16.353 187.648 16.605 187.319 16.5578 186.96L11.9225 151.831C11.8753 151.473 11.5444 151.222 11.1876 151.269C10.8296 151.316 10.5769 151.645 10.6247 152.003L15.2594 187.132C15.3027 187.461 15.5845 187.701 15.9077 187.701Z" fill="#212121"/>
<path fill-rule="evenodd" clip-rule="evenodd" d="M23.5204 187.701C23.5346 187.701 23.5495 187.7 23.5643 187.699C23.925 187.676 24.1984 187.364 24.1745 187.003L21.8568 151.875C21.8329 151.513 21.5207 151.247 21.1601 151.264C20.7994 151.287 20.5254 151.6 20.5493 151.96L22.867 187.089C22.8902 187.436 23.1779 187.701 23.5204 187.701Z" fill="#212121"/>
<path fill-rule="evenodd" clip-rule="evenodd" d="M41.3777 196.292C41.4204 196.292 41.4643 196.288 41.5083 196.279C41.8625 196.207 42.0919 195.862 42.0202 195.507L40.2855 186.916C40.2144 186.562 39.8693 186.329 39.5138 186.404C39.1596 186.476 38.9302 186.821 39.0019 187.176L40.7366 195.767C40.7993 196.078 41.0727 196.292 41.3777 196.292Z" fill="#212121"/>
<path fill-rule="evenodd" clip-rule="evenodd" d="M13.0122 196.292C13.2856 196.292 13.5409 196.12 13.6327 195.847L16.5294 187.255C16.6451 186.912 16.4609 186.541 16.1177 186.426C15.7752 186.309 15.4035 186.493 15.2879 186.837L12.3917 195.428C12.276 195.77 12.4602 196.143 12.8034 196.257C12.8726 196.281 12.943 196.292 13.0122 196.292Z" fill="#212121"/>
<path fill-rule="evenodd" clip-rule="evenodd" d="M66.6606 136.553H77.0385C77.9588 136.553 78.7059 135.806 78.7059 134.885C78.7059 133.964 77.9588 133.218 77.0385 133.218H66.6606V136.553Z" fill="#212121"/>
<path fill-rule="evenodd" clip-rule="evenodd" d="M68.9625 130.684C68.9625 130.684 68.4461 133.046 68.6937 134.153C68.8158 134.701 69.234 135.789 69.6347 136.136C70.0354 136.483 70.8213 137.402 72.0642 137.078C73.307 136.754 76.0745 137.5 73.1041 133.218C72.7577 132.718 70.4678 129.601 70.4678 129.601L68.6478 125.545L65.5442 126.903L68.9625 130.684Z" fill="#FFCDC4"/>
<path fill-rule="evenodd" clip-rule="evenodd" d="M66.2629 110.341C67.3086 107.883 73.8073 100.077 74.7923 99.416C76.1928 98.4751 76.9956 97.6428 78.1557 96.3349C81.3911 92.6891 81.7602 85.8704 78.0788 85.524C70.5667 84.8171 57.2915 99.7061 57.1124 110.341C56.9534 119.776 67.1393 130.278 68.8372 131.345C68.8372 131.345 71.6273 131.387 71.2628 130.684C70.8976 129.982 65.5449 112.027 66.2629 110.341Z" fill="#B8E8DC"/>
<path fill-rule="evenodd" clip-rule="evenodd" d="M203.804 78.6895C206.46 75.5561 210.012 75.7448 212.433 77.1567C215.607 79.0081 216.439 82.5363 215.363 86.1363" fill="#FFEAE3"/>
<path fill-rule="evenodd" clip-rule="evenodd" d="M215.796 82.786C213.76 81.1582 207.771 78.1883 204.739 77.756C204.418 78.0287 204.104 78.335 203.804 78.6897L215.363 86.1365C215.704 84.9953 215.852 83.8619 215.796 82.786Z" fill="#F9A08F"/>
<path fill-rule="evenodd" clip-rule="evenodd" d="M215.952 84.3607C215.506 83.9168 215.041 83.4935 214.561 83.0909C212.151 81.0755 209.362 79.5627 206.502 78.2626C203.817 77.0412 201.938 76.09 198.999 75.8464C197.298 75.7049 194.46 76.0067 193.585 77.7559C192.596 79.7333 193.534 82.3659 194.921 83.7287C196.534 85.3145 198.807 87.0172 200.725 88.2153C205.392 91.1277 211.135 94.9797 218.924 94.972C219.765 94.9707 220.272 93.9219 220.401 93.0909C220.531 92.2599 220.32 91.4127 220.039 90.6192C219.2 88.2489 217.737 86.141 215.952 84.3607Z" fill="#FFEAE3"/>
<path fill-rule="evenodd" clip-rule="evenodd" d="M219.615 97.6481C220.152 99.409 220.078 101.357 219.222 102.996C218.073 105.2 215.677 106.672 213.196 106.789C211.657 106.862 210.588 106.181 209.234 105.626C207.889 105.075 206.68 104.488 205.59 103.49C205.243 103.171 204.898 102.814 204.447 102.676C203.929 102.516 203.375 102.672 202.836 102.729C199.019 103.127 197.834 101.689 196.759 98.3105C195.656 94.8417 196.286 90.9839 197.831 87.7981C199.178 85.0201 201.175 81.8725 203.408 80.4004C206.293 79.8285 210.662 82.7616 213.323 85.4227C213.709 86.7732 213.915 88.1949 214.329 89.5319C215.153 92.1916 217.282 93.4795 218.704 95.6791C219.096 96.2866 219.403 96.9528 219.615 97.6481Z" fill="#142C5B"/>
<path fill-rule="evenodd" clip-rule="evenodd" d="M209.444 132.101C209.473 132.683 206.76 155.603 207.856 166.019C208.647 173.537 206.729 185.896 206.58 191.12C206.187 192.038 204.26 191.292 204.26 191.292C204.26 191.292 199.169 165.237 197.28 154.448C195.73 145.602 194.862 129.629 198.19 119.587" fill="#FFCDC4"/>
<path opacity="0.127976" fill-rule="evenodd" clip-rule="evenodd" d="M207.855 166.02C207.534 162.965 207.541 158.834 207.709 154.509C205.935 156.041 204.314 157.751 202.893 159.616C202.253 160.456 201.628 161.393 201.597 162.449C201.545 164.213 202.536 163.974 203.711 165.291C205.991 167.845 207.08 169.983 207.679 178.098V178.098C208.016 173.82 208.213 169.424 207.855 166.02Z" fill="#F25151"/>
<path fill-rule="evenodd" clip-rule="evenodd" d="M207.061 191.688C207.061 191.688 207.528 192.555 207.493 192.945C207.398 194.006 207.337 194.729 207.337 194.729L206.784 194.757L206.619 193.89C206.619 193.89 205.147 194.096 203.631 194.906C202.898 195.299 199.593 195.226 199.041 194.976C198.423 194.695 198.617 194.199 198.833 193.996C199.048 193.794 202.694 192.401 202.694 192.401" fill="#212121"/>
<path fill-rule="evenodd" clip-rule="evenodd" d="M204.825 190.123C204.488 190.762 200.064 193.34 200.344 193.532C200.624 193.723 202.103 193.759 204.121 193.214C205.96 192.718 207.009 192.155 207.079 191.757L206.456 189.909" fill="#FFCDC4"/>
<path fill-rule="evenodd" clip-rule="evenodd" d="M244.833 176.383C244.833 176.383 245.778 176.662 246.031 176.96C246.719 177.773 247.189 178.326 247.189 178.326L246.821 178.738L246.089 178.246C246.089 178.246 245.2 179.438 244.712 181.085C244.475 181.883 242.1 184.182 241.534 184.398C240.9 184.641 240.684 184.153 240.691 183.858C240.699 183.563 242.27 179.991 242.27 179.991" fill="#212121"/>
<path fill-rule="evenodd" clip-rule="evenodd" d="M216.43 129.788C216.644 130.33 220.474 151.448 226.74 156.845C232.467 161.78 240.478 172.549 244.091 176.328C244.467 177.252 242.582 178.098 242.582 178.098C242.582 178.098 218.786 165.312 211.463 157.165C205.46 150.484 200.912 132.115 200.849 121.536" fill="#FFCDC4"/>
<path opacity="0.127976" fill-rule="evenodd" clip-rule="evenodd" d="M226.741 156.845C226.409 156.56 226.086 156.222 225.769 155.855C223.73 157.271 221.879 158.958 220.296 160.871C223.106 161.111 226.017 160.246 228.713 161.072C229.702 161.376 230.609 161.894 231.49 162.436C232.077 162.797 232.661 163.172 233.244 163.549C230.987 160.97 228.727 158.556 226.741 156.845Z" fill="#F25151"/>
<path fill-rule="evenodd" clip-rule="evenodd" d="M242.147 176.874C242.366 177.563 241.09 182.522 241.423 182.458C241.757 182.392 242.821 181.365 243.852 179.548C244.791 177.891 245.129 176.75 244.895 176.419L243.167 175.537" fill="#FFCDC4"/>
<path fill-rule="evenodd" clip-rule="evenodd" d="M198.199 115.906C192.516 122.878 193.325 145.717 193.689 162.781C199.234 165.146 207.732 166.296 214.306 165.136C220.879 163.976 224.508 161.323 229.711 157.142C225.721 134.145 222.05 122.021 209.961 115.906" fill="#13B58C"/>
<path opacity="0.127976" fill-rule="evenodd" clip-rule="evenodd" d="M209.962 115.906L202.213 115.677L200.34 118.12C208.574 120.886 213.745 124.073 218.375 130.218C222.754 136.03 225.347 144.95 228.78 151.971C225.098 132.3 221.109 121.544 209.962 115.906Z" fill="#AE263E"/>
<path fill-rule="evenodd" clip-rule="evenodd" d="M233.404 119.286L244.535 110.655L254.567 128.288L243.372 140.859L236.242 140.749L233.404 119.286Z" fill="#B8E8DC"/>
<path d="M238.122 106.216C241.242 107.3 243.263 113.804 243.263 113.804" stroke="#1E1240" stroke-width="0.8" stroke-linecap="round" stroke-linejoin="round"/>
<path fill-rule="evenodd" clip-rule="evenodd" d="M223.916 110.871C223.916 110.871 227.972 112.75 230.872 112.416C237.778 111.621 246.013 107.81 246.013 107.81L244.727 106.311C244.727 106.311 230.956 107.31 229.568 106.953C228.405 106.654 222.05 102.322 222.05 102.322" fill="#FFCDC4"/>
<path fill-rule="evenodd" clip-rule="evenodd" d="M243.828 106.806C245.011 105.7 246.363 104.773 247.822 104.069C247.978 103.994 248.214 103.945 248.294 104.083C248.373 104.221 247.886 104.563 247.654 104.774C248.617 104.363 250.652 103.792 250.68 104.06C250.707 104.328 248.965 104.849 248.108 105.242C249.129 104.989 251.163 104.393 251.217 104.751C251.271 105.11 249.268 105.49 248.294 105.86C249.275 105.739 251.128 105.538 251.251 105.752C251.375 105.966 250.891 106.012 250.74 106.045C249.973 106.21 249.331 106.304 248.563 106.469C249.397 106.436 251.114 106.502 251.024 106.834C250.934 107.167 249.235 106.853 247.55 107.713C247 107.994 246.418 108.257 245.801 108.286C245.22 108.313 244.632 108.083 244.224 107.668" fill="#FFCDC4"/>
<path fill-rule="evenodd" clip-rule="evenodd" d="M247.515 105.102C247.098 105.361 246.957 105.821 246.773 106.249C246.674 106.479 246.554 106.696 246.374 106.873C246.201 107.046 245.973 107.178 245.741 107.253C245.679 107.272 245.704 107.359 245.766 107.348C246.262 107.262 246.631 106.934 246.845 106.488C247.061 106.04 247.169 105.497 247.557 105.156C247.586 105.13 247.548 105.082 247.515 105.102Z" fill="#CE4545"/>
<path d="M238.122 106.216C232.422 104.904 234.75 115.906 236.654 118.945" stroke="#1E1240" stroke-width="0.8" stroke-linecap="round" stroke-linejoin="round"/>
<path fill-rule="evenodd" clip-rule="evenodd" d="M236.242 140.748L233.404 119.286L243.372 140.859L236.242 140.748Z" fill="#71D3BA"/>
<path fill-rule="evenodd" clip-rule="evenodd" d="M196.141 103.731C183.399 109.912 175.765 108.325 166.65 103.385L165.776 101.94C165.776 101.94 178.728 103.226 183.395 101.424C187.612 99.7956 193.63 97.6851 198.094 96.0839" fill="#FFCDC4"/>
<path fill-rule="evenodd" clip-rule="evenodd" d="M165.393 103.329C164.984 103.692 164.491 103.573 164.335 103.52C163.979 103.399 163.736 103.2 163.453 102.918C163.403 103.063 163.226 103.117 163.073 103.133C162.876 103.155 162.676 103.147 162.482 103.113C162.337 103.087 162.192 103.043 162.078 102.951C161.983 102.873 161.578 102.523 161.934 102.373C161.842 102.268 161.779 102.128 161.799 101.988C161.821 101.849 161.945 101.723 162.086 101.731C161.986 101.685 161.922 101.574 161.932 101.465C161.941 101.361 161.976 101.156 162.355 101.103C162.132 101.022 161.777 100.959 161.549 101.032C161.42 101.074 160.565 101.158 160.452 100.937C160.339 100.716 161.109 100.551 161.542 100.444C161.947 100.343 162.572 100.321 163.18 100.518C163.038 100.3 162.557 100.212 162.575 99.8163C162.593 99.4214 163.725 100.033 164.208 100.364C164.916 100.849 165.819 101.78 165.819 101.78L171.411 102.311C171.411 102.311 176.21 107.154 176.046 107.065C172.988 106.827 165.393 103.329 165.393 103.329Z" fill="#FFCDC4"/>
<path fill-rule="evenodd" clip-rule="evenodd" d="M184.963 100.827C184.963 100.827 184.554 102.782 185.245 104.478C185.961 106.239 186.972 107.331 186.972 107.331C186.972 107.331 197.151 103.975 197.822 104C200.394 102.443 204.971 95.7295 203.408 95.3457C197.596 93.5609 189.954 98.7673 184.963 100.827Z" fill="#624CD5"/>
<path fill-rule="evenodd" clip-rule="evenodd" d="M228.168 106.214C228.168 106.214 222.623 102.199 217.386 99.1421C214.987 97.7411 211.497 97.0316 211.497 97.0316L210.933 107.107C210.933 107.107 212.573 109.569 214.843 108.419C216.673 107.493 217.884 109.017 225.507 111.621C225.887 108.725 228.168 106.214 228.168 106.214Z" fill="#624CD5"/>
<path fill-rule="evenodd" clip-rule="evenodd" d="M215.707 103.642C215.24 101.988 214.344 100.459 213.13 99.2439C212.434 98.5486 212.434 97.3357 211.497 97.032C210.553 96.7244 208.726 97.3454 207.733 97.3279C206.282 97.3027 204.831 97.2129 203.387 97.0572C202.642 96.977 201.875 96.8807 201.153 97.0856C199.547 97.5418 197.437 99.483 196.601 100.84C195.559 102.527 194.674 104.532 195.228 106.543C195.655 108.089 196.699 109.201 196.699 110.791C196.699 111.984 197.084 114.796 196.203 115.677C194.763 117.116 196.849 118.094 200.144 118.68C201.867 118.985 204.588 119.034 206.315 118.789C207.535 118.615 210.071 118.346 210.949 117.39C211.172 117.147 211.448 116.872 211.451 116.541C211.497 112.046 212.737 107.892 215.239 104.97" fill="#624CD5"/>
<path fill-rule="evenodd" clip-rule="evenodd" d="M203.655 104.029C202.421 106.149 201.921 108.621 201.664 111.036C201.396 113.552 201.347 116.166 201.663 118.679C201.677 118.798 201.854 118.806 201.855 118.679C201.902 113.796 201.504 108.606 203.768 104.095C203.806 104.02 203.698 103.956 203.655 104.029Z" fill="#948BF2"/>
<path fill-rule="evenodd" clip-rule="evenodd" d="M204.443 106.14C204.848 106.14 204.849 105.51 204.443 105.51C204.038 105.51 204.038 106.14 204.443 106.14Z" fill="#948BF2"/>
<path fill-rule="evenodd" clip-rule="evenodd" d="M203.408 110.654C203.812 110.654 203.813 110.025 203.408 110.025C203.002 110.025 203.002 110.654 203.408 110.654Z" fill="#948BF2"/>
<path fill-rule="evenodd" clip-rule="evenodd" d="M203.104 116.22C203.509 116.22 203.509 115.591 203.104 115.591C202.699 115.591 202.698 116.22 203.104 116.22Z" fill="#948BF2"/>
<path fill-rule="evenodd" clip-rule="evenodd" d="M228.168 106.214C228.168 106.214 222.623 102.199 217.386 99.1421C214.987 97.7411 211.498 97.0316 211.498 97.0316C210.56 97.9686 210.482 99.2093 210.352 100.493C210.172 102.271 209.946 104.047 209.422 105.762C209.184 106.544 209.011 107.227 208.53 107.898C208.031 108.596 207.422 109.215 206.731 109.723C206.313 110.031 205.813 110.396 205.838 110.914C205.857 111.327 206.209 111.632 206.484 111.942C207.275 112.833 207.547 114.091 207.474 115.28C207.399 116.498 206.914 117.566 206.659 118.734C209.772 118.312 210.923 117.768 211.439 117.253C212.124 116.567 211.842 115.771 211.946 115.457C213.107 111.937 213.463 110.654 215.215 108.263C216.871 107.709 218.409 109.197 225.507 111.621C225.887 108.725 228.168 106.214 228.168 106.214Z" fill="#482E99"/>
<path fill-rule="evenodd" clip-rule="evenodd" d="M213.145 109.507C213.478 109.259 213.831 109.038 214.201 108.849C214.384 108.757 214.567 108.664 214.755 108.581C214.847 108.541 214.94 108.505 215.031 108.466C215.122 108.426 215.245 108.387 215.309 108.309C215.351 108.256 215.344 108.161 215.265 108.145C215.074 108.106 214.837 108.246 214.669 108.324C214.472 108.414 214.277 108.512 214.092 108.625C213.725 108.85 213.379 109.108 213.056 109.392C212.995 109.446 213.078 109.557 213.145 109.507Z" fill="#1C1459"/>
<path fill-rule="evenodd" clip-rule="evenodd" d="M203.537 83.3008C202.13 85.1095 198.714 90.588 202.515 91.8565C203.896 92.3166 205.688 91.8701 206.85 91.05C208.579 89.8313 210.921 87.4229 210.02 85.1451C209.742 84.4401 209.147 83.9179 208.662 83.3344C208.202 82.7787 207.799 82.1254 207.145 81.8197C206.234 81.3933 205.096 81.8204 204.446 82.5887" fill="#FFCDC4"/>
<path fill-rule="evenodd" clip-rule="evenodd" d="M205.084 91.5239C205.084 91.5239 204.493 95.0477 204.26 95.2809C204.026 95.5155 202.077 95.1737 202.077 95.1737C202.077 95.1737 202.077 100.504 203.711 104.062C206.787 99.551 211.497 97.0315 211.497 97.0315C211.497 97.0315 209.395 96.4137 209.101 95.7792C208.808 95.1452 207.749 87.5957 207.749 87.5957" fill="#FFCDC4"/>
<path fill-rule="evenodd" clip-rule="evenodd" d="M205.947 87.0534C205.911 87.0748 205.88 87.0967 205.854 87.1297C205.838 87.1504 205.822 87.1723 205.805 87.193C205.818 87.1769 205.83 87.1614 205.842 87.1458C205.819 87.1756 205.794 87.2047 205.77 87.2337C205.732 87.279 205.7 87.3281 205.665 87.374C205.678 87.3565 205.691 87.3391 205.705 87.3216C205.679 87.3546 205.652 87.3869 205.624 87.4179C205.612 87.4328 205.598 87.447 205.584 87.4612C205.526 87.5239 205.476 87.593 205.482 87.6848C205.486 87.7526 205.508 87.8256 205.56 87.8735C205.61 87.9193 205.678 87.9555 205.748 87.951C205.793 87.9484 205.822 87.9433 205.859 87.9277C205.891 87.9142 205.926 87.8948 205.95 87.8677C205.971 87.8431 205.99 87.816 206.01 87.7895C206.025 87.7694 206.04 87.7494 206.054 87.7287C206.083 87.6874 206.111 87.6447 206.136 87.6014C206.171 87.5426 206.196 87.4799 206.218 87.416C206.227 87.3927 206.234 87.3688 206.242 87.3455C206.25 87.3177 206.257 87.2874 206.255 87.2583C206.255 87.2305 206.248 87.2014 206.244 87.1743C206.235 87.1142 206.178 87.0651 206.127 87.0431C206.068 87.0185 206.003 87.0198 205.947 87.0534Z" fill="#1E1240"/>
<path fill-rule="evenodd" clip-rule="evenodd" d="M203.099 85.0771C203.063 85.0984 203.031 85.1204 203.005 85.1534C202.989 85.1741 202.974 85.196 202.957 85.2167C202.969 85.2012 202.982 85.185 202.994 85.1695C202.971 85.1993 202.946 85.2283 202.922 85.2581C202.883 85.3026 202.851 85.3518 202.816 85.3983C202.829 85.3802 202.843 85.3627 202.856 85.3453C202.831 85.3783 202.804 85.4106 202.776 85.4416C202.763 85.4564 202.75 85.4707 202.736 85.4849C202.677 85.5476 202.627 85.6173 202.633 85.7085C202.638 85.7763 202.659 85.8493 202.711 85.8972C202.762 85.943 202.829 85.9792 202.9 85.9753C202.944 85.9728 202.973 85.9669 203.01 85.9514C203.043 85.9379 203.077 85.9185 203.101 85.8913C203.123 85.8668 203.141 85.8396 203.162 85.8131C203.177 85.7931 203.192 85.7731 203.206 85.7524C203.235 85.711 203.262 85.6684 203.288 85.6251C203.322 85.5663 203.348 85.5043 203.37 85.4396C203.378 85.4164 203.386 85.3931 203.393 85.3692C203.402 85.3414 203.408 85.311 203.407 85.282C203.406 85.2542 203.399 85.2258 203.395 85.198C203.386 85.1379 203.33 85.0894 203.278 85.0668C203.219 85.0422 203.154 85.0435 203.099 85.0771Z" fill="#1E1240"/>
<path fill-rule="evenodd" clip-rule="evenodd" d="M207.073 86.0164C207.672 86.3143 207.731 87.0186 207.731 87.0186C207.731 87.0186 207.153 86.3033 206.46 85.9472C206.658 85.7786 206.893 85.9266 207.073 86.0164Z" fill="#1E1240"/>
<path fill-rule="evenodd" clip-rule="evenodd" d="M204.086 83.9418C204.222 84.0284 204.377 84.1841 204.296 84.4277C203.843 84.0038 203.245 83.81 203.245 83.81C203.245 83.81 203.63 83.6516 204.086 83.9418Z" fill="#1E1240"/>
<path fill-rule="evenodd" clip-rule="evenodd" d="M201.66 88.9561C201.853 89.0181 201.813 89.2985 202.234 89.5163C202.816 89.8181 202.937 89.6384 203.003 89.7677C203.069 89.8963 202.561 90.7208 201.83 90.3661C200.924 89.9266 201.561 88.9244 201.66 88.9561Z" fill="white"/>
<path opacity="0.0844727" fill-rule="evenodd" clip-rule="evenodd" d="M205.683 89.1179C205.683 89.5476 205.335 89.8959 204.906 89.8959C204.476 89.8959 204.127 89.5476 204.127 89.1179C204.127 88.6881 204.476 88.3398 204.906 88.3398C205.335 88.3398 205.683 88.6881 205.683 89.1179Z" fill="#F45151"/>
<path opacity="0.0844727" fill-rule="evenodd" clip-rule="evenodd" d="M202.956 87.0188C202.956 87.4486 202.609 87.7969 202.179 87.7969C201.749 87.7969 201.401 87.4486 201.401 87.0188C201.401 86.5891 201.749 86.2415 202.179 86.2415C202.609 86.2415 202.956 86.5891 202.956 87.0188Z" fill="#F45151"/>
<path opacity="0.0844727" fill-rule="evenodd" clip-rule="evenodd" d="M203.541 86.4075C203.136 86.7416 202.732 87.0995 202.375 87.4853C202.321 87.5441 202.267 87.6055 202.238 87.6798C202.041 88.1781 203.042 88.2711 203.315 88.3402" fill="#FC6360"/>
<path fill-rule="evenodd" clip-rule="evenodd" d="M203.518 86.368C203.364 86.4494 203.219 86.5315 203.079 86.6368C202.939 86.7415 202.811 86.8585 202.684 86.9787C202.554 87.1034 202.427 87.2307 202.304 87.3625C202.212 87.4614 202.119 87.566 202.087 87.7011C201.99 88.1198 202.471 88.3143 202.791 88.3919C202.893 88.4164 202.998 88.4423 203.103 88.4526C203.196 88.461 203.267 88.4358 203.337 88.4152C203.392 88.399 203.414 88.3266 203.371 88.2846C203.359 88.273 203.299 88.22 203.328 88.2491C203.36 88.2807 203.311 88.2265 203.302 88.2187C203.286 88.2064 203.27 88.198 203.253 88.189C203.179 88.1528 203.103 88.1386 203.023 88.1218C202.86 88.0875 202.701 88.0436 202.547 87.9803C202.508 87.9641 202.426 87.9202 202.399 87.8956C202.359 87.8588 202.347 87.8407 202.351 87.7922C202.357 87.7069 202.441 87.6145 202.509 87.5421C202.616 87.4284 202.725 87.3173 202.838 87.2093C202.965 87.0879 203.097 86.9735 203.22 86.8475C203.346 86.7176 203.459 86.5812 203.574 86.4391C203.605 86.4003 203.567 86.3428 203.518 86.368Z" fill="#CE4545"/>
<path fill-rule="evenodd" clip-rule="evenodd" d="M211.218 84.9876C210.456 83.5576 209.11 82.5243 207.692 81.7404L205.837 81.4109C204.457 81.4787 203.394 81.4283 202.412 82.3996C202.175 82.6348 201.956 82.8939 201.807 83.1931C201.417 83.9821 201.564 84.9197 201.722 85.7863C201.928 84.8732 202.654 84.0965 203.551 83.8277C203.759 83.765 203.976 83.7333 204.192 83.7249C204.558 83.4051 204.958 83.124 205.39 82.9017C205.121 83.1505 204.894 83.4419 204.711 83.7585C205.249 83.8425 205.764 84.0803 206.157 84.4577C206.385 84.6768 206.607 84.8958 206.832 85.1149C207.2 84.8125 207.587 84.532 208 84.2942C207.721 84.6865 207.445 85.0903 207.229 85.5181C207.863 86.174 208.342 86.9805 208.594 87.858C208.744 88.3814 208.823 88.9378 209.106 89.4031C209.389 89.8677 209.967 90.2192 210.476 90.0267C210.701 89.942 210.878 89.7643 211.028 89.5756C212.037 88.3071 211.98 86.4183 211.218 84.9876Z" fill="#142C5B"/>
<path fill-rule="evenodd" clip-rule="evenodd" d="M177.899 171.982L175.569 193.838L196.736 193.767L194.593 171.926L177.899 171.982Z" fill="#B8E8DC"/>
<path fill-rule="evenodd" clip-rule="evenodd" d="M185.953 167.009C186.867 167.009 187.618 167.335 188.19 167.979C189.685 169.666 189.384 172.94 189.37 173.079C189.354 173.251 189.213 173.377 189.047 173.358C188.885 173.341 188.767 173.187 188.784 173.014C188.788 172.983 189.07 169.885 187.76 168.409C187.272 167.859 186.602 167.598 185.784 167.642C184.916 167.684 184.22 168.022 183.715 168.648C182.462 170.2 182.721 173.008 182.724 173.036C182.741 173.209 182.624 173.363 182.461 173.381C182.302 173.402 182.155 173.273 182.138 173.101C182.125 172.975 181.851 169.994 183.268 168.239C183.883 167.477 184.721 167.065 185.757 167.014C185.824 167.01 185.888 167.009 185.953 167.009Z" fill="#71D3BA"/>
</svg>
