<svg width="250" height="201" viewBox="0 0 250 201" fill="none" xmlns="http://www.w3.org/2000/svg">
<path d="M125.994 201C193.944 201 249.029 196.689 249.029 191.37C249.029 186.052 193.944 181.741 125.994 181.741C58.0429 181.741 2.95801 186.052 2.95801 191.37C2.95801 196.689 58.0429 201 125.994 201Z" fill="#3F3D56"/>
<path d="M230.506 173.481L231.659 181.953L223.587 182.723L224.74 172.326L230.506 173.481Z" fill="#F2B2BB"/>
<path d="M192.45 57.1855C192.45 57.1855 193.219 67.5828 193.219 67.9679C193.219 68.353 187.838 94.9239 187.838 94.9239C187.838 94.9239 180.15 109.557 187.838 109.172C195.525 108.787 193.219 95.309 193.219 95.309L201.291 72.9741L197.832 57.1855L192.45 57.1855Z" fill="#A0616A"/>
<path d="M205.136 173.481L203.982 181.953L212.055 182.723L210.901 172.326L205.136 173.481Z" fill="#F2B2BB"/>
<path d="M196.294 94.1534L194.372 96.849C194.372 96.849 193.219 108.402 194.372 112.252C195.525 116.103 197.831 133.817 197.831 134.973C197.831 136.128 198.216 136.898 197.831 137.283C197.447 137.668 196.294 137.668 197.063 138.438C197.831 139.208 197.831 141.519 197.831 141.519V143.444L202.828 171.941C202.828 171.941 199.753 175.407 202.06 175.407C204.366 175.407 212.823 175.407 212.438 171.556L211.669 171.171C211.669 171.171 210.516 145.755 210.901 144.6C211.285 143.444 210.901 141.134 210.901 141.134C210.901 141.134 210.132 139.979 210.901 139.594C211.669 139.208 211.669 136.128 211.669 136.128L215.129 112.638C215.129 112.638 218.204 128.426 220.126 129.966C222.048 131.507 221.663 135.358 221.663 135.358L223.201 169.245C223.201 169.245 221.663 173.096 223.201 173.866C224.739 174.636 231.273 177.332 231.658 173.481C232.042 169.63 233.964 136.128 233.964 134.587C233.964 133.047 233.579 132.277 233.964 131.122C234.348 129.966 233.579 129.966 233.964 129.966C234.348 129.966 233.195 128.811 233.195 128.041V109.172C233.195 109.172 233.579 105.321 233.964 104.551C234.348 103.781 233.579 103.01 233.964 101.855C234.348 100.7 233.195 96.849 233.195 96.849L215.898 92.228L196.294 94.1534Z" fill="#2F2E41"/>
<path d="M209.747 180.413C209.747 180.413 211.669 178.488 208.978 178.488C207.251 178.523 205.549 178.916 203.981 179.643L202.059 186.575C202.059 186.575 194.179 192.928 203.02 192.158C211.861 191.388 210.516 191.966 210.516 191.966C210.516 191.966 213.206 191.196 213.591 190.425C213.975 189.655 212.822 178.488 212.822 178.488C212.822 178.488 211.669 181.568 209.747 180.413Z" fill="#2F2E41"/>
<path d="M226.277 180.413C226.277 180.413 224.355 178.488 227.045 178.488C228.773 178.523 230.474 178.916 232.042 179.643L233.964 186.575C233.964 186.575 241.844 192.928 233.003 192.158C224.162 191.388 224.355 191.966 224.355 191.966C224.355 191.966 221.664 191.196 221.28 190.425C220.895 189.655 223.201 178.488 223.201 178.488C223.201 178.488 224.355 181.568 226.277 180.413Z" fill="#2F2E41"/>
<path d="M201.292 26.7632C206.812 26.7632 211.286 22.2806 211.286 16.751C211.286 11.2214 206.812 6.73874 201.292 6.73874C195.772 6.73874 191.298 11.2214 191.298 16.751C191.298 22.2806 195.772 26.7632 201.292 26.7632Z" fill="#F2B2BB"/>
<path d="M197.832 24.0679C197.832 24.0679 199.37 31.7696 199.37 32.9249C199.37 34.0801 205.904 37.5459 205.904 37.5459L213.208 28.3038C213.208 28.3038 208.595 21.7574 208.595 20.217L197.832 24.0679Z" fill="#F2B2BB"/>
<path d="M203.598 34.0798C203.598 34.0798 200.247 33.1865 199.232 31.7077C199.232 31.7077 188.606 42.1666 188.606 44.0921L197.063 59.1104C197.063 59.1104 197.063 64.5016 197.832 64.8867C198.601 65.2718 197.832 64.8867 197.832 66.4271C197.832 67.9674 195.525 77.9796 196.294 79.52C197.063 81.0603 197.832 79.9051 197.063 82.2156C196.294 84.5261 194.372 96.8489 194.372 96.8489C194.372 96.8489 201.291 94.5383 211.285 98.3892C221.279 102.24 233.195 96.8489 233.195 96.8489C233.195 96.8489 230.12 89.9173 230.889 87.6068C231.658 85.2963 228.967 81.0603 228.967 81.0603L227.045 45.6324C227.045 45.6324 229.736 29.8439 227.814 29.0737L223.97 27.5334L211.661 26.0177C211.661 26.0177 208.595 33.6948 203.598 34.0798Z" fill="#D0CDE1"/>
<path d="M192.451 41.3971L188.607 44.0927C188.607 44.0927 186.685 49.869 188.607 52.5646C190.529 55.2602 191.298 59.1111 191.298 59.1111L198.986 58.3409L192.451 41.3971Z" fill="#D0CDE1"/>
<path d="M193.661 6.17002L191.927 5.47472C191.927 5.47472 195.552 1.47681 200.595 1.82446L199.177 0.260032C199.177 0.260032 202.644 -1.13054 205.796 2.51973C207.453 4.4386 209.37 6.69412 210.565 9.23495H212.422L211.647 10.9442L214.359 12.6535L211.575 12.3464C211.839 13.8221 211.749 15.3394 211.312 16.7732L211.387 18.1242C211.387 18.1242 208.16 13.1229 208.16 12.4276V14.1659C208.16 14.1659 206.426 12.6015 206.426 11.5585L205.481 12.7753L205.008 10.8632L199.177 12.7753L200.122 11.2109L196.498 11.7324L197.916 9.8203C197.916 9.8203 193.818 12.08 193.661 13.9921C193.503 15.9041 191.454 18.3376 191.454 18.3376L190.509 16.5994C190.509 16.5994 189.09 8.77736 193.661 6.17002Z" fill="#2F2E41"/>
<rect x="43.2305" y="83.8023" width="152.748" height="107.496" fill="#F2F2F2"/>
<rect x="56.0889" y="124.816" width="38.3534" height="67.0737" fill="#3F3D56"/>
<rect x="63.1836" y="128.841" width="10.3313" height="9.6484" fill="#F2F2F2"/>
<rect x="77.0166" y="128.841" width="10.3313" height="9.6484" fill="#F2F2F2"/>
<rect x="63.1836" y="141.997" width="10.3313" height="9.99925" fill="#F2F2F2"/>
<rect x="77.0166" y="141.997" width="10.3313" height="9.99925" fill="#F2F2F2"/>
<path d="M89.5656 165.312C90.9124 165.312 92.0043 164.218 92.0043 162.869C92.0043 161.519 90.9124 160.425 89.5656 160.425C88.2188 160.425 87.127 161.519 87.127 162.869C87.127 164.218 88.2188 165.312 89.5656 165.312Z" fill="#13B58C"/>
<rect x="107.301" y="118.449" width="75.82" height="63.7422" fill="#3F3D56"/>
<path d="M211.94 104.04H27.2676L39.5806 78.2497L42.3362 72.4752L45.9412 64.9238L48.6968 59.1492L51.8913 52.4598H197.39L199.277 59.1492L200.906 64.9238L203.037 72.4752L204.666 78.2497L211.94 104.04Z" fill="#3F3D56"/>
<rect x="107.301" y="161.314" width="75.82" height="1.55469" fill="#F2F2F2"/>
<rect x="144.546" y="118.449" width="1.33017" height="14.2143" fill="#F2F2F2"/>
<path d="M145.211 134.885C146.435 134.885 147.428 133.89 147.428 132.664C147.428 131.437 146.435 130.443 145.211 130.443C143.987 130.443 142.994 131.437 142.994 132.664C142.994 133.89 143.987 134.885 145.211 134.885Z" fill="#F2F2F2"/>
<path d="M200.908 64.9231H45.9424L48.698 59.1486H199.278L200.908 64.9231Z" fill="#13B58C"/>
<path d="M204.667 78.2492H39.5811L42.3366 72.4747H203.037L204.667 78.2492Z" fill="#13B58C"/>
<path d="M220.896 44.8627C220.896 44.8627 218.67 50.5969 219.135 56.2704C219.22 57.2861 219.561 58.2636 220.127 59.1109L192.857 72.081C192.857 72.081 180.535 73.359 183.61 78.7503C186.685 84.1415 197.832 76.0546 197.832 76.0546C197.832 76.0546 227.046 71.8187 229.352 67.5828C231.659 63.3468 233.196 45.6329 233.196 45.6329L220.896 44.8627Z" fill="#F2B2BB"/>
<path d="M222.048 29.0743H227.814C227.814 29.0743 232.042 29.8444 233.195 37.5462C234.349 45.2479 235.502 47.1733 234.349 47.1733C233.195 47.1733 219.357 46.7882 219.357 46.4031C219.357 46.0181 222.048 29.0743 222.048 29.0743Z" fill="#D0CDE1"/>
<path d="M29.5759 144.111C45.9102 144.111 59.1517 130.846 59.1517 114.482C59.1517 98.1179 45.9102 84.8523 29.5759 84.8523C13.2416 84.8523 0 98.1179 0 114.482C0 130.846 13.2416 144.111 29.5759 144.111Z" fill="#13B58C"/>
<path opacity="0.1" d="M29.5759 139.963C43.6234 139.963 55.0111 128.554 55.0111 114.481C55.0111 100.408 43.6234 88.9999 29.5759 88.9999C15.5284 88.9999 4.14062 100.408 4.14062 114.481C4.14062 128.554 15.5284 139.963 29.5759 139.963Z" fill="black"/>
<path d="M28.3565 129.518V125.81C26.4851 125.773 24.5491 125.112 23.4199 124.194L24.1942 121.734C25.5362 122.741 27.1636 123.294 28.8404 123.313C31.1313 123.313 32.68 121.807 32.68 119.714C32.68 117.694 31.4216 116.446 29.034 115.344C25.743 113.875 23.7103 112.186 23.7103 108.992C23.7103 105.944 25.6139 103.63 28.5824 103.08V99.3709H30.5828V102.933C32.0744 102.953 33.5294 103.399 34.7773 104.218L33.9706 106.642C32.7737 105.821 31.3555 105.385 29.9052 105.393C27.4209 105.393 26.4851 107.082 26.4851 108.551C26.4851 110.46 27.6789 111.415 30.486 112.737C33.8092 114.279 35.4872 116.189 35.4872 119.457C35.4872 122.358 33.7125 125.075 30.3891 125.699V129.518L28.3565 129.518Z" fill="#F2F2F2"/>
</svg>
