<svg width="102" height="102" viewBox="0 0 102 102" fill="none" xmlns="http://www.w3.org/2000/svg">
<rect opacity="0.1" x="1" y="1" width="100" height="100" rx="8" stroke="black" stroke-dasharray="3 3"/>
<path opacity="0.502341" d="M20.742 75.382H15.282L14.106 78H13.028L17.508 68.2H18.53L23.01 78H21.918L20.742 75.382ZM20.364 74.542L18.012 69.278L15.66 74.542H20.364ZM31.0728 67.612V78H30.1208V76.544C29.8221 77.0387 29.4255 77.4167 28.9308 77.678C28.4455 77.9393 27.8948 78.07 27.2788 78.07C26.5881 78.07 25.9628 77.9113 25.4028 77.594C24.8428 77.2767 24.4041 76.8333 24.0868 76.264C23.7695 75.6947 23.6108 75.046 23.6108 74.318C23.6108 73.59 23.7695 72.9413 24.0868 72.372C24.4041 71.8027 24.8428 71.364 25.4028 71.056C25.9628 70.7387 26.5881 70.58 27.2788 70.58C27.8761 70.58 28.4128 70.706 28.8888 70.958C29.3741 71.2007 29.7708 71.56 30.0788 72.036V67.612H31.0728ZM27.3628 77.188C27.8761 77.188 28.3381 77.0713 28.7488 76.838C29.1688 76.5953 29.4955 76.2547 29.7288 75.816C29.9715 75.3773 30.0928 74.878 30.0928 74.318C30.0928 73.758 29.9715 73.2587 29.7288 72.82C29.4955 72.3813 29.1688 72.0453 28.7488 71.812C28.3381 71.5693 27.8761 71.448 27.3628 71.448C26.8401 71.448 26.3688 71.5693 25.9488 71.812C25.5381 72.0453 25.2115 72.3813 24.9688 72.82C24.7355 73.2587 24.6188 73.758 24.6188 74.318C24.6188 74.878 24.7355 75.3773 24.9688 75.816C25.2115 76.2547 25.5381 76.5953 25.9488 76.838C26.3688 77.0713 26.8401 77.188 27.3628 77.188ZM40.5611 67.612V78H39.6091V76.544C39.3104 77.0387 38.9137 77.4167 38.4191 77.678C37.9337 77.9393 37.3831 78.07 36.7671 78.07C36.0764 78.07 35.4511 77.9113 34.8911 77.594C34.3311 77.2767 33.8924 76.8333 33.5751 76.264C33.2577 75.6947 33.0991 75.046 33.0991 74.318C33.0991 73.59 33.2577 72.9413 33.5751 72.372C33.8924 71.8027 34.3311 71.364 34.8911 71.056C35.4511 70.7387 36.0764 70.58 36.7671 70.58C37.3644 70.58 37.9011 70.706 38.3771 70.958C38.8624 71.2007 39.2591 71.56 39.5671 72.036V67.612H40.5611ZM36.8511 77.188C37.3644 77.188 37.8264 77.0713 38.2371 76.838C38.6571 76.5953 38.9837 76.2547 39.2171 75.816C39.4597 75.3773 39.5811 74.878 39.5811 74.318C39.5811 73.758 39.4597 73.2587 39.2171 72.82C38.9837 72.3813 38.6571 72.0453 38.2371 71.812C37.8264 71.5693 37.3644 71.448 36.8511 71.448C36.3284 71.448 35.8571 71.5693 35.4371 71.812C35.0264 72.0453 34.6997 72.3813 34.4571 72.82C34.2237 73.2587 34.1071 73.758 34.1071 74.318C34.1071 74.878 34.2237 75.3773 34.4571 75.816C34.6997 76.2547 35.0264 76.5953 35.4371 76.838C35.8571 77.0713 36.3284 77.188 36.8511 77.188ZM50.7874 70.58C51.4781 70.58 52.1034 70.7387 52.6634 71.056C53.2234 71.364 53.6621 71.8027 53.9794 72.372C54.2968 72.9413 54.4554 73.59 54.4554 74.318C54.4554 75.0553 54.2968 75.7087 53.9794 76.278C53.6621 76.8473 53.2234 77.2907 52.6634 77.608C52.1128 77.916 51.4874 78.07 50.7874 78.07C50.1901 78.07 49.6488 77.9487 49.1634 77.706C48.6874 77.454 48.2954 77.09 47.9874 76.614V80.716H46.9934V70.636H47.9454V72.092C48.2441 71.6067 48.6361 71.2333 49.1214 70.972C49.6161 70.7107 50.1714 70.58 50.7874 70.58ZM50.7174 77.188C51.2308 77.188 51.6974 77.0713 52.1174 76.838C52.5374 76.5953 52.8641 76.2547 53.0974 75.816C53.3401 75.3773 53.4614 74.878 53.4614 74.318C53.4614 73.758 53.3401 73.2633 53.0974 72.834C52.8641 72.3953 52.5374 72.0547 52.1174 71.812C51.6974 71.5693 51.2308 71.448 50.7174 71.448C50.1948 71.448 49.7234 71.5693 49.3034 71.812C48.8928 72.0547 48.5661 72.3953 48.3234 72.834C48.0901 73.2633 47.9734 73.758 47.9734 74.318C47.9734 74.878 48.0901 75.3773 48.3234 75.816C48.5661 76.2547 48.8928 76.5953 49.3034 76.838C49.7234 77.0713 50.1948 77.188 50.7174 77.188ZM60.2337 70.58C61.1577 70.58 61.8904 70.8507 62.4317 71.392C62.9824 71.924 63.2577 72.7033 63.2577 73.73V78H62.2637V73.828C62.2637 73.0627 62.0724 72.4793 61.6897 72.078C61.307 71.6767 60.761 71.476 60.0517 71.476C59.2584 71.476 58.6284 71.714 58.1617 72.19C57.7044 72.6567 57.4757 73.3053 57.4757 74.136V78H56.4817V67.612H57.4757V71.924C57.7464 71.4947 58.1197 71.1633 58.5957 70.93C59.0717 70.6967 59.6177 70.58 60.2337 70.58ZM68.9937 78.07C68.2843 78.07 67.645 77.9113 67.0757 77.594C66.5063 77.2673 66.0583 76.8193 65.7317 76.25C65.405 75.6807 65.2417 75.0367 65.2417 74.318C65.2417 73.5993 65.405 72.9553 65.7317 72.386C66.0583 71.8167 66.5063 71.3733 67.0757 71.056C67.645 70.7387 68.2843 70.58 68.9937 70.58C69.703 70.58 70.3423 70.7387 70.9117 71.056C71.481 71.3733 71.9243 71.8167 72.2417 72.386C72.5683 72.9553 72.7317 73.5993 72.7317 74.318C72.7317 75.0367 72.5683 75.6807 72.2417 76.25C71.9243 76.8193 71.481 77.2673 70.9117 77.594C70.3423 77.9113 69.703 78.07 68.9937 78.07ZM68.9937 77.188C69.5163 77.188 69.983 77.0713 70.3937 76.838C70.8137 76.5953 71.1403 76.2547 71.3737 75.816C71.607 75.3773 71.7237 74.878 71.7237 74.318C71.7237 73.758 71.607 73.2587 71.3737 72.82C71.1403 72.3813 70.8137 72.0453 70.3937 71.812C69.983 71.5693 69.5163 71.448 68.9937 71.448C68.471 71.448 67.9997 71.5693 67.5797 71.812C67.169 72.0453 66.8423 72.3813 66.5997 72.82C66.3663 73.2587 66.2497 73.758 66.2497 74.318C66.2497 74.878 66.3663 75.3773 66.5997 75.816C66.8423 76.2547 67.169 76.5953 67.5797 76.838C67.9997 77.0713 68.471 77.188 68.9937 77.188ZM78.639 77.552C78.4523 77.72 78.219 77.8507 77.939 77.944C77.6683 78.028 77.3837 78.07 77.085 78.07C76.3943 78.07 75.8623 77.8833 75.489 77.51C75.1157 77.1367 74.929 76.6093 74.929 75.928V71.476H73.613V70.636H74.929V69.026H75.923V70.636H78.163V71.476H75.923V75.872C75.923 76.3107 76.0303 76.6467 76.245 76.88C76.469 77.104 76.7863 77.216 77.197 77.216C77.4023 77.216 77.5983 77.1833 77.785 77.118C77.981 77.0527 78.149 76.9593 78.289 76.838L78.639 77.552ZM83.1987 78.07C82.4894 78.07 81.8501 77.9113 81.2807 77.594C80.7114 77.2673 80.2634 76.8193 79.9367 76.25C79.6101 75.6807 79.4467 75.0367 79.4467 74.318C79.4467 73.5993 79.6101 72.9553 79.9367 72.386C80.2634 71.8167 80.7114 71.3733 81.2807 71.056C81.8501 70.7387 82.4894 70.58 83.1987 70.58C83.9081 70.58 84.5474 70.7387 85.1167 71.056C85.6861 71.3733 86.1294 71.8167 86.4467 72.386C86.7734 72.9553 86.9367 73.5993 86.9367 74.318C86.9367 75.0367 86.7734 75.6807 86.4467 76.25C86.1294 76.8193 85.6861 77.2673 85.1167 77.594C84.5474 77.9113 83.9081 78.07 83.1987 78.07ZM83.1987 77.188C83.7214 77.188 84.1881 77.0713 84.5987 76.838C85.0187 76.5953 85.3454 76.2547 85.5787 75.816C85.8121 75.3773 85.9287 74.878 85.9287 74.318C85.9287 73.758 85.8121 73.2587 85.5787 72.82C85.3454 72.3813 85.0187 72.0453 84.5987 71.812C84.1881 71.5693 83.7214 71.448 83.1987 71.448C82.6761 71.448 82.2047 71.5693 81.7847 71.812C81.3741 72.0453 81.0474 72.3813 80.8047 72.82C80.5714 73.2587 80.4547 73.758 80.4547 74.318C80.4547 74.878 80.5714 75.3773 80.8047 75.816C81.0474 76.2547 81.3741 76.5953 81.7847 76.838C82.2047 77.0713 82.6761 77.188 83.1987 77.188Z" fill="#4F4F4F"/>
<path opacity="0.502341" d="M61 32.4151H52.4483V41H49.5517V32.4151H41V29.6321H49.5517V21H52.4483V29.6321H61V32.4151Z" fill="#4F4F4F"/>
</svg>
