<svg width="48" height="48" viewBox="0 0 48 48" fill="none" xmlns="http://www.w3.org/2000/svg">
<circle cx="24" cy="24" r="23.5" fill="#FEFEFE" stroke="#E2E2E2"/>
<path d="M32.1603 17.0002C31.1002 15.9374 29.6951 15.2887 28.1986 15.1713C26.7021 15.054 25.213 15.4756 24.0003 16.3602C22.7279 15.4138 21.1443 14.9847 19.5682 15.1592C17.9921 15.3337 16.5407 16.0989 15.5062 17.3008C14.4718 18.5026 13.9311 20.0517 13.9931 21.6362C14.0551 23.2207 14.7151 24.7228 15.8403 25.8402L22.0503 32.0602C22.5703 32.5719 23.2707 32.8588 24.0003 32.8588C24.7299 32.8588 25.4303 32.5719 25.9503 32.0602L32.1603 25.8402C33.3279 24.6654 33.9832 23.0764 33.9832 21.4202C33.9832 19.7639 33.3279 18.1749 32.1603 17.0002ZM30.7503 24.4602L24.5403 30.6702C24.4696 30.7415 24.3855 30.7982 24.2928 30.8368C24.2001 30.8755 24.1007 30.8954 24.0003 30.8954C23.8999 30.8954 23.8004 30.8755 23.7077 30.8368C23.615 30.7982 23.5309 30.7415 23.4603 30.6702L17.2503 24.4302C16.466 23.6285 16.0269 22.5516 16.0269 21.4302C16.0269 20.3087 16.466 19.2318 17.2503 18.4302C18.0494 17.6412 19.1272 17.1987 20.2503 17.1987C21.3733 17.1987 22.4511 17.6412 23.2503 18.4302C23.3432 18.5239 23.4538 18.5983 23.5757 18.6491C23.6976 18.6998 23.8283 18.726 23.9603 18.726C24.0923 18.726 24.223 18.6998 24.3449 18.6491C24.4667 18.5983 24.5773 18.5239 24.6703 18.4302C25.4694 17.6412 26.5472 17.1987 27.6703 17.1987C28.7933 17.1987 29.8711 17.6412 30.6703 18.4302C31.4653 19.2213 31.9189 20.2924 31.9338 21.4139C31.9488 22.5353 31.5239 23.6181 30.7503 24.4302V24.4602Z" fill="#F86565"/>
</svg>
