<svg width="21" height="18" viewBox="0 0 21 18" fill="none" xmlns="http://www.w3.org/2000/svg">
<path d="M19.1603 2.00017C18.1002 0.937373 16.6951 0.288706 15.1986 0.171335C13.7021 0.0539653 12.213 0.475631 11.0003 1.36017C9.72793 0.413803 8.14427 -0.0153233 6.5682 0.159203C4.99212 0.333729 3.54072 1.09894 2.50625 2.30075C1.47178 3.50256 0.931098 5.05169 0.993077 6.63618C1.05506 8.22067 1.71509 9.72283 2.84028 10.8402L9.05028 17.0602C9.57029 17.5719 10.2707 17.8588 11.0003 17.8588C11.7299 17.8588 12.4303 17.5719 12.9503 17.0602L19.1603 10.8402C20.3279 9.66543 20.9832 8.07644 20.9832 6.42017C20.9832 4.76389 20.3279 3.1749 19.1603 2.00017ZM17.7503 9.46017L11.5403 15.6702C11.4696 15.7415 11.3855 15.7982 11.2928 15.8368C11.2001 15.8755 11.1007 15.8954 11.0003 15.8954C10.8999 15.8954 10.8004 15.8755 10.7077 15.8368C10.615 15.7982 10.5309 15.7415 10.4603 15.6702L4.25028 9.43017C3.46603 8.62851 3.02689 7.55163 3.02689 6.43017C3.02689 5.3087 3.46603 4.23182 4.25028 3.43017C5.04943 2.64115 6.12725 2.19873 7.25028 2.19873C8.3733 2.19873 9.45112 2.64115 10.2503 3.43017C10.3432 3.52389 10.4538 3.59829 10.5757 3.64906C10.6976 3.69983 10.8283 3.72596 10.9603 3.72596C11.0923 3.72596 11.223 3.69983 11.3449 3.64906C11.4667 3.59829 11.5773 3.52389 11.6703 3.43017C12.4694 2.64115 13.5472 2.19873 14.6703 2.19873C15.7933 2.19873 16.8711 2.64115 17.6703 3.43017C18.4653 4.22132 18.9189 5.29236 18.9338 6.41385C18.9488 7.53535 18.5239 8.6181 17.7503 9.43017V9.46017Z" fill="#F86565"/>
</svg>
