<svg width="64" height="64" viewBox="0 0 64 64" fill="none" xmlns="http://www.w3.org/2000/svg">
<path d="M32 64C49.6731 64 64 49.6731 64 32C64 14.3269 49.6731 0 32 0C14.3269 0 0 14.3269 0 32C0 49.6731 14.3269 64 32 64Z" fill="#3C3352"/>
<path fill-rule="evenodd" clip-rule="evenodd" d="M41.9563 19.2C43.5209 19.2 44.8008 20.4799 44.8008 22.0445V41.9555C44.8008 43.5201 43.5209 44.8 41.9563 44.8H22.0453C20.4807 44.8 19.2008 43.5201 19.2008 41.9555V22.0445C19.2008 20.4799 20.4807 19.2 22.0453 19.2H41.9563ZM30.5787 38.4L27.0231 34.1333L22.0453 40.5333H41.9564L35.5564 32L30.5787 38.4Z" fill="white"/>
</svg>
