<svg width="32" height="37" viewBox="0 0 32 37" fill="none" xmlns="http://www.w3.org/2000/svg">
<path d="M15.9341 12.4563C15.6431 12.4563 15.4072 12.2198 15.4072 11.928V10.3189C15.4072 10.0272 15.6431 9.79065 15.9341 9.79065C16.2251 9.79065 16.4609 10.0271 16.4609 10.3189V11.928C16.4608 12.2198 16.225 12.4563 15.9341 12.4563Z" fill="#13B58C"/>
<path d="M15.9341 27.2093C15.6431 27.2093 15.4072 26.9729 15.4072 26.6811V25.0719C15.4072 24.7802 15.6431 24.5437 15.9341 24.5437C16.2251 24.5437 16.4609 24.7802 16.4609 25.0719V26.6811C16.4608 26.9729 16.225 27.2093 15.9341 27.2093Z" fill="#13B58C"/>
<path d="M9.99428 15.6714L8.60433 14.8668C8.35233 14.7209 8.26601 14.3979 8.41151 14.1453C8.55694 13.8926 8.87917 13.8061 9.13117 13.952L10.5211 14.7565C10.7731 14.9024 10.8594 15.2255 10.7139 15.4781C10.5685 15.7307 10.2463 15.8173 9.99428 15.6714Z" fill="#13B58C"/>
<path d="M22.7374 23.048L21.3475 22.2434C21.0955 22.0975 21.0092 21.7744 21.1547 21.5219C21.3001 21.2692 21.6223 21.1827 21.8743 21.3285L23.2643 22.1331C23.5163 22.279 23.6026 22.6021 23.4571 22.8547C23.3116 23.1072 22.9895 23.1939 22.7374 23.048Z" fill="#13B58C"/>
<path d="M8.41151 22.8547C8.26601 22.6021 8.35233 22.279 8.60433 22.1331L9.99428 21.3285C10.2461 21.1827 10.5684 21.2692 10.7139 21.5219C10.8594 21.7744 10.7731 22.0975 10.5211 22.2434L9.13117 23.048C8.87944 23.1936 8.55714 23.1075 8.41151 22.8547Z" fill="#13B58C"/>
<path d="M21.1547 15.4782C21.0092 15.2256 21.0955 14.9025 21.3475 14.7566L22.7374 13.952C22.9893 13.8063 23.3116 13.8927 23.4571 14.1454C23.6026 14.3979 23.5163 14.721 23.2643 14.8669L21.8743 15.6715C21.6227 15.8172 21.3003 15.731 21.1547 15.4782Z" fill="#13B58C"/>
<path d="M15.9338 25.072C19.5539 25.072 22.4886 22.1296 22.4886 18.5C22.4886 14.8705 19.5539 11.9281 15.9338 11.9281C12.3136 11.9281 9.37891 14.8705 9.37891 18.5C9.37891 22.1296 12.3136 25.072 15.9338 25.072Z" fill="#DFFBF4"/>
<path d="M15.934 17.6779C17.0091 17.6779 17.8806 16.8041 17.8806 15.7261C17.8806 14.6482 17.0091 13.7744 15.934 13.7744C14.8589 13.7744 13.9873 14.6482 13.9873 15.7261C13.9873 16.8041 14.8589 17.6779 15.934 17.6779Z" fill="white" stroke="#13B58C"/>
<path d="M17.0353 17.6779H14.8318C13.6847 17.6779 12.7461 18.6189 12.7461 19.769V22.1916C12.7461 22.3884 12.9052 22.5478 13.1014 22.5478H18.7657C18.962 22.5478 19.121 22.3884 19.121 22.1916V19.769C19.121 18.619 18.1824 17.6779 17.0353 17.6779Z" fill="white" stroke="#13B58C"/>
<path d="M27.681 24.1926C28.7561 24.1926 29.6277 23.3188 29.6277 22.2409C29.6277 21.163 28.7561 20.2892 27.681 20.2892C26.6059 20.2892 25.7344 21.163 25.7344 22.2409C25.7344 23.3188 26.6059 24.1926 27.681 24.1926Z" fill="white" stroke="#13B58C"/>
<path d="M28.7823 24.1927H26.5789C25.4318 24.1927 24.4932 25.1338 24.4932 26.2839V27.9203C24.4932 28.1171 24.6522 28.2765 24.8485 28.2765H30.5128C30.709 28.2765 30.8681 28.1171 30.8681 27.9203V26.2839C30.8681 25.1338 29.9295 24.1927 28.7823 24.1927Z" fill="#DFFBF4" stroke="#13B58C"/>
<path d="M4.18787 24.1926C5.26298 24.1926 6.13453 23.3188 6.13453 22.2409C6.13453 21.163 5.26298 20.2892 4.18787 20.2892C3.11276 20.2892 2.24121 21.163 2.24121 22.2409C2.24121 23.3188 3.11276 24.1926 4.18787 24.1926Z" fill="white" stroke="#13B58C"/>
<path d="M5.28918 24.1927H3.08575C1.93859 24.1927 1 25.1338 1 26.2839V27.9203C1 28.1171 1.15907 28.2765 1.3553 28.2765H7.01964C7.21586 28.2765 7.37493 28.1171 7.37493 27.9203V26.2839C7.37493 25.1338 6.43634 24.1927 5.28918 24.1927Z" fill="#DFFBF4" stroke="#13B58C"/>
<path d="M27.681 11.9031C28.7561 11.9031 29.6277 11.0293 29.6277 9.95136C29.6277 8.87345 28.7561 7.99963 27.681 7.99963C26.6059 7.99963 25.7344 8.87345 25.7344 9.95136C25.7344 11.0293 26.6059 11.9031 27.681 11.9031Z" fill="white" stroke="#13B58C"/>
<path d="M28.7823 11.9032H26.5789C25.4318 11.9032 24.4932 12.8442 24.4932 13.9944V15.6308C24.4932 15.8275 24.6522 15.987 24.8485 15.987H30.5128C30.709 15.987 30.8681 15.8275 30.8681 15.6308V13.9944C30.8681 12.8442 29.9295 11.9032 28.7823 11.9032Z" fill="#DFFBF4" stroke="#13B58C"/>
<path d="M4.18787 11.9031C5.26298 11.9031 6.13453 11.0293 6.13453 9.95136C6.13453 8.87345 5.26298 7.99963 4.18787 7.99963C3.11276 7.99963 2.24121 8.87345 2.24121 9.95136C2.24121 11.0293 3.11276 11.9031 4.18787 11.9031Z" fill="white" stroke="#13B58C"/>
<path d="M5.28918 11.9032H3.08575C1.93859 11.9032 1 12.8442 1 13.9944V15.6308C1 15.8275 1.15907 15.987 1.3553 15.987H7.01964C7.21586 15.987 7.37493 15.8275 7.37493 15.6308V13.9944C7.37493 12.8442 6.43634 11.9032 5.28918 11.9032Z" fill="#DFFBF4" stroke="#13B58C"/>
<path d="M15.934 4.90346C17.0091 4.90346 17.8806 4.02964 17.8806 2.95173C17.8806 1.87382 17.0091 1 15.934 1C14.8589 1 13.9873 1.87382 13.9873 2.95173C13.9873 4.02964 14.8589 4.90346 15.934 4.90346Z" fill="white" stroke="#13B58C"/>
<path d="M17.0353 4.90356H14.8318C13.6847 4.90356 12.7461 5.8446 12.7461 6.99475V8.63113C12.7461 8.82787 12.9052 8.98735 13.1014 8.98735H18.7657C18.962 8.98735 19.121 8.82787 19.121 8.63113V6.99475C19.121 5.8446 18.1824 4.90356 17.0353 4.90356Z" fill="#DFFBF4" stroke="#13B58C"/>
<path d="M15.934 31.9162C17.0091 31.9162 17.8806 31.0423 17.8806 29.9644C17.8806 28.8865 17.0091 28.0127 15.934 28.0127C14.8589 28.0127 13.9873 28.8865 13.9873 29.9644C13.9873 31.0423 14.8589 31.9162 15.934 31.9162Z" fill="white" stroke="#13B58C"/>
<path d="M17.0353 31.9161H14.8318C13.6847 31.9161 12.7461 32.8572 12.7461 34.0073V35.6437C12.7461 35.8404 12.9052 35.9999 13.1014 35.9999H18.7657C18.962 35.9999 19.121 35.8404 19.121 35.6437V34.0073C19.121 32.8572 18.1824 31.9161 17.0353 31.9161Z" fill="#DFFBF4" stroke="#13B58C"/>
</svg>
