<svg width="30" height="35" viewBox="0 0 30 35" fill="none" xmlns="http://www.w3.org/2000/svg">
<path d="M28.9351 34.0175V16.1383L16.8379 12.9292V33.9822L28.9351 34.0175Z" fill="white" stroke="#13B58C"/>
<path d="M23.9795 18.8889H26.1657V21.6396H23.9795V18.8889Z" fill="#13B58C"/>
<path d="M23.9795 23.7908H26.1657V26.5414H23.9795V23.7908Z" fill="#13B58C"/>
<path d="M23.9795 28.6925H26.1657V31.4431H23.9795V28.6925Z" fill="#13B58C"/>
<path d="M19.5703 18.8889H21.7565V21.6396H19.5703V18.8889Z" fill="#13B58C"/>
<path d="M19.5703 23.7908H21.7565V26.5414H19.5703V23.7908Z" fill="#13B58C"/>
<path d="M19.5703 28.6925H21.7565V31.4431H19.5703V28.6925Z" fill="#13B58C"/>
<path d="M17.5061 33.8667V1L1 4.17382V33.8667H17.5061Z" fill="#DFFBF4" stroke="#13B58C"/>
<path d="M10.3525 6.66663H13.8141V10.0666H10.3525V6.66663Z" fill="white" stroke="#13B58C"/>
<path d="M10.3525 13.4667H13.8141V16.8667H10.3525V13.4667Z" fill="white" stroke="#13B58C"/>
<path d="M10.3525 20.2667H13.8141V23.6667H10.3525V20.2667Z" fill="white" stroke="#13B58C"/>
<path d="M4.58301 6.66663H8.04455V10.0666H4.58301V6.66663Z" fill="white" stroke="#13B58C"/>
<path d="M4.58301 13.4667H8.04455V16.8667H4.58301V13.4667Z" fill="white" stroke="#13B58C"/>
<path d="M4.58301 20.2667H8.04455V23.6667H4.58301V20.2667Z" fill="white" stroke="#13B58C"/>
<path d="M7.1582 26.9517H11.3485V33.7517H7.1582V26.9517Z" fill="white" stroke="#13B58C"/>
</svg>
