<svg width="208" height="168" viewBox="0 0 208 168" fill="none" xmlns="http://www.w3.org/2000/svg">
<path d="M105.235 167.884C161.991 167.884 208 164.283 208 159.841C208 155.398 161.991 151.797 105.235 151.797C48.4802 151.797 2.47095 155.398 2.47095 159.841C2.47095 164.283 48.4802 167.884 105.235 167.884Z" fill="#3F3D56"/>
<path d="M192.528 144.899L193.491 151.975L186.749 152.618L187.712 143.934L192.528 144.899Z" fill="#F2B2BB"/>
<path d="M160.743 47.7638C160.743 47.7638 161.385 56.4481 161.385 56.7697C161.385 57.0914 156.89 79.2845 156.89 79.2845C156.89 79.2845 150.469 91.5068 156.89 91.1852C163.311 90.8636 161.385 79.6062 161.385 79.6062L168.127 60.951L165.238 47.7638L160.743 47.7638Z" fill="#A0616A"/>
<path d="M171.338 144.899L170.375 151.975L177.117 152.618L176.154 143.934L171.338 144.899Z" fill="#F2B2BB"/>
<path d="M163.953 78.6408L162.348 80.8923C162.348 80.8923 161.385 90.5415 162.348 93.7579C163.311 96.9743 165.237 111.77 165.237 112.735C165.237 113.7 165.558 114.343 165.237 114.664C164.916 114.986 163.953 114.986 164.595 115.629C165.237 116.273 165.237 118.203 165.237 118.203V119.811L169.411 143.612C169.411 143.612 166.843 146.507 168.769 146.507C170.695 146.507 177.758 146.507 177.437 143.29L176.795 142.969C176.795 142.969 175.832 121.741 176.153 120.776C176.474 119.811 176.153 117.881 176.153 117.881C176.153 117.881 175.511 116.916 176.153 116.594C176.795 116.273 176.795 113.7 176.795 113.7L179.685 94.0795C179.685 94.0795 182.253 107.267 183.859 108.553C185.464 109.84 185.143 113.056 185.143 113.056L186.427 141.361C186.427 141.361 185.143 144.577 186.427 145.22C187.711 145.864 193.169 148.115 193.49 144.899C193.811 141.682 195.417 113.7 195.417 112.413C195.417 111.126 195.096 110.483 195.417 109.518C195.738 108.553 195.096 108.553 195.417 108.553C195.738 108.553 194.775 107.588 194.775 106.945V91.1847C194.775 91.1847 195.096 87.9684 195.417 87.3251C195.738 86.6818 195.096 86.0385 195.417 85.0736C195.738 84.1087 194.775 80.8923 194.775 80.8923L180.327 77.0326L163.953 78.6408Z" fill="#2F2E41"/>
<path d="M175.19 150.689C175.19 150.689 176.795 149.081 174.548 149.081C173.105 149.11 171.684 149.439 170.374 150.045L168.769 155.835C168.769 155.835 162.187 161.142 169.571 160.499C176.956 159.856 175.832 160.338 175.832 160.338C175.832 160.338 178.079 159.695 178.4 159.051C178.721 158.408 177.758 149.081 177.758 149.081C177.758 149.081 176.795 151.654 175.19 150.689Z" fill="#2F2E41"/>
<path d="M188.996 150.689C188.996 150.689 187.39 149.081 189.638 149.081C191.081 149.11 192.502 149.439 193.811 150.045L195.417 155.835C195.417 155.835 201.998 161.142 194.614 160.499C187.23 159.856 187.39 160.338 187.39 160.338C187.39 160.338 185.143 159.695 184.822 159.051C184.501 158.408 186.427 149.081 186.427 149.081C186.427 149.081 187.39 151.654 188.996 150.689Z" fill="#2F2E41"/>
<path d="M168.128 22.3538C172.738 22.3538 176.475 18.6097 176.475 13.9912C176.475 9.37262 172.738 5.62854 168.128 5.62854C163.517 5.62854 159.78 9.37262 159.78 13.9912C159.78 18.6097 163.517 22.3538 168.128 22.3538Z" fill="#F2B2BB"/>
<path d="M165.238 20.1025C165.238 20.1025 166.522 26.5353 166.522 27.5002C166.522 28.4651 171.98 31.3599 171.98 31.3599L178.08 23.6405C178.08 23.6405 174.227 18.1727 174.227 16.8861L165.238 20.1025Z" fill="#F2B2BB"/>
<path d="M170.054 28.4649C170.054 28.4649 167.255 27.7188 166.407 26.4836C166.407 26.4836 157.532 35.2193 157.532 36.8275L164.596 49.3715C164.596 49.3715 164.596 53.8745 165.238 54.1961C165.88 54.5177 165.238 54.1961 165.238 55.4827C165.238 56.7692 163.312 65.1319 163.954 66.4184C164.596 67.705 165.238 66.7401 164.596 68.6699C163.954 70.5997 162.348 80.8922 162.348 80.8922C162.348 80.8922 168.127 78.9624 176.475 82.1788C184.822 85.3952 194.775 80.8922 194.775 80.8922C194.775 80.8922 192.207 75.1027 192.849 73.1729C193.491 71.243 191.243 67.705 191.243 67.705L189.638 38.1141C189.638 38.1141 191.886 24.9269 190.28 24.2836L187.07 22.997L176.788 21.7311C176.788 21.7311 174.227 28.1433 170.054 28.4649Z" fill="#D0CDE1"/>
<path d="M160.743 34.5765L157.532 36.828C157.532 36.828 155.927 41.6526 157.532 43.9041C159.138 46.1556 159.78 49.372 159.78 49.372L166.201 48.7287L160.743 34.5765Z" fill="#D0CDE1"/>
<path d="M161.754 5.15346L160.306 4.57272C160.306 4.57272 163.333 1.23349 167.546 1.52386L166.361 0.217189C166.361 0.217189 169.257 -0.944273 171.89 2.10458C173.274 3.7073 174.875 5.59121 175.873 7.71342H177.424L176.776 9.14106L179.042 10.5687L176.717 10.3123C176.937 11.5448 176.862 12.8121 176.497 14.0097L176.559 15.1381C176.559 15.1381 173.864 10.9608 173.864 10.3801V11.8319C173.864 11.8319 172.416 10.5253 172.416 9.65416L171.626 10.6705L171.231 9.07342L166.361 10.6705L167.151 9.3638L164.123 9.79937L165.308 8.20233C165.308 8.20233 161.885 10.0897 161.754 11.6868C161.622 13.2838 159.911 15.3164 159.911 15.3164L159.121 13.8645C159.121 13.8645 157.936 7.33122 161.754 5.15346Z" fill="#2F2E41"/>
<rect x="36.1082" y="69.9952" width="127.582" height="89.7848" fill="#F2F2F2"/>
<rect x="46.848" y="104.252" width="32.0343" height="56.0228" fill="#3F3D56"/>
<rect x="52.7738" y="107.613" width="8.62917" height="8.05875" fill="#F2F2F2"/>
<rect x="64.3274" y="107.613" width="8.62917" height="8.05875" fill="#F2F2F2"/>
<rect x="52.7738" y="118.602" width="8.62917" height="8.3518" fill="#F2F2F2"/>
<rect x="64.3274" y="118.602" width="8.62917" height="8.3518" fill="#F2F2F2"/>
<path d="M74.809 138.075C75.9339 138.075 76.8458 137.162 76.8458 136.035C76.8458 134.908 75.9339 133.994 74.809 133.994C73.684 133.994 72.7721 134.908 72.7721 136.035C72.7721 137.162 73.684 138.075 74.809 138.075Z" fill="#13B58C"/>
<rect x="89.6221" y="98.9338" width="63.328" height="53.2402" fill="#3F3D56"/>
<path d="M177.022 86.8985H22.7753L33.0596 65.3574L35.3612 60.5343L38.3723 54.2271L40.6738 49.404L43.342 43.8167H164.869L166.445 49.404L167.806 54.2271L169.585 60.5343L170.946 65.3574L177.022 86.8985Z" fill="#3F3D56"/>
<rect x="89.6221" y="134.737" width="63.328" height="1.29854" fill="#F2F2F2"/>
<rect x="120.731" y="98.9338" width="1.11102" height="11.8724" fill="#F2F2F2"/>
<path d="M121.286 112.662C122.309 112.662 123.138 111.831 123.138 110.806C123.138 109.782 122.309 108.951 121.286 108.951C120.264 108.951 119.435 109.782 119.435 110.806C119.435 111.831 120.264 112.662 121.286 112.662Z" fill="#F2F2F2"/>
<path d="M167.806 54.2264H38.3729L40.6745 49.4033H166.445L167.806 54.2264Z" fill="#13B58C"/>
<path d="M170.946 65.357H33.0599L35.3615 60.5339H169.586L170.946 65.357Z" fill="#13B58C"/>
<path d="M184.501 37.4712C184.501 37.4712 182.642 42.2606 183.03 46.9994C183.101 47.8478 183.387 48.6642 183.859 49.3719L161.082 60.2051C161.082 60.2051 150.79 61.2725 153.359 65.7755C155.927 70.2785 165.238 63.524 165.238 63.524C165.238 63.524 189.638 59.986 191.565 56.4479C193.491 52.9099 194.775 38.1145 194.775 38.1145L184.501 37.4712Z" fill="#F2B2BB"/>
<path d="M185.464 24.2841H190.28C190.28 24.2841 193.812 24.9273 194.775 31.3601C195.738 37.7929 196.701 39.4011 195.738 39.4011C194.775 39.4011 183.217 39.0795 183.217 38.7579C183.217 38.4362 185.464 24.2841 185.464 24.2841Z" fill="#D0CDE1"/>
<path d="M24.703 120.368C38.3461 120.368 49.406 109.288 49.406 95.6201C49.406 81.9522 38.3461 70.8722 24.703 70.8722C11.0599 70.8722 0 81.9522 0 95.6201C0 109.288 11.0599 120.368 24.703 120.368Z" fill="#13B58C"/>
<path opacity="0.1" d="M24.7028 116.903C36.4359 116.903 45.9474 107.374 45.9474 95.6196C45.9474 83.8652 36.4359 74.3364 24.7028 74.3364C12.9698 74.3364 3.45825 83.8652 3.45825 95.6196C3.45825 107.374 12.9698 116.903 24.7028 116.903Z" fill="black"/>
<path d="M23.6844 108.179V105.082C22.1213 105.051 20.5043 104.499 19.5612 103.732L20.2079 101.677C21.3287 102.519 22.688 102.98 24.0886 102.996C26.002 102.996 27.2956 101.738 27.2956 99.9902C27.2956 98.3033 26.2445 97.2606 24.2503 96.3404C21.5014 95.1136 19.8037 93.7027 19.8037 91.0345C19.8037 88.4887 21.3937 86.5565 23.8731 86.0965V82.9988H25.5439V85.9738C26.7898 85.9909 28.005 86.3632 29.0473 87.0472L28.3735 89.0715C27.3739 88.386 26.1893 88.0222 24.9779 88.0287C22.9029 88.0287 22.1213 89.4395 22.1213 90.6664C22.1213 92.2612 23.1184 93.0586 25.4631 94.1629C28.2387 95.451 29.6402 97.0458 29.6402 99.7754C29.6402 102.198 28.158 104.468 25.3821 104.989V108.179L23.6844 108.179Z" fill="#F2F2F2"/>
</svg>
