<svg width="31" height="28" viewBox="0 0 31 28" fill="none" xmlns="http://www.w3.org/2000/svg">
<path d="M2.91016 12.5424H8.95968V27.3824H2.91016V12.5424Z" fill="#DFFBF4" stroke="#13B58C"/>
<path d="M21.9082 12.5424H27.9577V27.3824H21.9082V12.5424Z" fill="#DFFBF4" stroke="#13B58C"/>
<path d="M29.8679 12.5424H1L4.39623 5.78625H26.4717L29.8679 12.5424Z" fill="#DFFBF4" stroke="#13B58C"/>
<path d="M21.9081 27.3823H8.95996V11.2117L15.434 5.57727L21.9081 11.2117V27.3823Z" fill="white" stroke="#13B58C"/>
<path d="M15.4341 14.525C16.2547 14.525 16.9199 13.8668 16.9199 13.055C16.9199 12.2431 16.2547 11.585 15.4341 11.585C14.6135 11.585 13.9482 12.2431 13.9482 13.055C13.9482 13.8668 14.6135 14.525 15.4341 14.525Z" fill="#13B58C"/>
<path d="M15.4336 2.91145V0.98645L18.8474 1.94909L15.4336 2.91145Z" fill="#13B58C"/>
<path d="M15.4338 5.0624C15.1602 5.0624 14.9385 4.84302 14.9385 4.5724V0.49C14.9385 0.21938 15.1602 0 15.4338 0C15.7073 0 15.929 0.21938 15.929 0.49V4.5724C15.929 4.84302 15.7073 5.0624 15.4338 5.0624Z" fill="#13B58C"/>
<path d="M11.1885 16.48H19.679V18.41H11.1885V16.48Z" fill="#13B58C"/>
<path d="M12.5801 20.1832H18.2877V27.3826H12.5801V20.1832Z" stroke="#13B58C"/>
<path d="M4.95996 16.48H6.91081V18.41H4.95996V16.48Z" fill="#13B58C"/>
<path d="M4.95996 20.1832H6.91081V22.1133H4.95996V20.1832Z" fill="#13B58C"/>
<path d="M23.957 16.48H25.9079V18.41H23.957V16.48Z" fill="#13B58C"/>
<path d="M23.957 20.1832H25.9079V22.1133H23.957V20.1832Z" fill="#13B58C"/>
<path d="M23.712 14.7225C23.4493 14.7228 23.1972 14.6195 23.0116 14.4355L15.4337 6.93846L7.85591 14.4352C7.46802 14.8114 6.84622 14.8084 6.46208 14.4284C6.07793 14.0485 6.07476 13.4333 6.45497 13.0495L14.7333 4.85946C14.919 4.67565 15.171 4.57239 15.4337 4.57239C15.6965 4.57239 15.9484 4.67565 16.1342 4.85946L24.4125 13.0495C24.6958 13.3297 24.7806 13.7513 24.6273 14.1175C24.4739 14.4837 24.1127 14.7225 23.712 14.7225Z" fill="#13B58C"/>
</svg>
