<svg width="32" height="32" viewBox="0 0 32 32" fill="none" xmlns="http://www.w3.org/2000/svg">
<path d="M15.9759 22.2277L15.9857 22.2343L15.9857 22.2343V22.2253L15.9901 22.2313L15.9955 22.2277H15.9955L15.9973 22.2253V22.2265L19.723 19.7267L19.7233 19.7268V17.844C19.4415 18.0389 19.171 18.25 18.9171 18.4804C17.2823 19.9643 15.6788 19.7101 15.6788 19.7101C14.7008 19.736 13.3077 18.7299 12.7137 18.2614C12.5626 18.1423 12.4073 18.0282 12.248 17.9203V19.7267L12.2483 19.7266L15.9759 22.2277Z" fill="white" stroke="#13B58C"/>
<path d="M12.0251 5.9448H14.3444C14.5558 5.9448 14.7659 5.91265 14.9671 5.84782C15.3873 5.71251 16.0552 5.46314 16.5609 5.27022C17.0119 5.09812 17.5086 5.092 17.9638 5.25247L20.405 6.11298C22.0475 6.7188 22.215 8.26698 22.215 8.26698V12.6423C22.215 12.6423 22.4305 11.1818 23.1754 9.98218C23.3563 9.69088 23.4553 9.35592 23.4553 9.01263V5.23802C23.4553 5.23802 23.2206 3.3869 21.4106 2.94939C21.4106 2.94939 22.148 1.37292 20.2374 1H13.1983C10.625 1 8.53906 3.09449 8.53906 5.67822V8.45157C8.53906 9.05249 8.73943 9.63725 9.11418 10.1057C9.40906 10.4744 9.71528 11.054 9.76254 11.8926V8.21653C10.215 6.18033 12.0251 5.9448 12.0251 5.9448Z" fill="#DFFBF4" stroke="#13B58C"/>
<path d="M15.6789 19.7101C15.6789 19.7101 17.2823 19.9643 18.9172 18.4805C19.1711 18.25 19.4416 18.039 19.7234 17.844C19.7512 17.8248 19.7784 17.8048 19.8064 17.786C20.5302 17.2978 21.9207 15.9443 22.2152 12.6424V8.2671C22.2152 8.2671 22.0476 6.71892 20.4052 6.1131L17.964 5.25259C17.5088 5.09212 17.012 5.09825 16.561 5.27035C16.0553 5.46327 15.3875 5.71263 14.9673 5.84794C14.766 5.91272 14.5559 5.94492 14.3445 5.94492H12.0253C12.0253 5.94492 10.2152 6.18045 9.7627 8.21666V11.8928V12.7435C9.7627 12.7435 9.84148 16.3193 12.1993 17.8865C12.2159 17.8975 12.2317 17.9093 12.2481 17.9205C12.4073 18.0284 12.5625 18.1425 12.7137 18.2616C13.3078 18.7299 14.7009 19.736 15.6789 19.7101Z" fill="white" stroke="#13B58C"/>
<path d="M17.2618 23.9801L16.6133 24.9151L17.2122 28.7051L18.713 25.9648L17.2618 23.9801Z" fill="white"/>
<path d="M14.7679 28.7218L15.3694 24.915L14.7152 23.9717L13.2578 25.9647L14.7679 28.7218Z" fill="white"/>
<path d="M14.7804 23.883L14.7295 23.9526L15.9859 22.241V22.2348L15.9858 22.2346L14.7804 23.883Z" fill="#D5D6DB"/>
<path d="M17.2119 28.7051L16.613 24.915L17.2614 23.9801L17.2615 23.9799L15.9852 22.2346V22.2349V22.2411L14.7288 23.9527L14.715 23.9716L14.7148 23.9717L15.3691 24.915L14.7675 28.7218V28.7219L15.9851 30.9448L17.2119 28.7054L17.2119 28.7051Z" fill="#13B58C"/>
<path d="M16.0173 22.2442L16.0144 22.2481L16.0173 22.2462V22.2442Z" fill="#E56353"/>
<path d="M16.0034 22.242V22.2568L16.0107 22.2519L16.0034 22.242Z" fill="#E56353"/>
<path d="M15.997 22.2266L15.9952 22.2278H15.9952L15.9899 22.2314L15.9854 22.2344L15.9854 22.2344H15.9854L15.9854 22.2345L15.9854 22.2346L17.2617 23.9799L18.7133 25.965L21.7339 20.4507L19.723 19.7269L19.7227 19.7268L15.997 22.2266Z" fill="white" stroke="#13B58C"/>
<path d="M14.7155 23.9717L14.7156 23.9716L14.7804 23.8831L15.9858 22.2345L15.9858 22.2344H15.9858L15.976 22.2278L12.2485 19.7268L12.2482 19.7269L10.2373 20.4507L13.2579 25.965L14.7155 23.9717Z" fill="white" stroke="#13B58C"/>
<path d="M30.952 29.3397L30.2755 25.2377C30.093 24.1312 29.3297 23.2099 28.2793 22.8283L21.7342 20.4507L23.4726 23.9509L21.2985 23.9846L22.0358 25.3982L16.1094 30.8417L15.9932 30.9585L15.9973 30.966H17.5696H29.5785C30.4382 30.966 31.0924 30.1914 30.952 29.3397Z" fill="#DFFBF4" stroke="#13B58C"/>
<path d="M17.2121 28.7054L15.9854 30.9448L15.9854 30.9449L15.9892 30.9518L16.1091 30.8416L22.0355 25.3981L21.2982 23.9846L23.4722 23.9509L21.7339 20.4507L18.7133 25.965L17.2121 28.7054Z" fill="#13B58C"/>
<path d="M15.9799 30.9603L15.9779 30.9583L15.8617 30.8416L9.9352 25.3981L10.6726 23.9845L8.49855 23.9508L10.2369 20.4506L3.69178 22.8282C2.64142 23.2098 1.87813 24.1311 1.69563 25.2376L1.01904 29.3396C0.878613 30.1913 1.53282 30.9659 2.39258 30.9659H14.4132H15.3411H15.3526H15.9853H15.9854L15.9854 30.9658L15.9799 30.9603Z" fill="#DFFBF4" stroke="#13B58C"/>
<path d="M15.9934 30.9584L15.9897 30.9518L15.9859 30.9449L15.9859 30.9448L14.7682 28.7219L13.258 25.965L10.2374 20.4507L8.49902 23.9509L10.6731 23.9846L9.93567 25.3981L15.8621 30.8416L15.9821 30.9518L15.9859 30.9553L15.9859 30.9554L15.9914 30.9604L15.9975 30.966L15.9934 30.9584Z" fill="#13B58C"/>
</svg>
