<svg width="24" height="24" viewBox="0 0 24 24" fill="none" xmlns="http://www.w3.org/2000/svg">
<path d="M21.546 7.93789L19.4386 4.49805C19.2502 4.18926 18.9158 4 18.5586 4H5.44014C5.08296 4 4.7485 4.18926 4.56017 4.49805L2.45277 7.93789C1.36498 9.71426 2.32938 12.1846 4.36209 12.4668C4.50821 12.4867 4.65758 12.4967 4.80695 12.4967C5.7681 12.4967 6.61885 12.065 7.20334 11.3977C7.78782 12.065 8.64182 12.4967 9.59973 12.4967C10.5609 12.4967 11.4116 12.065 11.9961 11.3977C12.5806 12.065 13.4346 12.4967 14.3925 12.4967C15.3537 12.4967 16.2044 12.065 16.7889 11.3977C17.3766 12.065 18.2274 12.4967 19.1853 12.4967C19.3379 12.4967 19.484 12.4867 19.6301 12.4668C21.6693 12.1879 22.637 9.71758 21.546 7.93789ZM19.1918 13.5625C18.8671 13.5625 18.5456 13.5127 18.2339 13.4363V16.75H5.76486V13.4363C5.45313 13.5094 5.13166 13.5625 4.80695 13.5625C4.61212 13.5625 4.41404 13.5492 4.22246 13.5227C4.04062 13.4961 3.86203 13.4529 3.68993 13.4031V19.9375C3.68993 20.5252 4.15427 21 4.72902 21H19.2762C19.851 21 20.3153 20.5252 20.3153 19.9375V13.4031C20.1399 13.4563 19.9646 13.4994 19.7828 13.5227C19.5847 13.5492 19.3899 13.5625 19.1918 13.5625Z" fill="#13B58C"/>
</svg>
