<svg width="24" height="24" viewBox="0 0 24 24" fill="none" xmlns="http://www.w3.org/2000/svg">
<path fill-rule="evenodd" clip-rule="evenodd" d="M19.7089 10.3386C20.316 9.94433 20.316 9.05567 19.7089 8.66137L16.5448 6.6062C15.8795 6.17409 15.0001 6.65154 15.0001 7.44482L15.0001 8L7.00008 8C6.4478 8 6.00008 8.44771 6.00008 9L6.00008 10C6.00008 10.5523 6.4478 11 7.00008 11L15.0001 11L15.0001 11.5552C15.0001 12.3485 15.8795 12.8259 16.5448 12.3938L19.7089 10.3386ZM4.29123 14.6614C3.68417 15.0557 3.68417 15.9443 4.29123 16.3386L7.45538 18.3938C8.12065 18.8259 9.00008 18.3485 9.00008 17.5552L9.00008 17H17.0001C17.5524 17 18.0001 16.5523 18.0001 16V15C18.0001 14.4477 17.5524 14 17.0001 14H9.00008L9.00008 13.4448C9.00008 12.6515 8.12065 12.1741 7.45537 12.6062L4.29123 14.6614Z" fill="#13B58C"/>
</svg>
