<svg width="32" height="32" viewBox="0 0 32 32" fill="none" xmlns="http://www.w3.org/2000/svg">
<path d="M5 4.86957C5 3.28475 6.28475 2 7.86957 2V29.7391C6.28475 29.7391 5 28.4544 5 26.8696V4.86957Z" fill="url(#paint0_linear)"/>
<path d="M7.86951 2H26.9999V29.7391H7.86951V2Z" fill="#13B58C"/>
<path d="M21.7391 2H27V7.73913H21.7391V2Z" fill="#DFFBF4"/>
<path d="M27 7.73913H7.86957C7.10851 7.73913 6.37862 7.4368 5.84048 6.89865C5.30233 6.36051 5 5.63062 5 4.86957C5 4.10851 5.30233 3.37862 5.84048 2.84048C6.37862 2.30233 7.10851 2 7.86957 2H27C26.3215 1.99999 25.665 2.24037 25.1469 2.67846C24.6288 3.11656 24.2826 3.72404 24.1699 4.3931C24.1173 4.70856 24.1173 5.03057 24.1699 5.34603C24.2826 6.01509 24.6288 6.62257 25.1469 7.06067C25.665 7.49876 26.3215 7.73914 27 7.73913Z" fill="white"/>
<path d="M24.1305 4.86957C24.1305 5.02921 24.1437 5.18857 24.1699 5.34604C24.1568 5.34724 24.1436 5.34783 24.1305 5.34783H12.6522C12.5254 5.34783 12.4037 5.29745 12.314 5.20775C12.2243 5.11806 12.174 4.99642 12.174 4.86957C12.174 4.74273 12.2243 4.62108 12.314 4.53139C12.4037 4.4417 12.5254 4.39131 12.6522 4.39131H24.1305C24.1436 4.39131 24.1568 4.39191 24.1699 4.39311C24.1437 4.55057 24.1305 4.70994 24.1305 4.86957Z" fill="#DFFBF4"/>
<path d="M11.6957 11.5652H23.1739V17.3044H11.6957V11.5652Z" fill="#E9EEF2"/>
<path d="M20.3043 15.8696H14.5652C14.4383 15.8696 14.3167 15.8192 14.227 15.7295C14.1373 15.6398 14.0869 15.5182 14.0869 15.3913C14.0869 15.2645 14.1373 15.1428 14.227 15.0531C14.3167 14.9634 14.4383 14.9131 14.5652 14.9131H20.3043C20.4311 14.9131 20.5528 14.9634 20.6425 15.0531C20.7322 15.1428 20.7826 15.2645 20.7826 15.3913C20.7826 15.5182 20.7322 15.6398 20.6425 15.7295C20.5528 15.8192 20.4311 15.8696 20.3043 15.8696Z" fill="url(#paint1_linear)"/>
<path d="M18.8696 13.9565H16C15.8731 13.9565 15.7515 13.9061 15.6618 13.8164C15.5721 13.7268 15.5217 13.6051 15.5217 13.4783C15.5217 13.3514 15.5721 13.2298 15.6618 13.1401C15.7515 13.0504 15.8731 13 16 13H18.8696C18.9964 13 19.118 13.0504 19.2077 13.1401C19.2974 13.2298 19.3478 13.3514 19.3478 13.4783C19.3478 13.6051 19.2974 13.7268 19.2077 13.8164C19.118 13.9061 18.9964 13.9565 18.8696 13.9565Z" fill="url(#paint2_linear)"/>
<defs>
<linearGradient id="paint0_linear" x1="4.9417" y1="2" x2="4.9417" y2="29.7391" gradientUnits="userSpaceOnUse">
<stop stop-color="#2BDBC0"/>
<stop offset="1" stop-color="#13B58C"/>
</linearGradient>
<linearGradient id="paint1_linear" x1="13.9509" y1="14.9131" x2="13.9509" y2="15.8696" gradientUnits="userSpaceOnUse">
<stop stop-color="#2BDBC0"/>
<stop offset="1" stop-color="#13B58C"/>
</linearGradient>
<linearGradient id="paint2_linear" x1="15.444" y1="13" x2="15.444" y2="13.9565" gradientUnits="userSpaceOnUse">
<stop stop-color="#2BDBC0"/>
<stop offset="1" stop-color="#13B58C"/>
</linearGradient>
</defs>
</svg>
