<svg width="32" height="32" viewBox="0 0 32 32" fill="none" xmlns="http://www.w3.org/2000/svg">
<path d="M27.9993 4.9396V22.1024H3.00071V4.9396C2.98122 4.44281 3.3661 4.02329 3.86273 4H27.1373C27.6339 4.02329 28.0188 4.44281 27.9993 4.9396Z" fill="#DFFBF4"/>
<path d="M25.0081 4C24.6891 6.49986 22.797 19.094 3.00071 19.2707V4.9396C2.98122 4.44281 3.3661 4.02329 3.86273 4H25.0081Z" fill="#BFFBEC"/>
<path d="M27.9993 22.1024V23.7489C28.0188 24.2457 27.6339 24.6652 27.1373 24.6885H3.86273C3.3661 24.6652 2.98122 24.2457 3.00071 23.7489V22.1024H27.9993Z" fill="#13B58C"/>
<path d="M20.2417 27.2747H10.7589L12.052 24.6885H18.9486L20.2417 27.2747Z" fill="#21A382"/>
<path d="M22.828 28.1366C22.8266 28.6121 22.4415 28.9973 21.966 28.9987H9.03492C8.56028 28.9952 8.17637 28.6113 8.17285 28.1366C8.17427 27.6611 8.5594 27.276 9.03492 27.2746H21.966C22.4406 27.2781 22.8245 27.662 22.828 28.1366Z" fill="#13B58C"/>
<path d="M4.7249 7.87929C4.55059 7.87926 4.39346 7.77424 4.32676 7.6132C4.26006 7.45216 4.29692 7.26679 4.42016 7.14352L6.1443 5.41938C6.25252 5.30733 6.41278 5.26239 6.56348 5.30184C6.71418 5.34129 6.83188 5.45898 6.87132 5.60968C6.91077 5.76038 6.86583 5.92064 6.75378 6.02886L5.02964 7.753C4.94883 7.83384 4.83921 7.87927 4.7249 7.87929Z" fill="#DFFBF4"/>
<path d="M4.7249 10.4655C4.55059 10.4655 4.39346 10.3604 4.32676 10.1994C4.26006 10.0384 4.29692 9.853 4.42016 9.72972L8.7305 5.41938C8.83873 5.30733 8.99899 5.26239 9.14969 5.30184C9.30039 5.34129 9.41808 5.45898 9.45753 5.60968C9.49697 5.76038 9.45204 5.92064 9.33999 6.02886L5.02964 10.3392C4.94883 10.42 4.83921 10.4655 4.7249 10.4655Z" fill="#DFFBF4"/>
</svg>
