<svg width="32" height="32" viewBox="0 0 32 32" fill="none" xmlns="http://www.w3.org/2000/svg">
<path d="M26.3028 8H6.50052C4.01886 8 2 10.0189 2 12.5005V20.4995C2 22.9811 4.01886 25 6.50052 25H26.3028C28.7844 25 30.8033 22.9811 30.8033 20.4995V12.5005C30.8033 10.0189 28.7844 8 26.3028 8Z" fill="#13B58C"/>
<path d="M26.3027 8H16.4016V25H26.3027C28.7844 25 30.8033 22.9811 30.8033 20.4995V12.5005C30.8033 10.0189 28.7844 8 26.3027 8Z" fill="#1D9F7E"/>
<path d="M7.68188 10.8128H25.1214V22.1872H7.68188V10.8128Z" fill="#DFFBF4"/>
<path d="M16.4016 10.8128H25.1214V22.1872H16.4016V10.8128Z" fill="#C7F0E6"/>
<path d="M25.9653 12.2192H28.2156V14.4695H25.9653V12.2192Z" fill="white"/>
<path d="M4.58789 12.2192H6.83815V14.4695H4.58789V12.2192Z" fill="white"/>
</svg>
