<svg width="32" height="32" viewBox="0 0 32 32" fill="none" xmlns="http://www.w3.org/2000/svg">
<path d="M27.1146 16C27.1146 22.0751 22.164 27 16.0573 27C9.95059 27 5 22.0751 5 16C5 9.92493 9.95059 5 16.0573 5C22.164 5 27.1146 9.92493 27.1146 16Z" fill="#DFFBF4"/>
<path d="M25.6801 10.5847V10.5883C25.5393 10.3405 25.3926 10.097 25.2334 9.86197L24.4122 13.334L20.0852 14.7688L16.452 11.8772V7.61811L20.5949 5.97025L20.5108 5.93355C20.4187 5.89399 20.3262 5.85513 20.2333 5.817C17.5669 4.73526 14.5817 4.73043 11.9119 5.80375C11.803 5.84779 11.6954 5.89309 11.589 5.93982L11.4987 5.98046L15.6626 7.61882V11.8772L12.0294 14.7688L7.7035 13.3344L6.8823 9.86197C6.73886 10.0736 6.60587 10.2926 6.47683 10.5144V10.511C5.50788 12.1789 4.99838 14.0715 5 15.9979C5 16.3429 5.018 16.6834 5.04986 17.0206L7.50013 14.094L11.7778 15.5124L12.8643 19.8361L10.7498 22.6411L6.81481 22.0228C6.88302 22.1256 6.95501 22.2253 7.02609 22.3254L7.01134 22.3233C8.43201 24.3337 10.4873 25.8141 12.8506 26.5292L12.8425 26.5142C13.1441 26.6058 13.4492 26.6887 13.7611 26.7544L11.4044 23.084L13.4913 20.3161H18.6251L20.7422 23.0976L18.6872 26.6778C18.9503 26.6135 19.2089 26.5372 19.4648 26.4549L19.4578 26.4683C21.7411 25.7321 23.7224 24.2782 25.1033 22.3251L25.0885 22.3272C25.1596 22.2271 25.2316 22.1274 25.2998 22.0248L21.3833 22.6375L19.2507 19.8361L20.3368 15.5134L24.6145 14.094L27.0649 17.0193C27.0865 16.7855 27.0991 16.549 27.1065 16.3118C27.1094 16.2076 27.1146 16.1043 27.1146 15.9997C27.1166 14.1016 26.6222 12.2355 25.6801 10.5847Z" fill="#13B58C"/>
<path d="M16.0573 27C9.95059 27 5 22.0751 5 16C5 9.92493 9.95059 5 16.0573 5C22.164 5 27.1146 9.92493 27.1146 16C27.1077 22.0722 22.1611 26.9932 16.0573 27ZM16.0573 5.73333C10.3577 5.73333 5.73715 10.3299 5.73715 16C5.73715 21.6701 10.3577 26.2667 16.0573 26.2667C21.7569 26.2667 26.3774 21.6701 26.3774 16C26.371 10.3326 21.7542 5.73978 16.0573 5.73333Z" fill="#13B58C"/>
</svg>
