<svg width="32" height="32" viewBox="0 0 32 32" fill="none" xmlns="http://www.w3.org/2000/svg">
<path d="M30.1504 10.6094H19.8984C18.522 10.6094 17.2817 11.2891 16.5 12.3256C15.7183 11.272 14.478 10.6094 13.1016 10.6094H2.84961C2.3737 10.6094 2 10.9831 2 11.459V28.4512C2 28.9271 2.3737 29.3008 2.84961 29.3008H12.4048C13.6963 29.3008 14.9707 29.8276 15.9053 30.7451C16.0582 30.915 16.2792 31 16.5 31C16.7208 31 16.9418 30.915 17.0947 30.7451C18.0293 29.8276 19.3037 29.3008 20.5952 29.3008H30.1504C30.6263 29.3008 31 28.9271 31 28.4512V11.459C31 10.9831 30.6263 10.6094 30.1504 10.6094Z" fill="#13B58C"/>
<path d="M31 11.459V28.4512C31 28.9271 30.6263 29.3008 30.1504 29.3008H20.5952C19.3037 29.3008 18.0293 29.8276 17.0947 30.7451C16.9418 30.915 16.7208 31 16.5 31V12.3256C17.2817 11.2891 18.522 10.6094 19.8984 10.6094H30.1504C30.6263 10.6094 31 10.9831 31 11.459Z" fill="#13B58C"/>
<path d="M16.5 29.0134C17.6709 28.1091 19.1254 27.6016 20.5952 27.6016H29.3008V10.6094H19.8984C18.522 10.6094 17.2817 11.2891 16.5 12.3256C15.7183 11.272 14.478 10.6094 13.1016 10.6094H3.69922V27.6016H12.4048C13.8746 27.6016 15.3291 28.1091 16.5 29.0134Z" fill="#DFFBF4"/>
<path d="M20.5952 27.6016H29.3008V10.6094H19.8984C18.6081 10.6094 17.4372 11.2068 16.6518 12.1356C16.5996 12.1973 16.5489 12.2608 16.5 12.3256V29.0134C17.6709 28.1091 19.1254 27.6016 20.5952 27.6016Z" fill="#DFFBF4"/>
<path d="M11.4023 22.5039H6.24805C5.77855 22.5039 5.39844 22.1238 5.39844 21.6543C5.39844 21.1848 5.77855 20.8047 6.24805 20.8047H11.4023C11.8718 20.8047 12.252 21.1848 12.252 21.6543C12.252 22.1238 11.8718 22.5039 11.4023 22.5039Z" fill="#A8D3D8"/>
<path d="M11.4023 25.9023H6.24805C5.77855 25.9023 5.39844 25.5222 5.39844 25.0527C5.39844 24.5832 5.77855 24.2031 6.24805 24.2031H11.4023C11.8718 24.2031 12.252 24.5832 12.252 25.0527C12.252 25.5222 11.8718 25.9023 11.4023 25.9023Z" fill="#A8D3D8"/>
<path d="M26.752 25.9023H21.5977C21.1282 25.9023 20.748 25.5222 20.748 25.0527C20.748 24.5832 21.1282 24.2031 21.5977 24.2031H26.752C27.2215 24.2031 27.6016 24.5832 27.6016 25.0527C27.6016 25.5222 27.2215 25.9023 26.752 25.9023Z" fill="#8EBAC5"/>
<path d="M26.752 22.5039H21.5977C21.1282 22.5039 20.748 22.1238 20.748 21.6543C20.748 21.1848 21.1282 20.8047 21.5977 20.8047H26.752C27.2215 20.8047 27.6016 21.1848 27.6016 21.6543C27.6016 22.1238 27.2215 22.5039 26.752 22.5039Z" fill="#8EBAC5"/>
<path d="M11.4023 19.1055H6.24805C5.77855 19.1055 5.39844 18.7254 5.39844 18.2559C5.39844 17.7864 5.77855 17.4062 6.24805 17.4062H11.4023C11.8718 17.4062 12.252 17.7864 12.252 18.2559C12.252 18.7254 11.8718 19.1055 11.4023 19.1055Z" fill="#A8D3D8"/>
<path d="M26.752 19.1055H21.5977C21.1282 19.1055 20.748 18.7254 20.748 18.2559C20.748 17.7864 21.1282 17.4062 21.5977 17.4062H26.752C27.2215 17.4062 27.6016 17.7864 27.6016 18.2559C27.6016 18.7254 27.2215 19.1055 26.752 19.1055Z" fill="#8EBAC5"/>
<path d="M26.752 15.707H21.5977C21.1282 15.707 20.748 15.3269 20.748 14.8574C20.748 14.3879 21.1282 14.0078 21.5977 14.0078H26.752C27.2215 14.0078 27.6016 14.3879 27.6016 14.8574C27.6016 15.3269 27.2215 15.707 26.752 15.707Z" fill="#8EBAC5"/>
<path d="M11.4023 15.707H6.24805C5.77855 15.707 5.39844 15.3269 5.39844 14.8574C5.39844 14.3879 5.77855 14.0078 6.24805 14.0078H11.4023C11.8718 14.0078 12.252 14.3879 12.252 14.8574C12.252 15.3269 11.8718 15.707 11.4023 15.707Z" fill="#A8D3D8"/>
<path d="M18.1992 22.5039C18.1992 22.5889 18.1822 22.6909 18.1481 22.7758L17.2985 25.3247C17.1967 25.6645 16.8737 25.9023 16.5 25.9023C16.1263 25.9023 15.8033 25.6645 15.7015 25.3247L14.8519 22.7758C14.8178 22.6909 14.8008 22.5889 14.8008 22.5039L16.5 20.8047L18.1992 22.5039Z" fill="#F49C80"/>
<path d="M16.5 20.8047L18.1992 22.5039C18.1992 22.5889 18.1822 22.6909 18.1481 22.7758L17.2985 25.3247C17.1967 25.6645 16.8737 25.9023 16.5 25.9023V20.8047Z" fill="#FFA78F"/>
<path d="M18.1992 2.84961V5.39844L16.5 7.09766L14.8008 5.39844V2.84961C14.8008 2.3737 15.1745 2 15.6504 2H17.3496C17.8255 2 18.1992 2.3737 18.1992 2.84961Z" fill="url(#paint0_linear)"/>
<path d="M18.1992 2.84961V5.39844L16.5 7.09766V2H17.3496C17.8255 2 18.1992 2.3737 18.1992 2.84961Z" fill="url(#paint1_linear)"/>
<path d="M14.8008 5.39844H18.1992V22.5039H14.8008V5.39844Z" fill="#13B58C"/>
<path d="M16.5 5.39844H18.1992V22.5039H16.5V5.39844Z" fill="#13B58C"/>
<defs>
<linearGradient id="paint0_linear" x1="14.7317" y1="2" x2="14.7317" y2="7.09766" gradientUnits="userSpaceOnUse">
<stop stop-color="#2BDBC0"/>
<stop offset="1" stop-color="#13B58C"/>
</linearGradient>
<linearGradient id="paint1_linear" x1="16.4655" y1="2" x2="16.4655" y2="7.09766" gradientUnits="userSpaceOnUse">
<stop stop-color="#2BDBC0"/>
<stop offset="1" stop-color="#13B58C"/>
</linearGradient>
</defs>
</svg>
