<svg width="32" height="32" viewBox="0 0 32 32" fill="none" xmlns="http://www.w3.org/2000/svg">
<path d="M24.1465 8.70314V12.1016C24.1465 12.5773 23.7728 12.9512 23.2969 12.9512C22.821 12.9512 22.4473 12.5773 22.4473 12.1016V8.70314C22.4473 5.42374 19.7794 2.69923 16.5 2.69923C13.2206 2.69923 10.5527 5.42374 10.5527 8.70314V12.1016C10.5527 12.5773 10.179 12.9512 9.70312 12.9512C9.22721 12.9512 8.85352 12.5773 8.85352 12.1016V8.70314C8.85352 4.48895 12.286 1.00002 16.5 1.00002C20.714 1.00002 24.1465 4.48895 24.1465 8.70314Z" fill="#13B58C"/>
<path d="M24.1465 8.70314V12.1016C24.1465 12.5773 23.7728 12.9512 23.2969 12.9512C22.821 12.9512 22.4473 12.5773 22.4473 12.1016V8.70314C22.4473 5.42374 19.7794 2.69923 16.5 2.69923V1.00002C20.714 1.00002 24.1465 4.48895 24.1465 8.70314Z" fill="#13B58C"/>
<path d="M31 22.229C31 26.477 27.477 30 23.229 30H9.77105C5.523 30 2 26.477 2 22.229C2 21.0225 2.28873 19.833 2.81554 18.7624L5.54004 13.4269H27.46L30.1845 18.7624C30.7113 19.833 31 21.0225 31 22.229Z" fill="#13B58C"/>
<path d="M31 22.229C31 26.477 27.477 30 23.229 30H16.5V13.4269H27.46L30.1845 18.7624C30.7113 19.833 31 21.0225 31 22.229Z" fill="#13B58C"/>
<path d="M27.5449 12.1016V13.8008C27.5449 19.9009 22.6002 24.8457 16.5 24.8457C10.3998 24.8457 5.45508 19.9009 5.45508 13.8008V12.1016C5.45508 11.6257 5.82877 11.252 6.30469 11.252H26.6953C27.1712 11.252 27.5449 11.6257 27.5449 12.1016Z" fill="#DFFBF4"/>
<path d="M27.5449 12.1016V13.8008C27.5449 19.9009 22.6002 24.8457 16.5 24.8457V11.252H26.6953C27.1712 11.252 27.5449 11.6257 27.5449 12.1016Z" fill="#DFFBF4"/>
<path d="M24.1465 15.5C24.1465 15.9693 23.7662 16.3496 23.2969 16.3496C22.8276 16.3496 22.4473 15.9693 22.4473 15.5C22.4473 15.0307 22.8276 14.6504 23.2969 14.6504C23.7662 14.6504 24.1465 15.0307 24.1465 15.5Z" fill="#13B58C"/>
<path d="M10.5527 15.5C10.5527 15.9693 10.1724 16.3496 9.70312 16.3496C9.23385 16.3496 8.85352 15.9693 8.85352 15.5C8.85352 15.0307 9.23385 14.6504 9.70312 14.6504C10.1724 14.6504 10.5527 15.0307 10.5527 15.5Z" fill="#13B58C"/>
<path d="M19.1171 20.6634V25.0286C19.1171 26.84 17.9483 28.3024 16.5 28.3024C15.0518 28.3024 13.8829 26.84 13.8829 25.0286V20.6634H19.1171Z" fill="#13B58C"/>
<path d="M16.4293 20.6634H19.1171V25.0286C19.1171 26.84 17.9167 28.3024 16.4293 28.3024V20.6634Z" fill="#13B58C"/>
<path d="M16.5 18.0488C15.0895 18.0488 13.9512 19.1872 13.9512 20.5977C13.9512 22.0079 15.0895 23.1465 16.5 23.1465C17.9105 23.1465 19.0488 22.0079 19.0488 20.5977C19.0488 19.1872 17.9105 18.0488 16.5 18.0488Z" fill="#13B58C"/>
<path d="M19.0488 20.5977C19.0488 22.0079 17.9105 23.1465 16.5 23.1465V18.0488C17.9105 18.0488 19.0488 19.1872 19.0488 20.5977Z" fill="#13B58C"/>
</svg>
