<svg width="32" height="32" viewBox="0 0 32 32" fill="none" xmlns="http://www.w3.org/2000/svg">
<path d="M10.086 17.122C10.2768 16.7738 10.3902 16.4598 10.3902 16.1463C10.3837 15.8148 10.3281 15.486 10.225 15.1707C9.67988 13.3927 7.96768 11.3287 7.95122 9.80488C7.94329 9.03354 8.92683 6.87805 8.92683 6.87805L9.41463 2H10.3902L10.878 6.87805C12.8293 6.87805 14.4427 8.82927 15.7561 8.82927C17.0695 8.82927 18.6829 6.87805 20.6341 6.87805L21.122 2H22.0976L22.5854 6.87805C22.5854 6.87805 23.5689 9.03354 23.561 9.80488C23.5445 11.3287 21.8323 13.3927 21.2872 15.1707C21.1841 15.486 21.1285 15.8148 21.122 16.1463C21.122 16.4598 21.2482 16.7738 21.4598 17.122C22.5646 18.939 26 21.6957 26 30.2927H6C6 21.6957 9.09207 18.939 10.086 17.122Z" fill="#13B58C"/>
<path d="M10.0859 17.122C10.2768 16.7738 10.3902 16.4598 10.3902 16.1463C10.3837 15.8148 10.328 15.486 10.225 15.1707H21.2872C21.1841 15.486 21.1284 15.8148 21.1219 16.1463C21.1219 16.4598 21.2481 16.7738 21.4597 17.122H10.0859Z" fill="#DFFBF4"/>
<path d="M20.6342 20.5366C20.9036 20.5366 21.122 20.3182 21.122 20.0488C21.122 19.7794 20.9036 19.561 20.6342 19.561C20.3648 19.561 20.1464 19.7794 20.1464 20.0488C20.1464 20.3182 20.3648 20.5366 20.6342 20.5366Z" fill="#DFFBF4"/>
<path d="M11.3659 20.5366C11.6353 20.5366 11.8537 20.3182 11.8537 20.0488C11.8537 19.7794 11.6353 19.561 11.3659 19.561C11.0964 19.561 10.8781 19.7794 10.8781 20.0488C10.8781 20.3182 11.0964 20.5366 11.3659 20.5366Z" fill="#DFFBF4"/>
<path d="M10.8415 22.1849C10.8896 22.0653 10.8884 21.9316 10.8383 21.813C10.7881 21.6943 10.693 21.6003 10.5738 21.5514C10.4546 21.5026 10.3209 21.5029 10.2019 21.5523C10.0829 21.6017 9.98829 21.6962 9.9387 21.8151C8.93114 24.276 8.42017 27.128 8.42017 30.2927H9.39578C9.39578 27.2557 9.88224 24.5278 10.8415 22.1849Z" fill="#DFFBF4"/>
<path d="M23.5611 30.2927C23.5611 27.1182 23.0567 24.2664 22.0618 21.8164C22.0379 21.7567 22.0025 21.7023 21.9576 21.6563C21.9126 21.6104 21.859 21.5737 21.7999 21.5485C21.7407 21.5234 21.6772 21.5101 21.6129 21.5096C21.5486 21.509 21.4848 21.5212 21.4252 21.5454C21.3657 21.5696 21.3115 21.6053 21.2657 21.6505C21.22 21.6958 21.1837 21.7496 21.1589 21.8089C21.134 21.8682 21.1211 21.9318 21.121 21.9961C21.1208 22.0604 21.1334 22.1241 21.1579 22.1835C22.1051 24.5164 22.5855 27.2447 22.5855 30.2927H23.5611Z" fill="#DFFBF4"/>
</svg>
