<svg width="37" height="29" viewBox="0 0 37 29" fill="none" xmlns="http://www.w3.org/2000/svg">
<path d="M33.3179 9.11201C33.1772 8.0663 33.1574 6.26521 34.14 5.66043C34.1575 5.64934 34.1706 5.63332 34.186 5.61957C34.9893 5.36558 35.5453 5.00914 35.1089 4.52951L23.2585 1L4.07009 3.63707C4.07009 3.63707 1.87277 3.94752 2.06907 7.322C2.17562 9.15862 2.75837 10.0606 3.268 10.5045L1.69341 10.9736C1.25638 11.4532 1.81223 11.8098 2.61567 12.0633C2.63094 12.0775 2.64381 12.0934 2.66168 12.1045C3.64365 12.7098 3.62475 14.5107 3.4835 15.5566C-0.0442281 16.5468 1.22211 16.8694 1.22211 16.8694L1.99595 17.0545C1.45163 17.5407 0.911054 18.4627 1.01231 20.2114C1.20871 23.5852 3.01355 23.8181 3.01355 23.8181L15.5703 27.8525L34.5233 23.3146C34.5233 23.3146 35.7901 22.9914 32.2614 22.0012C32.1195 20.9569 32.0998 19.1562 33.084 18.5494C33.1021 18.5386 33.1153 18.5223 33.13 18.5087C33.9334 18.2547 34.4888 17.8986 34.0523 17.419L33.2285 17.1731C33.7779 16.8456 34.6032 15.9897 34.7325 13.7665C34.8217 12.2372 34.4181 11.3416 33.951 10.8143L35.5792 10.4248C35.5793 10.4255 36.8461 10.1023 33.3179 9.11201Z" fill="#DFFBF4" stroke="url(#paint0_linear)"/>
<path d="M17.1152 9.18218C17.1152 9.13422 17.1493 9.09301 17.1964 9.08397L20.652 8.42136L31.4229 6.23343L33.6541 5.70557C33.1414 6.63322 33.2971 8.98394 33.3179 9.11206L30.9255 9.83326L17.2387 13.1407C17.1758 13.1559 17.1152 13.1083 17.1152 13.0435V9.18218Z" fill="white" stroke="url(#paint1_linear)"/>
<path d="M3.12109 12.1577L5.37819 12.6786L15.7221 14.7805L16.6258 14.9635L19.3357 15.5141L19.4694 19.6215L3.60916 15.5141C3.62941 15.3857 3.63425 13.0854 3.12109 12.1577Z" fill="white" stroke="url(#paint2_linear)"/>
<path d="M3.62057 5.28282C3.8287 5.07216 4.07433 5.02832 4.24278 5.02832C4.33179 5.02832 4.39587 5.04054 4.40023 5.04054L12.668 7.70491L17.1157 9.09937V13.0403C17.1157 13.106 17.0534 13.1538 16.9899 13.1369L5.08559 9.96347C5.08559 9.96347 3.72263 9.44195 3.37922 7.938C3.0358 6.43406 3.46256 5.44223 3.62057 5.28282Z" fill="white" stroke="url(#paint3_linear)"/>
<path d="M15.6045 25.9332C15.6024 25.9979 15.5403 26.0436 15.4779 26.0263L3.418 22.6842C3.39546 22.6777 3.36534 22.6734 3.34187 22.6722C3.29337 22.6691 2.14876 22.5651 2.0934 20.0499C2.07367 19.1512 2.23631 18.5026 2.56273 18.1724C2.77138 17.9617 3.33834 17.9297 3.34302 17.9297L15.7349 21.924L15.6045 25.9332Z" fill="white" stroke="url(#paint4_linear)"/>
<path d="M32.2036 21.8816C32.2034 21.9278 32.1721 21.9669 32.1272 21.9781L15.9518 26.0284C15.8874 26.0446 15.8254 25.9946 15.8276 25.9282L15.9574 21.9531L19.6896 21.292L30.3651 19.1233L32.6937 18.5938C32.2348 19.423 32.2048 21.4593 32.2036 21.8816Z" fill="white" stroke="url(#paint5_linear)"/>
<path d="M32.4088 16.2275C32.3809 16.2281 32.3529 16.2318 32.3266 16.24L31.1688 16.5605L20.1446 19.6161L20.0098 15.4799L23.6267 14.3138L32.3847 11.4905C32.3858 11.49 32.8454 11.3891 33.1827 11.7282C33.5093 12.0581 33.6713 12.7073 33.6522 13.6048C33.5951 16.1198 32.4504 16.2243 32.4088 16.2275Z" fill="white" stroke="url(#paint6_linear)"/>
<defs>
<linearGradient id="paint0_linear" x1="35.8006" y1="27.8525" x2="35.8006" y2="1" gradientUnits="userSpaceOnUse">
<stop stop-color="#2ADABF"/>
<stop offset="1" stop-color="#14B78E"/>
</linearGradient>
<linearGradient id="paint1_linear" x1="33.6541" y1="13.1706" x2="33.6541" y2="5.70557" gradientUnits="userSpaceOnUse">
<stop stop-color="#2ADABF"/>
<stop offset="1" stop-color="#14B78E"/>
</linearGradient>
<linearGradient id="paint2_linear" x1="19.4694" y1="19.6215" x2="19.4694" y2="12.1577" gradientUnits="userSpaceOnUse">
<stop stop-color="#2ADABF"/>
<stop offset="1" stop-color="#14B78E"/>
</linearGradient>
<linearGradient id="paint3_linear" x1="17.1157" y1="13.1434" x2="17.1157" y2="5.02832" gradientUnits="userSpaceOnUse">
<stop stop-color="#2ADABF"/>
<stop offset="1" stop-color="#14B78E"/>
</linearGradient>
<linearGradient id="paint4_linear" x1="15.7349" y1="26.0331" x2="15.7349" y2="17.9297" gradientUnits="userSpaceOnUse">
<stop stop-color="#2ADABF"/>
<stop offset="1" stop-color="#14B78E"/>
</linearGradient>
<linearGradient id="paint5_linear" x1="32.6937" y1="26.0606" x2="32.6937" y2="18.5938" gradientUnits="userSpaceOnUse">
<stop stop-color="#2ADABF"/>
<stop offset="1" stop-color="#14B78E"/>
</linearGradient>
<linearGradient id="paint6_linear" x1="33.6537" y1="19.6161" x2="33.6537" y2="11.4761" gradientUnits="userSpaceOnUse">
<stop stop-color="#2ADABF"/>
<stop offset="1" stop-color="#14B78E"/>
</linearGradient>
</defs>
</svg>
