<svg width="256" height="256" viewBox="0 0 256 256" fill="none" xmlns="http://www.w3.org/2000/svg">
<path fill-rule="evenodd" clip-rule="evenodd" d="M46.2222 163.172C46.2222 167.754 49.9366 171.468 54.5185 171.468H227.556C232.137 171.468 235.852 167.754 235.852 163.172C235.852 158.59 232.137 154.876 227.556 154.876H220.444C215.863 154.876 212.148 151.161 212.148 146.579C212.148 141.998 215.863 138.283 220.444 138.283H242.963C247.545 138.283 251.259 134.569 251.259 129.987C251.259 125.405 247.545 121.691 242.963 121.691H216.889C221.471 121.691 225.185 117.976 225.185 113.394C225.185 108.812 221.471 105.098 216.889 105.098H141.037C145.619 105.098 149.333 101.384 149.333 96.8017C149.333 92.2197 145.619 88.5054 141.037 88.5054H73.4815C68.8996 88.5054 65.1852 92.2197 65.1852 96.8017C65.1852 101.384 68.8996 105.098 73.4815 105.098H26.0741C21.4922 105.098 17.7778 108.812 17.7778 113.394C17.7778 117.976 21.4922 121.691 26.0741 121.691H55.7037C60.2856 121.691 64 125.405 64 129.987C64 134.569 60.2856 138.283 55.7037 138.283H8.2963C3.71438 138.283 0 141.998 0 146.579C0 151.161 3.71438 154.876 8.2963 154.876H54.5185C49.9366 154.876 46.2222 158.59 46.2222 163.172ZM256 163.172C256 167.754 252.286 171.468 247.704 171.468C243.122 171.468 239.407 167.754 239.407 163.172C239.407 158.59 243.122 154.876 247.704 154.876C252.286 154.876 256 158.59 256 163.172Z" fill="#C2F1E7"/>
<path fill-rule="evenodd" clip-rule="evenodd" d="M165.777 181.091C169.377 178.774 172.579 175.883 174.661 173.549L165.777 181.091ZM178.022 169.67C179.745 167.56 181.293 165.353 182.667 163.07C185.69 158.046 187.868 152.65 189.199 147.086C190.546 141.458 191.026 135.66 190.636 129.904C190.296 124.881 189.294 119.89 187.627 115.074C185.974 110.295 183.666 105.688 180.702 101.39C178.936 98.8286 176.937 96.3775 174.705 94.0656C171.427 90.6714 167.832 87.7696 164.012 85.3621C159.907 82.7753 155.543 80.759 151.034 79.3156C145.388 77.5079 139.515 76.5985 133.641 76.5919C129.071 76.5868 124.5 77.1281 120.035 78.218C115.008 79.445 110.115 81.3672 105.508 83.9875C101.459 86.291 97.6302 89.1339 94.1256 92.5183C89.7213 96.7714 86.1538 101.566 83.4263 106.697C80.7559 111.72 78.8906 117.066 77.8335 122.543C76.7443 128.186 76.513 133.967 77.1427 139.677C77.9589 147.078 80.2216 154.358 83.9381 161.062C86.3162 165.352 89.2895 169.405 92.8598 173.102C98.5278 178.972 105.145 183.369 112.233 186.284C120.852 189.829 130.166 191.182 139.313 190.328C146.99 189.611 154.55 187.339 161.483 183.502" fill="white"/>
<path d="M165.1 180.04C164.52 180.413 164.352 181.187 164.725 181.767C165.099 182.348 165.872 182.515 166.453 182.142L165.1 180.04ZM175.594 174.381C176.054 173.866 176.009 173.076 175.494 172.616C174.979 172.156 174.188 172.201 173.729 172.716L175.594 174.381ZM182.667 163.07L181.596 162.425L182.667 163.07ZM189.199 147.086L190.415 147.376L189.199 147.086ZM190.636 129.904L191.884 129.819L190.636 129.904ZM187.627 115.074L186.446 115.482L187.627 115.074ZM180.702 101.39L179.673 102.099L180.702 101.39ZM174.705 94.0656L173.806 94.934L174.705 94.0656ZM164.012 85.3621L164.678 84.3046L164.012 85.3621ZM151.034 79.3156L150.653 80.5061L151.034 79.3156ZM133.641 76.5919L133.639 77.8419L133.641 76.5919ZM120.035 78.218L120.331 79.4324L120.035 78.218ZM105.508 83.9875L104.89 82.901L105.508 83.9875ZM94.1256 92.5183L94.9939 93.4175L94.1256 92.5183ZM83.4263 106.697L82.3225 106.11L83.4263 106.697ZM77.8335 122.543L76.6061 122.306L77.8335 122.543ZM77.1427 139.677L75.9002 139.814L77.1427 139.677ZM83.9381 161.062L85.0313 160.456L83.9381 161.062ZM92.8598 173.102L93.759 172.234L92.8598 173.102ZM112.233 186.284L111.757 187.44L112.233 186.284ZM139.313 190.328L139.197 189.084L139.313 190.328ZM162.089 184.596C162.693 184.261 162.911 183.501 162.577 182.897C162.243 182.293 161.482 182.074 160.878 182.408L162.089 184.596ZM166.453 182.142C170.156 179.759 173.442 176.793 175.594 174.381L173.729 172.716C171.715 174.973 168.599 177.788 165.1 180.04L166.453 182.142ZM178.99 170.461C180.751 168.304 182.334 166.049 183.738 163.714L181.596 162.425C180.253 164.658 178.738 166.816 177.054 168.88L178.99 170.461ZM183.738 163.714C186.828 158.579 189.054 153.063 190.415 147.376L187.984 146.795C186.682 152.236 184.551 157.514 181.596 162.425L183.738 163.714ZM190.415 147.376C191.791 141.626 192.282 135.701 191.884 129.819L189.389 129.988C189.77 135.619 189.301 141.291 187.984 146.795L190.415 147.376ZM191.884 129.819C191.536 124.687 190.512 119.587 188.809 114.665L186.446 115.482C188.076 120.193 189.057 125.075 189.389 129.988L191.884 129.819ZM188.809 114.665C187.119 109.781 184.76 105.072 181.731 100.68L179.673 102.099C182.572 106.303 184.829 110.809 186.446 115.482L188.809 114.665ZM181.731 100.68C179.927 98.0629 177.884 95.5586 175.604 93.1973L173.806 94.934C175.99 97.1964 177.946 99.5944 179.673 102.099L181.731 100.68ZM175.604 93.1973C172.256 89.7304 168.582 86.7652 164.678 84.3046L163.345 86.4196C167.081 88.774 170.598 91.6124 173.806 94.934L175.604 93.1973ZM164.678 84.3046C160.483 81.6608 156.023 79.6002 151.416 78.1251L150.653 80.5061C155.063 81.9178 159.331 83.8897 163.345 86.4196L164.678 84.3046ZM151.416 78.1251C145.645 76.2778 139.644 75.3487 133.642 75.3419L133.639 77.8419C139.386 77.8484 145.131 78.7379 150.653 80.5061L151.416 78.1251ZM133.642 75.3419C128.972 75.3367 124.301 75.8898 119.738 77.0037L120.331 79.4324C124.698 78.3665 129.169 77.8369 133.639 77.8419L133.642 75.3419ZM119.738 77.0037C114.601 78.2577 109.6 80.2224 104.89 82.901L106.126 85.0741C110.631 82.512 115.415 80.6323 120.331 79.4324L119.738 77.0037ZM104.89 82.901C100.751 85.2557 96.8378 88.1614 93.2572 91.6191L94.9939 93.4175C98.4226 90.1064 102.167 87.3262 106.126 85.0741L104.89 82.901ZM93.2572 91.6191C88.7575 95.9645 85.1109 100.865 82.3225 106.11L84.53 107.284C87.1968 102.267 90.6852 97.5783 94.9939 93.4175L93.2572 91.6191ZM82.3225 106.11C79.5928 111.245 77.6864 116.709 76.6061 122.306L79.0608 122.78C80.0948 117.423 81.919 112.195 84.53 107.284L82.3225 106.11ZM76.6061 122.306C75.4931 128.072 75.2568 133.98 75.9002 139.814L78.3852 139.54C77.7691 133.954 77.9955 128.299 79.0608 122.78L76.6061 122.306ZM75.9002 139.814C76.7342 147.376 79.0464 154.817 82.8449 161.668L85.0313 160.456C81.3968 153.9 79.1836 146.779 78.3852 139.54L75.9002 139.814ZM82.8449 161.668C85.2754 166.053 88.3137 170.194 91.9606 173.971L93.759 172.234C90.2652 168.616 87.3569 164.651 85.0313 160.456L82.8449 161.668ZM91.9606 173.971C97.7507 179.966 104.513 184.46 111.757 187.44L112.708 185.128C105.777 182.277 99.3049 177.977 93.759 172.234L91.9606 173.971ZM111.757 187.44C120.565 191.062 130.083 192.446 139.429 191.573L139.197 189.084C130.249 189.919 121.138 188.595 112.708 185.128L111.757 187.44ZM139.429 191.573C147.274 190.84 155.001 188.518 162.089 184.596L160.878 182.408C154.099 186.16 146.706 188.382 139.197 189.084L139.429 191.573Z" fill="#1EC7A5"/>
<path d="M189.038 65.9868V73.0979" stroke="#1EC7A5" stroke-width="2.5" stroke-linecap="round" stroke-linejoin="round"/>
<path d="M189.038 82.5796V89.6907" stroke="#1EC7A5" stroke-width="2.5" stroke-linecap="round" stroke-linejoin="round"/>
<path d="M177.186 77.8386H184.297" stroke="#1EC7A5" stroke-width="2.5" stroke-linecap="round" stroke-linejoin="round"/>
<path d="M193.777 77.8386H200.888" stroke="#1EC7A5" stroke-width="2.5" stroke-linecap="round" stroke-linejoin="round"/>
<path d="M90.6668 188.061V192.801" stroke="#1EC7A5" stroke-width="2.5" stroke-linecap="round" stroke-linejoin="round"/>
<path d="M90.6668 202.283V207.023" stroke="#1EC7A5" stroke-width="2.5" stroke-linecap="round" stroke-linejoin="round"/>
<path d="M81.1855 197.542H85.9263" stroke="#1EC7A5" stroke-width="2.5" stroke-linecap="round" stroke-linejoin="round"/>
<path d="M95.4082 197.542H100.149" stroke="#1EC7A5" stroke-width="2.5" stroke-linecap="round" stroke-linejoin="round"/>
<path fill-rule="evenodd" clip-rule="evenodd" d="M116.364 86.9654C113.948 87.8719 111.588 88.9735 109.307 90.2705C105.764 92.286 102.414 94.7736 99.3473 97.7349C98.0903 98.9488 96.9111 100.213 95.81 101.522M92.4032 106.077C91.5276 107.4 90.7218 108.757 89.9859 110.141C89.4424 111.164 88.937 112.201 88.4698 113.252" fill="white"/>
<path d="M116.803 88.1357C117.45 87.8933 117.777 87.1727 117.535 86.5263C117.292 85.88 116.572 85.5526 115.925 85.7951L116.803 88.1357ZM109.307 90.2705L109.925 91.357L109.307 90.2705ZM99.3473 97.7349L98.479 96.8357L99.3473 97.7349ZM94.8536 100.717C94.4091 101.245 94.4769 102.033 95.0051 102.478C95.5334 102.922 96.3219 102.855 96.7664 102.326L94.8536 100.717ZM93.4456 106.767C93.8266 106.191 93.6687 105.416 93.093 105.035C92.5173 104.654 91.7417 104.812 91.3608 105.387L93.4456 106.767ZM89.9859 110.141L91.0897 110.728L89.9859 110.141ZM87.3276 112.744C87.0471 113.375 87.3311 114.114 87.9619 114.394C88.5927 114.675 89.3315 114.391 89.612 113.76L87.3276 112.744ZM115.925 85.7951C113.448 86.7245 111.027 87.854 108.689 89.184L109.925 91.357C112.148 90.0929 114.448 89.0193 116.803 88.1357L115.925 85.7951ZM108.689 89.184C105.056 91.2508 101.621 93.8011 98.479 96.8357L100.216 98.6341C103.206 95.746 106.472 93.3212 109.925 91.357L108.689 89.184ZM98.479 96.8357C97.1909 98.0796 95.9824 99.3754 94.8536 100.717L96.7664 102.326C97.8399 101.051 98.9896 99.818 100.216 98.6341L98.479 96.8357ZM91.3608 105.387C90.463 106.744 89.6368 108.135 88.8822 109.554L91.0897 110.728C91.8069 109.379 92.5922 108.057 93.4456 106.767L91.3608 105.387ZM88.8822 109.554C88.3249 110.603 87.8067 111.667 87.3276 112.744L89.612 113.76C90.0674 112.736 90.5599 111.724 91.0897 110.728L88.8822 109.554Z" fill="#1EC7A5"/>
<path d="M111.384 132.794C109.659 131.239 106.981 131.358 105.405 133.06C103.828 134.762 103.949 137.402 105.675 138.957L125.596 156.902C128.012 159.078 131.761 158.911 133.968 156.528C134.06 156.427 134.06 156.427 134.149 156.323L162.578 122.607C164.073 120.834 163.827 118.203 162.029 116.729C160.232 115.255 157.563 115.497 156.069 117.27L129.341 148.969L111.384 132.794Z" fill="#C2F1E7" stroke="#1EC7A5" stroke-width="2.5"/>
</svg>
